%TF.GenerationSoftware,Altium Limited,Altium Designer,18.0.11 (651)*%
G04 Layer_Color=128*
%FSLAX26Y26*%
%MOIN*%
%TF.FileFunction,Drillmap*%
%TF.Part,Single*%
G01*
G75*
%TA.AperFunction,NonConductor*%
%ADD92C,0.005000*%
D92*
X5677244Y7628346D02*
X5717244D01*
X5697244Y7608346D02*
Y7648346D01*
X5777244Y7628346D02*
X5817244D01*
X5797244Y7608346D02*
Y7648346D01*
X5677244Y7728346D02*
X5717244D01*
X5697244Y7708346D02*
Y7748346D01*
X6177244Y7628346D02*
X6217244D01*
X6197244Y7608346D02*
Y7648346D01*
X6177244Y7728346D02*
X6217244D01*
X6197244Y7708346D02*
Y7748346D01*
X6077244Y7628346D02*
X6117244D01*
X6097244Y7608346D02*
Y7648346D01*
X6077244Y7728346D02*
X6117244D01*
X6097244Y7708346D02*
Y7748346D01*
X5977244Y7628346D02*
X6017244D01*
X5997244Y7608346D02*
Y7648346D01*
X5977244Y7728346D02*
X6017244D01*
X5997244Y7708346D02*
Y7748346D01*
X5877244Y7628346D02*
X5917244D01*
X5897244Y7608346D02*
Y7648346D01*
X5877244Y7728346D02*
X5917244D01*
X5897244Y7708346D02*
Y7748346D01*
X5577244Y7628346D02*
X5617244D01*
X5597244Y7608346D02*
Y7648346D01*
X5777244Y7728346D02*
X5817244D01*
X5797244Y7708346D02*
Y7748346D01*
X5577244Y7728346D02*
X5617244D01*
X5597244Y7708346D02*
Y7748346D01*
X10705512Y1555118D02*
X10752756D01*
X10729134Y1531496D02*
Y1578740D01*
X11117323Y1555118D02*
X11164567D01*
X11140945Y1531496D02*
Y1578740D01*
X10705512Y1948819D02*
X10752756D01*
X10729134Y1925197D02*
Y1972441D01*
X11117323Y1948819D02*
X11164567D01*
X11140945Y1925197D02*
Y1972441D01*
X10705512Y2342520D02*
X10752756D01*
X10729134Y2318898D02*
Y2366142D01*
X11117323Y2342520D02*
X11164567D01*
X11140945Y2318898D02*
Y2366142D01*
X10705512Y2736220D02*
X10752756D01*
X10729134Y2712599D02*
Y2759843D01*
X11117323Y2736220D02*
X11164567D01*
X11140945Y2712599D02*
Y2759843D01*
X10705512Y3129921D02*
X10752756D01*
X10729134Y3106299D02*
Y3153543D01*
X11117323Y3129921D02*
X11164567D01*
X11140945Y3106299D02*
Y3153543D01*
X9909843Y1555118D02*
X9957087D01*
X9933465Y1531496D02*
Y1578740D01*
X10321654Y1555118D02*
X10368898D01*
X10345276Y1531496D02*
Y1578740D01*
X10019685Y1371653D02*
X10059055D01*
X10039370Y1351968D02*
Y1391338D01*
X10119685Y1371653D02*
X10159055D01*
X10139370Y1351968D02*
Y1391338D01*
X10219685Y1371653D02*
X10259055D01*
X10239370Y1351968D02*
Y1391338D01*
X10019685Y1765354D02*
X10059055D01*
X10039370Y1745669D02*
Y1785039D01*
X10119685Y1765354D02*
X10159055D01*
X10139370Y1745669D02*
Y1785039D01*
X10219685Y1765354D02*
X10259055D01*
X10239370Y1745669D02*
Y1785039D01*
X9908268Y1948819D02*
X9955512D01*
X9931890Y1925197D02*
Y1972441D01*
X10320079Y1948819D02*
X10367323D01*
X10343701Y1925197D02*
Y1972441D01*
X10019685Y2159055D02*
X10059055D01*
X10039370Y2139370D02*
Y2178740D01*
X10119685Y2159055D02*
X10159055D01*
X10139370Y2139370D02*
Y2178740D01*
X10219685Y2159055D02*
X10259055D01*
X10239370Y2139370D02*
Y2178740D01*
X9908268Y2342520D02*
X9955512D01*
X9931890Y2318898D02*
Y2366142D01*
X10320079Y2342520D02*
X10367323D01*
X10343701Y2318898D02*
Y2366142D01*
X10019685Y2552756D02*
X10059055D01*
X10039370Y2533071D02*
Y2572441D01*
X10119685Y2552756D02*
X10159055D01*
X10139370Y2533071D02*
Y2572441D01*
X10219685Y2552756D02*
X10259055D01*
X10239370Y2533071D02*
Y2572441D01*
X9909843Y2736220D02*
X9957087D01*
X9933465Y2712599D02*
Y2759843D01*
X10321654Y2736220D02*
X10368898D01*
X10345276Y2712599D02*
Y2759843D01*
X10019685Y2946456D02*
X10059055D01*
X10039370Y2926771D02*
Y2966142D01*
X10119685Y2946456D02*
X10159055D01*
X10139370Y2926771D02*
Y2966142D01*
X10219685Y2946456D02*
X10259055D01*
X10239370Y2926771D02*
Y2966142D01*
X9909843Y3129921D02*
X9957087D01*
X9933465Y3106299D02*
Y3153543D01*
X10321654Y3129921D02*
X10368898D01*
X10345276Y3106299D02*
Y3153543D01*
X9122441Y1555118D02*
X9169685D01*
X9146063Y1531496D02*
Y1578740D01*
X9534252Y1555118D02*
X9581496D01*
X9557874Y1531496D02*
Y1578740D01*
X9120866Y1948819D02*
X9168110D01*
X9144488Y1925197D02*
Y1972441D01*
X9532677Y1948819D02*
X9579921D01*
X9556299Y1925197D02*
Y1972441D01*
X9120866Y2342520D02*
X9168110D01*
X9144488Y2318898D02*
Y2366142D01*
X9532677Y2342520D02*
X9579921D01*
X9556299Y2318898D02*
Y2366142D01*
X9122441Y2736220D02*
X9169685D01*
X9146063Y2712599D02*
Y2759843D01*
X9534252Y2736220D02*
X9581496D01*
X9557874Y2712599D02*
Y2759843D01*
X9122441Y3129921D02*
X9169685D01*
X9146063Y3106299D02*
Y3153543D01*
X9534252Y3129921D02*
X9581496D01*
X9557874Y3106299D02*
Y3153543D01*
X8444882Y1371653D02*
X8484252D01*
X8464567Y1351968D02*
Y1391339D01*
X8544882Y1371653D02*
X8584252D01*
X8564567Y1351968D02*
Y1391339D01*
X8644882Y1371653D02*
X8684252D01*
X8664567Y1351968D02*
Y1391339D01*
X8335039Y1555118D02*
X8382283D01*
X8358661Y1531496D02*
Y1578740D01*
X8746850Y1555118D02*
X8794094D01*
X8770472Y1531496D02*
Y1578740D01*
X8444882Y1765354D02*
X8484252D01*
X8464567Y1745669D02*
Y1785039D01*
X8544882Y1765354D02*
X8584252D01*
X8564567Y1745669D02*
Y1785039D01*
X8644882Y1765354D02*
X8684252D01*
X8664567Y1745669D02*
Y1785039D01*
X8333465Y1948819D02*
X8380709D01*
X8357087Y1925197D02*
Y1972441D01*
X8745276Y1948819D02*
X8792520D01*
X8768898Y1925197D02*
Y1972441D01*
X8444882Y2159055D02*
X8484252D01*
X8464567Y2139370D02*
Y2178740D01*
X8544882Y2159055D02*
X8584252D01*
X8564567Y2139370D02*
Y2178740D01*
X8644882Y2159055D02*
X8684252D01*
X8664567Y2139370D02*
Y2178740D01*
X8333465Y2342520D02*
X8380709D01*
X8357087Y2318898D02*
Y2366142D01*
X8745276Y2342520D02*
X8792520D01*
X8768898Y2318898D02*
Y2366142D01*
X8444882Y2552756D02*
X8484252D01*
X8464567Y2533071D02*
Y2572441D01*
X8544882Y2552756D02*
X8584252D01*
X8564567Y2533071D02*
Y2572441D01*
X8644882Y2552756D02*
X8684252D01*
X8664567Y2533071D02*
Y2572441D01*
X8335039Y2736220D02*
X8382283D01*
X8358661Y2712599D02*
Y2759843D01*
X8746850Y2736220D02*
X8794094D01*
X8770472Y2712599D02*
Y2759843D01*
X8335039Y3129921D02*
X8382283D01*
X8358661Y3106299D02*
Y3153543D01*
X8746850Y3129921D02*
X8794094D01*
X8770472Y3106299D02*
Y3153543D01*
X7547638Y1555118D02*
X7594882D01*
X7571260Y1531496D02*
Y1578740D01*
X7959449Y1555118D02*
X8006693D01*
X7983071Y1531496D02*
Y1578740D01*
X7546063Y1948819D02*
X7593307D01*
X7569685Y1925197D02*
Y1972441D01*
X7957874Y1948819D02*
X8005118D01*
X7981496Y1925197D02*
Y1972441D01*
X7546063Y2342520D02*
X7593307D01*
X7569685Y2318898D02*
Y2366142D01*
X7957874Y2342520D02*
X8005118D01*
X7981496Y2318898D02*
Y2366142D01*
X7546063Y2746063D02*
X7593307D01*
X7569685Y2722441D02*
Y2769685D01*
X7957874Y2746063D02*
X8005118D01*
X7981496Y2722441D02*
Y2769685D01*
X7546063Y3139764D02*
X7593307D01*
X7569685Y3116142D02*
Y3163386D01*
X7957874Y3139764D02*
X8005118D01*
X7981496Y3116142D02*
Y3163386D01*
X6870079Y1371653D02*
X6909449D01*
X6889764Y1351968D02*
Y1391338D01*
X6970079Y1371653D02*
X7009449D01*
X6989764Y1351968D02*
Y1391338D01*
X7070079Y1371653D02*
X7109449D01*
X7089764Y1351968D02*
Y1391338D01*
X6760236Y1555118D02*
X6807480D01*
X6783858Y1531496D02*
Y1578740D01*
X7172047Y1555118D02*
X7219291D01*
X7195669Y1531496D02*
Y1578740D01*
X6870079Y1765354D02*
X6909449D01*
X6889764Y1745669D02*
Y1785039D01*
X6970079Y1765354D02*
X7009449D01*
X6989764Y1745669D02*
Y1785039D01*
X7070079Y1765354D02*
X7109449D01*
X7089764Y1745669D02*
Y1785039D01*
X6760236Y1948819D02*
X6807480D01*
X6783858Y1925197D02*
Y1972441D01*
X7172047Y1948819D02*
X7219291D01*
X7195669Y1925197D02*
Y1972441D01*
X6868504Y2159055D02*
X6907874D01*
X6888189Y2139370D02*
Y2178740D01*
X6968504Y2159055D02*
X7007874D01*
X6988189Y2139370D02*
Y2178740D01*
X7068504Y2159055D02*
X7107874D01*
X7088189Y2139370D02*
Y2178740D01*
X6768504Y2342520D02*
X6815748D01*
X6792126Y2318898D02*
Y2366142D01*
X7180315Y2342520D02*
X7227559D01*
X7203937Y2318898D02*
Y2366142D01*
X6870079Y2564961D02*
X6909449D01*
X6889764Y2545276D02*
Y2584646D01*
X6970079Y2564961D02*
X7009449D01*
X6989764Y2545276D02*
Y2584646D01*
X7070079Y2564961D02*
X7109449D01*
X7089764Y2545276D02*
Y2584646D01*
X6760236Y2746063D02*
X6807480D01*
X6783858Y2722441D02*
Y2769685D01*
X7172047Y2746063D02*
X7219291D01*
X7195669Y2722441D02*
Y2769685D01*
X6868504Y2946456D02*
X6907874D01*
X6888189Y2926771D02*
Y2966142D01*
X6968504Y2946456D02*
X7007874D01*
X6988189Y2926771D02*
Y2966142D01*
X7068504Y2946456D02*
X7107874D01*
X7088189Y2926771D02*
Y2966142D01*
X6760236Y3129921D02*
X6807480D01*
X6783858Y3106299D02*
Y3153543D01*
X7172047Y3129921D02*
X7219291D01*
X7195669Y3106299D02*
Y3153543D01*
X5977165Y1564961D02*
X6024409D01*
X6000787Y1541339D02*
Y1588583D01*
X6388976Y1564961D02*
X6436220D01*
X6412598Y1541339D02*
Y1588583D01*
X5977165Y1958661D02*
X6024409D01*
X6000787Y1935039D02*
Y1982283D01*
X6388976Y1958661D02*
X6436220D01*
X6412598Y1935039D02*
Y1982283D01*
X5977165Y2352362D02*
X6024409D01*
X6000787Y2328740D02*
Y2375984D01*
X6388976Y2352362D02*
X6436220D01*
X6412598Y2328740D02*
Y2375984D01*
X5977165Y2746063D02*
X6024409D01*
X6000787Y2722441D02*
Y2769685D01*
X6388976Y2746063D02*
X6436220D01*
X6412598Y2722441D02*
Y2769685D01*
X5972835Y3129921D02*
X6020079D01*
X5996457Y3106299D02*
Y3153543D01*
X6384646Y3129921D02*
X6431890D01*
X6408268Y3106299D02*
Y3153543D01*
X5295276Y1371653D02*
X5334646D01*
X5314961Y1351968D02*
Y1391338D01*
X5395276Y1371653D02*
X5434646D01*
X5414961Y1351968D02*
Y1391338D01*
X5495276Y1371653D02*
X5534646D01*
X5514961Y1351968D02*
Y1391338D01*
X5193701Y1555118D02*
X5240945D01*
X5217323Y1531496D02*
Y1578740D01*
X5605512Y1555118D02*
X5652756D01*
X5629134Y1531496D02*
Y1578740D01*
X5193701Y1948819D02*
X5240945D01*
X5217323Y1925197D02*
Y1972441D01*
X5605512Y1948819D02*
X5652756D01*
X5629134Y1925197D02*
Y1972441D01*
X5295276Y1768504D02*
X5334646D01*
X5314961Y1748819D02*
Y1788189D01*
X5395276Y1768504D02*
X5434646D01*
X5414961Y1748819D02*
Y1788189D01*
X5495276Y1768504D02*
X5534646D01*
X5514961Y1748819D02*
Y1788189D01*
X5293701Y2165354D02*
X5333071D01*
X5313386Y2145669D02*
Y2185039D01*
X5393701Y2165354D02*
X5433071D01*
X5413386Y2145669D02*
Y2185039D01*
X5493701Y2165354D02*
X5533071D01*
X5513386Y2145669D02*
Y2185039D01*
X5193701Y2352362D02*
X5240945D01*
X5217323Y2328740D02*
Y2375984D01*
X5605512Y2352362D02*
X5652756D01*
X5629134Y2328740D02*
Y2375984D01*
X5295276Y2559055D02*
X5334646D01*
X5314961Y2539370D02*
Y2578740D01*
X5395276Y2559055D02*
X5434646D01*
X5414961Y2539370D02*
Y2578740D01*
X5495276Y2559055D02*
X5534646D01*
X5514961Y2539370D02*
Y2578740D01*
X5193701Y2746063D02*
X5240945D01*
X5217323Y2722441D02*
Y2769685D01*
X5605512Y2746063D02*
X5652756D01*
X5629134Y2722441D02*
Y2769685D01*
X5193701Y3129921D02*
X5240945D01*
X5217323Y3106299D02*
Y3153543D01*
X5605512Y3129921D02*
X5652756D01*
X5629134Y3106299D02*
Y3153543D01*
X5295276Y2946456D02*
X5334646D01*
X5314961Y2926771D02*
Y2966142D01*
X5395276Y2946456D02*
X5434646D01*
X5414961Y2926771D02*
Y2966142D01*
X5495276Y2946456D02*
X5534646D01*
X5514961Y2926771D02*
Y2966142D01*
X4429528Y1362599D02*
X4468898D01*
X4449213Y1342914D02*
Y1382284D01*
X4529528Y1362599D02*
X4568898D01*
X4549213Y1342914D02*
Y1382284D01*
X4629528Y1362599D02*
X4668898D01*
X4649213Y1342914D02*
Y1382284D01*
X4429528Y1751575D02*
X4468898D01*
X4449213Y1731890D02*
Y1771260D01*
X4529528Y1751575D02*
X4568898D01*
X4549213Y1731890D02*
Y1771260D01*
X4629528Y1751575D02*
X4668898D01*
X4649213Y1731890D02*
Y1771260D01*
X4429528Y2137008D02*
X4468898D01*
X4449213Y2117323D02*
Y2156693D01*
X4529528Y2137008D02*
X4568898D01*
X4549213Y2117323D02*
Y2156693D01*
X4629528Y2137008D02*
X4668898D01*
X4649213Y2117323D02*
Y2156693D01*
X4429528Y2545351D02*
X4468898D01*
X4449213Y2525666D02*
Y2565036D01*
X4529528Y2545351D02*
X4568898D01*
X4549213Y2525666D02*
Y2565036D01*
X4629528Y2545351D02*
X4668898D01*
X4649213Y2525666D02*
Y2565036D01*
X3658186Y1356299D02*
X3697556D01*
X3677871Y1336614D02*
Y1375984D01*
X3758186Y1356299D02*
X3797556D01*
X3777871Y1336614D02*
Y1375984D01*
X3858186Y1356299D02*
X3897556D01*
X3877871Y1336614D02*
Y1375984D01*
X3658186Y1750000D02*
X3697556D01*
X3677871Y1730315D02*
Y1769685D01*
X3758186Y1750000D02*
X3797556D01*
X3777871Y1730315D02*
Y1769685D01*
X3858186Y1750000D02*
X3897556D01*
X3877871Y1730315D02*
Y1769685D01*
X3658186Y2133859D02*
X3697556D01*
X3677871Y2114174D02*
Y2153544D01*
X3758186Y2133859D02*
X3797556D01*
X3777871Y2114174D02*
Y2153544D01*
X3858186Y2133859D02*
X3897556D01*
X3877871Y2114174D02*
Y2153544D01*
X3640946Y2537402D02*
X3680316D01*
X3660631Y2517717D02*
Y2557087D01*
X3740946Y2537402D02*
X3780316D01*
X3760631Y2517717D02*
Y2557087D01*
X3840946Y2537402D02*
X3880316D01*
X3860631Y2517717D02*
Y2557087D01*
X3642127Y2934252D02*
X3681497D01*
X3661812Y2914567D02*
Y2953937D01*
X3742127Y2934252D02*
X3781497D01*
X3761812Y2914567D02*
Y2953937D01*
X3842127Y2934252D02*
X3881497D01*
X3861812Y2914567D02*
Y2953937D01*
X7658465Y7677953D02*
X7776575D01*
X7717520Y7618898D02*
Y7737008D01*
X8079724Y7677953D02*
X8197835D01*
X8138779Y7618898D02*
Y7737008D01*
X8203346Y7507874D02*
X8243504D01*
X8223425Y7487795D02*
Y7527953D01*
X8085236Y7507874D02*
X8125394D01*
X8105315Y7487795D02*
Y7527953D01*
X7967126Y7507874D02*
X8007283D01*
X7987205Y7487795D02*
Y7527953D01*
X7612795Y7507874D02*
X7652953D01*
X7632874Y7487795D02*
Y7527953D01*
X7730906Y7507874D02*
X7771063D01*
X7750984Y7487795D02*
Y7527953D01*
X7849016Y7507874D02*
X7889173D01*
X7869095Y7487795D02*
Y7527953D01*
X588583Y3514173D02*
X687008D01*
X637795Y3464961D02*
Y3563386D01*
X588583Y4514173D02*
X687008D01*
X637795Y4464961D02*
Y4563386D01*
X588583Y1652362D02*
X687008D01*
X637795Y1603150D02*
Y1701575D01*
X588583Y2652362D02*
X687008D01*
X637795Y2603150D02*
Y2701575D01*
X9528031Y5061023D02*
X9568031D01*
X9548031Y5041023D02*
Y5081023D01*
X9728031Y5061024D02*
X9768031D01*
X9748031Y5041024D02*
Y5081024D01*
X9628031Y5061023D02*
X9668031D01*
X9648031Y5041023D02*
Y5081023D01*
X767717Y4114173D02*
X807087D01*
X787402Y4094488D02*
Y4133858D01*
X767717Y4014173D02*
X807087D01*
X787402Y3994488D02*
Y4033858D01*
X767717Y3914173D02*
X807087D01*
X787402Y3894488D02*
Y3933858D01*
X10466063Y6942205D02*
X10505433D01*
X10485748Y6922520D02*
Y6961890D01*
X10466063Y6242205D02*
X10505433D01*
X10485748Y6222520D02*
Y6261890D01*
X10192323Y6942205D02*
X10231693D01*
X10212008Y6922520D02*
Y6961890D01*
X10192323Y6242205D02*
X10231693D01*
X10212008Y6222520D02*
Y6261890D01*
X9923629Y6941682D02*
X9962999D01*
X9943314Y6921997D02*
Y6961367D01*
X9923629Y6241682D02*
X9962999D01*
X9943314Y6221997D02*
Y6261367D01*
X9648038Y6941682D02*
X9687408D01*
X9667723Y6921997D02*
Y6961367D01*
X9648038Y6241682D02*
X9687408D01*
X9667723Y6221997D02*
Y6261367D01*
X9372448Y6941682D02*
X9411817D01*
X9392132Y6921997D02*
Y6961367D01*
X9372448Y6241682D02*
X9411817D01*
X9392132Y6221997D02*
Y6261367D01*
X4429528Y2934252D02*
X4468898D01*
X4449213Y2914567D02*
Y2953937D01*
X4529528Y2934252D02*
X4568898D01*
X4549213Y2914567D02*
Y2953937D01*
X4629528Y2934252D02*
X4668898D01*
X4649213Y2914567D02*
Y2953937D01*
X5127638Y4114173D02*
X5167638D01*
X5147638Y4094173D02*
Y4134173D01*
X5127638Y4214173D02*
X5167638D01*
X5147638Y4194173D02*
Y4234173D01*
X7889764Y6094488D02*
X8015748D01*
X7952756Y6031496D02*
Y6157480D01*
X7889764Y4519685D02*
X8015748D01*
X7952756Y4456693D02*
Y4582677D01*
X10463077Y7421260D02*
X10503077D01*
X10483077Y7401260D02*
Y7441260D01*
X10463077Y7321260D02*
X10503077D01*
X10483077Y7301260D02*
Y7341260D01*
X11318898Y393701D02*
X11515748D01*
X11417323Y295276D02*
Y492126D01*
X11318898Y7480315D02*
X11515748D01*
X11417323Y7381890D02*
Y7578740D01*
X295276Y7480315D02*
X492126D01*
X393701Y7381890D02*
Y7578740D01*
X5098110Y7409449D02*
X5138110D01*
X5118110Y7389449D02*
Y7429449D01*
X5098110Y7309449D02*
X5138110D01*
X5118110Y7289449D02*
Y7329449D01*
X5098110Y7109449D02*
X5138110D01*
X5118110Y7089449D02*
Y7129449D01*
X5098111Y7009449D02*
X5138111D01*
X5118111Y6989449D02*
Y7029449D01*
X5098110Y7209449D02*
X5138110D01*
X5118110Y7189449D02*
Y7229449D01*
X515748Y5366142D02*
X586614D01*
X551181Y5330709D02*
Y5401575D01*
X515748Y5529134D02*
X586614D01*
X551181Y5493701D02*
Y5564567D01*
X515748Y6181102D02*
X586614D01*
X551181Y6145669D02*
Y6216535D01*
X515748Y6018110D02*
X586614D01*
X551181Y5982677D02*
Y6053543D01*
X515748Y5692126D02*
X586614D01*
X551181Y5656693D02*
Y5727559D01*
X515748Y5855118D02*
X586614D01*
X551181Y5819685D02*
Y5890551D01*
X515748Y6507087D02*
X586614D01*
X551181Y6471654D02*
Y6542520D01*
X515748Y6344095D02*
X586614D01*
X551181Y6308662D02*
Y6379528D01*
X515748Y6670079D02*
X586614D01*
X551181Y6634646D02*
Y6705512D01*
X515748Y6833071D02*
X586614D01*
X551181Y6797638D02*
Y6868504D01*
X678740Y6833071D02*
X749606D01*
X714173Y6797638D02*
Y6868504D01*
X678740Y6670079D02*
X749606D01*
X714173Y6634646D02*
Y6705512D01*
X678740Y6344095D02*
X749606D01*
X714173Y6308662D02*
Y6379528D01*
X678740Y6507087D02*
X749606D01*
X714173Y6471654D02*
Y6542520D01*
X678740Y5855118D02*
X749606D01*
X714173Y5819685D02*
Y5890551D01*
X678740Y5692126D02*
X749606D01*
X714173Y5656693D02*
Y5727559D01*
X678740Y6018110D02*
X749606D01*
X714173Y5982677D02*
Y6053543D01*
X678740Y6181102D02*
X749606D01*
X714173Y6145669D02*
Y6216535D01*
X678740Y5529134D02*
X749606D01*
X714173Y5493701D02*
Y5564567D01*
X186220Y6507087D02*
X338189D01*
X262205Y6431102D02*
Y6583071D01*
X186220Y5692126D02*
X338189D01*
X262205Y5616142D02*
Y5768110D01*
X678740Y5366142D02*
X749606D01*
X714173Y5330709D02*
Y5401575D01*
X11224409Y5805118D02*
X11295275D01*
X11259843Y5769685D02*
Y5840551D01*
X11224409Y5642126D02*
X11295275D01*
X11259843Y5606693D02*
Y5677559D01*
X11224409Y4990158D02*
X11295275D01*
X11259843Y4954725D02*
Y5025591D01*
X11224409Y5153150D02*
X11295275D01*
X11259843Y5117717D02*
Y5188583D01*
X11224409Y5479134D02*
X11295275D01*
X11259843Y5443701D02*
Y5514567D01*
X11224409Y5316142D02*
X11295275D01*
X11259843Y5280709D02*
Y5351575D01*
X11224409Y4664173D02*
X11295275D01*
X11259843Y4628740D02*
Y4699606D01*
X11224409Y4827166D02*
X11295275D01*
X11259843Y4791733D02*
Y4862599D01*
X11224409Y4501181D02*
X11295275D01*
X11259843Y4465748D02*
Y4536614D01*
X11224409Y4338189D02*
X11295275D01*
X11259843Y4302756D02*
Y4373622D01*
X11061417Y4338189D02*
X11132283D01*
X11096850Y4302756D02*
Y4373622D01*
X11061417Y4501181D02*
X11132283D01*
X11096850Y4465748D02*
Y4536614D01*
X11061417Y4827166D02*
X11132283D01*
X11096850Y4791733D02*
Y4862599D01*
X11061417Y4664173D02*
X11132283D01*
X11096850Y4628740D02*
Y4699606D01*
X11061417Y5316142D02*
X11132283D01*
X11096850Y5280709D02*
Y5351575D01*
X11061417Y5479134D02*
X11132283D01*
X11096850Y5443701D02*
Y5514567D01*
X11061417Y5153150D02*
X11132283D01*
X11096850Y5117717D02*
Y5188583D01*
X11061417Y4990158D02*
X11132283D01*
X11096850Y4954725D02*
Y5025591D01*
X11061417Y5642126D02*
X11132283D01*
X11096850Y5606693D02*
Y5677559D01*
X11472835Y4664173D02*
X11624803D01*
X11548819Y4588189D02*
Y4740158D01*
X11472835Y5479134D02*
X11624803D01*
X11548819Y5403150D02*
Y5555118D01*
X11061417Y5805118D02*
X11132283D01*
X11096850Y5769685D02*
Y5840551D01*
X7312205Y585039D02*
X7383071D01*
X7347638Y549606D02*
Y620472D01*
X7149213Y585039D02*
X7220079D01*
X7184646Y549606D02*
Y620472D01*
X6497244Y585039D02*
X6568110D01*
X6532677Y549606D02*
Y620472D01*
X6660236Y585039D02*
X6731102D01*
X6695669Y549606D02*
Y620472D01*
X6986221Y585039D02*
X7057087D01*
X7021654Y549606D02*
Y620472D01*
X6823228Y585039D02*
X6894094D01*
X6858661Y549606D02*
Y620472D01*
X6171260Y585039D02*
X6242126D01*
X6206693Y549606D02*
Y620472D01*
X6334252Y585039D02*
X6405118D01*
X6369685Y549606D02*
Y620472D01*
X6008268Y585039D02*
X6079134D01*
X6043701Y549606D02*
Y620472D01*
X5845276Y585039D02*
X5916142D01*
X5880709Y549606D02*
Y620472D01*
X5845276Y748032D02*
X5916142D01*
X5880709Y712598D02*
Y783465D01*
X6008268Y748032D02*
X6079134D01*
X6043701Y712598D02*
Y783465D01*
X6334252Y748032D02*
X6405118D01*
X6369685Y712598D02*
Y783465D01*
X6171260Y748032D02*
X6242126D01*
X6206693Y712598D02*
Y783465D01*
X6823228Y748032D02*
X6894094D01*
X6858661Y712598D02*
Y783465D01*
X6986221Y748032D02*
X7057087D01*
X7021654Y712598D02*
Y783465D01*
X6660236Y748032D02*
X6731102D01*
X6695669Y712598D02*
Y783465D01*
X6497244Y748032D02*
X6568110D01*
X6532677Y712598D02*
Y783465D01*
X7149213Y748032D02*
X7220079D01*
X7184646Y712598D02*
Y783465D01*
X6130709Y296063D02*
X6282677D01*
X6206693Y220079D02*
Y372047D01*
X6945669Y296063D02*
X7097638D01*
X7021654Y220079D02*
Y372047D01*
X7312205Y748032D02*
X7383071D01*
X7347638Y712598D02*
Y783465D01*
X10436221Y590551D02*
X10507087D01*
X10471654Y555118D02*
Y625984D01*
X10273228Y590551D02*
X10344094D01*
X10308661Y555118D02*
Y625984D01*
X9621260Y590551D02*
X9692126D01*
X9656693Y555118D02*
Y625984D01*
X9784252Y590551D02*
X9855118D01*
X9819685Y555118D02*
Y625984D01*
X10110236Y590551D02*
X10181102D01*
X10145669Y555118D02*
Y625984D01*
X9947244Y590551D02*
X10018110D01*
X9982677Y555118D02*
Y625984D01*
X9295276Y590551D02*
X9366142D01*
X9330709Y555118D02*
Y625984D01*
X9458268Y590551D02*
X9529134D01*
X9493701Y555118D02*
Y625984D01*
X9132284Y590551D02*
X9203150D01*
X9167717Y555118D02*
Y625984D01*
X8969291Y590551D02*
X9040157D01*
X9004724Y555118D02*
Y625984D01*
X8969291Y753543D02*
X9040157D01*
X9004724Y718110D02*
Y788976D01*
X9132284Y753543D02*
X9203150D01*
X9167717Y718110D02*
Y788976D01*
X9458268Y753543D02*
X9529134D01*
X9493701Y718110D02*
Y788976D01*
X9295276Y753543D02*
X9366142D01*
X9330709Y718110D02*
Y788976D01*
X9947244Y753543D02*
X10018110D01*
X9982677Y718110D02*
Y788976D01*
X10110236Y753543D02*
X10181102D01*
X10145669Y718110D02*
Y788976D01*
X9784252Y753543D02*
X9855118D01*
X9819685Y718110D02*
Y788976D01*
X9621260Y753543D02*
X9692126D01*
X9656693Y718110D02*
Y788976D01*
X10273228Y753543D02*
X10344094D01*
X10308661Y718110D02*
Y788976D01*
X9254725Y301575D02*
X9406693D01*
X9330709Y225591D02*
Y377559D01*
X10069685Y301575D02*
X10221654D01*
X10145669Y225591D02*
Y377559D01*
X10436221Y753543D02*
X10507087D01*
X10471654Y718110D02*
Y788976D01*
X3879921Y7665354D02*
X3938976D01*
X3909449Y7635827D02*
Y7694882D01*
X4832677Y7665354D02*
X4891732D01*
X4862205Y7635827D02*
Y7694882D01*
X7857480Y2952756D02*
X7896850D01*
X7877165Y2933071D02*
Y2972441D01*
X7757480Y2952756D02*
X7796850D01*
X7777165Y2933071D02*
Y2972441D01*
X7657480Y2952756D02*
X7696850D01*
X7677165Y2933071D02*
Y2972441D01*
X7857480Y2559055D02*
X7896850D01*
X7877165Y2539370D02*
Y2578740D01*
X7757480Y2559055D02*
X7796850D01*
X7777165Y2539370D02*
Y2578740D01*
X7657480Y2559055D02*
X7696850D01*
X7677165Y2539370D02*
Y2578740D01*
X7852681Y2155512D02*
X7892051D01*
X7872366Y2135827D02*
Y2175197D01*
X7752681Y2155512D02*
X7792051D01*
X7772366Y2135827D02*
Y2175197D01*
X7652681Y2155512D02*
X7692051D01*
X7672366Y2135827D02*
Y2175197D01*
X7857480Y1765354D02*
X7896850D01*
X7877165Y1745669D02*
Y1785039D01*
X7757480Y1765354D02*
X7796850D01*
X7777165Y1745669D02*
Y1785039D01*
X7657480Y1765354D02*
X7696850D01*
X7677165Y1745669D02*
Y1785039D01*
X7857480Y1371653D02*
X7896850D01*
X7877165Y1351968D02*
Y1391339D01*
X7757480Y1371653D02*
X7796850D01*
X7777165Y1351968D02*
Y1391339D01*
X7657480Y1371653D02*
X7696850D01*
X7677165Y1351968D02*
Y1391339D01*
X6281102Y2946456D02*
X6320472D01*
X6300787Y2926771D02*
Y2966142D01*
X6181102Y2946456D02*
X6220472D01*
X6200787Y2926771D02*
Y2966142D01*
X6081102Y2946456D02*
X6120472D01*
X6100787Y2926771D02*
Y2966142D01*
X6282677Y2559055D02*
X6322047D01*
X6302362Y2539370D02*
Y2578740D01*
X6182677Y2559055D02*
X6222047D01*
X6202362Y2539370D02*
Y2578740D01*
X6082677Y2559055D02*
X6122047D01*
X6102362Y2539370D02*
Y2578740D01*
X6282677Y2165354D02*
X6322047D01*
X6302362Y2145669D02*
Y2185039D01*
X6182677Y2165354D02*
X6222047D01*
X6202362Y2145669D02*
Y2185039D01*
X6082677Y2165354D02*
X6122047D01*
X6102362Y2145669D02*
Y2185039D01*
X6277877Y1771654D02*
X6317247D01*
X6297562Y1751969D02*
Y1791339D01*
X6177877Y1771654D02*
X6217247D01*
X6197562Y1751969D02*
Y1791339D01*
X6077877Y1771654D02*
X6117247D01*
X6097562Y1751969D02*
Y1791339D01*
X6282677Y1377953D02*
X6322047D01*
X6302362Y1358268D02*
Y1397638D01*
X6182677Y1377953D02*
X6222047D01*
X6202362Y1358268D02*
Y1397638D01*
X6082677Y1377953D02*
X6122047D01*
X6102362Y1358268D02*
Y1397638D01*
X11015354Y2946456D02*
X11054724D01*
X11035039Y2926771D02*
Y2966142D01*
X10915354Y2946456D02*
X10954724D01*
X10935039Y2926771D02*
Y2966142D01*
X10815354Y2946456D02*
X10854724D01*
X10835039Y2926771D02*
Y2966142D01*
X11015354Y2552756D02*
X11054724D01*
X11035039Y2533071D02*
Y2572441D01*
X10915354Y2552756D02*
X10954724D01*
X10935039Y2533071D02*
Y2572441D01*
X10815354Y2552756D02*
X10854724D01*
X10835039Y2533071D02*
Y2572441D01*
X11015354Y2159055D02*
X11054724D01*
X11035039Y2139370D02*
Y2178740D01*
X10915354Y2159055D02*
X10954724D01*
X10935039Y2139370D02*
Y2178740D01*
X10815354Y2159055D02*
X10854724D01*
X10835039Y2139370D02*
Y2178740D01*
X11015354Y1765354D02*
X11054724D01*
X11035039Y1745669D02*
Y1785039D01*
X10915354Y1765354D02*
X10954724D01*
X10935039Y1745669D02*
Y1785039D01*
X10815354Y1765354D02*
X10854724D01*
X10835039Y1745669D02*
Y1785039D01*
X11015354Y1371653D02*
X11054724D01*
X11035039Y1351968D02*
Y1391339D01*
X10915354Y1371653D02*
X10954724D01*
X10935039Y1351968D02*
Y1391339D01*
X10815354Y1371653D02*
X10854724D01*
X10835039Y1351968D02*
Y1391339D01*
X9432283Y2946456D02*
X9471654D01*
X9451969Y2926771D02*
Y2966142D01*
X9332283Y2946456D02*
X9371654D01*
X9351969Y2926771D02*
Y2966142D01*
X9232283Y2946456D02*
X9271654D01*
X9251969Y2926771D02*
Y2966142D01*
X9432283Y2552756D02*
X9471654D01*
X9451969Y2533071D02*
Y2572441D01*
X9332283Y2552756D02*
X9371654D01*
X9351969Y2533071D02*
Y2572441D01*
X9232283Y2552756D02*
X9271654D01*
X9251969Y2533071D02*
Y2572441D01*
X9435433Y2159055D02*
X9474803D01*
X9455118Y2139370D02*
Y2178740D01*
X9335433Y2159055D02*
X9374803D01*
X9355118Y2139370D02*
Y2178740D01*
X9235433Y2159055D02*
X9274803D01*
X9255118Y2139370D02*
Y2178740D01*
X9432283Y1765354D02*
X9471654D01*
X9451969Y1745669D02*
Y1785039D01*
X9332283Y1765354D02*
X9371654D01*
X9351969Y1745669D02*
Y1785039D01*
X9232283Y1765354D02*
X9271654D01*
X9251969Y1745669D02*
Y1785039D01*
X9432283Y1371653D02*
X9471654D01*
X9451969Y1351968D02*
Y1391339D01*
X9332283Y1371653D02*
X9371654D01*
X9351969Y1351968D02*
Y1391339D01*
X9232283Y1371653D02*
X9271654D01*
X9251969Y1351968D02*
Y1391339D01*
X8644882Y2946456D02*
X8684252D01*
X8664567Y2926771D02*
Y2966142D01*
X8544882Y2946456D02*
X8584252D01*
X8564567Y2926771D02*
Y2966142D01*
X8444882Y2946456D02*
X8484252D01*
X8464567Y2926771D02*
Y2966142D01*
X767717Y2252363D02*
X807087D01*
X787402Y2232678D02*
Y2272048D01*
X767717Y2152363D02*
X807087D01*
X787402Y2132678D02*
Y2172048D01*
X767717Y2052363D02*
X807087D01*
X787402Y2032678D02*
Y2072048D01*
X3072441Y2933071D02*
X3111811D01*
X3092126Y2913386D02*
Y2952756D01*
X2972441Y2933071D02*
X3011811D01*
X2992126Y2913386D02*
Y2952756D01*
X2872441Y2933071D02*
X2911811D01*
X2892126Y2913386D02*
Y2952756D01*
X3072441Y2536220D02*
X3111811D01*
X3092126Y2516535D02*
Y2555905D01*
X2972441Y2536220D02*
X3011811D01*
X2992126Y2516535D02*
Y2555905D01*
X2872441Y2536220D02*
X2911811D01*
X2892126Y2516535D02*
Y2555905D01*
X3072441Y2132677D02*
X3111811D01*
X3092126Y2112992D02*
Y2152363D01*
X2972441Y2132677D02*
X3011811D01*
X2992126Y2112992D02*
Y2152363D01*
X2872441Y2132677D02*
X2911811D01*
X2892126Y2112992D02*
Y2152363D01*
X3072441Y1748819D02*
X3111811D01*
X3092126Y1729134D02*
Y1768504D01*
X2972441Y1748819D02*
X3011811D01*
X2992126Y1729134D02*
Y1768504D01*
X2872441Y1748819D02*
X2911811D01*
X2892126Y1729134D02*
Y1768504D01*
X3072441Y1355118D02*
X3111811D01*
X3092126Y1335433D02*
Y1374803D01*
X2972441Y1355118D02*
X3011811D01*
X2992126Y1335433D02*
Y1374803D01*
X2872441Y1355118D02*
X2911811D01*
X2892126Y1335433D02*
Y1374803D01*
X2285039Y2933071D02*
X2324409D01*
X2304724Y2913386D02*
Y2952756D01*
X2185039Y2933071D02*
X2224409D01*
X2204724Y2913386D02*
Y2952756D01*
X2085039Y2933071D02*
X2124409D01*
X2104724Y2913386D02*
Y2952756D01*
X2285039Y2536220D02*
X2324409D01*
X2304724Y2516535D02*
Y2555905D01*
X2185039Y2536220D02*
X2224409D01*
X2204724Y2516535D02*
Y2555905D01*
X2085039Y2536220D02*
X2124409D01*
X2104724Y2516535D02*
Y2555905D01*
X2285039Y2132677D02*
X2324409D01*
X2304724Y2112992D02*
Y2152363D01*
X2185039Y2132677D02*
X2224409D01*
X2204724Y2112992D02*
Y2152363D01*
X2085039Y2132677D02*
X2124409D01*
X2104724Y2112992D02*
Y2152363D01*
X2293784Y1748819D02*
X2333154D01*
X2313469Y1729134D02*
Y1768504D01*
X2193784Y1748819D02*
X2233154D01*
X2213469Y1729134D02*
Y1768504D01*
X2093784Y1748819D02*
X2133154D01*
X2113469Y1729134D02*
Y1768504D01*
X2285039Y1355118D02*
X2324409D01*
X2304724Y1335433D02*
Y1374803D01*
X2185039Y1355118D02*
X2224409D01*
X2204724Y1335433D02*
Y1374803D01*
X2085039Y1355118D02*
X2124409D01*
X2104724Y1335433D02*
Y1374803D01*
X11472835Y6664567D02*
X11624803D01*
X11548819Y6588583D02*
Y6740551D01*
X11232283Y6990551D02*
X11287401D01*
X11259843Y6962992D02*
Y7018110D01*
X11232283Y6827559D02*
X11287401D01*
X11259843Y6800000D02*
Y6855118D01*
X11232283Y6664567D02*
X11287401D01*
X11259843Y6637008D02*
Y6692126D01*
X11232283Y6501575D02*
X11287401D01*
X11259843Y6474016D02*
Y6529134D01*
X11232283Y6338583D02*
X11287401D01*
X11259843Y6311024D02*
Y6366142D01*
X11069291Y6338583D02*
X11124409D01*
X11096850Y6311024D02*
Y6366142D01*
X11069291Y6990551D02*
X11124409D01*
X11096850Y6962992D02*
Y7018110D01*
X11069291Y6827559D02*
X11124409D01*
X11096850Y6800000D02*
Y6855118D01*
X11069291Y6664567D02*
X11124409D01*
X11096850Y6637008D02*
Y6692126D01*
X11069291Y6501575D02*
X11124409D01*
X11096850Y6474016D02*
Y6529134D01*
X4105907Y585039D02*
X4176773D01*
X4141340Y549606D02*
Y620472D01*
X3942915Y585039D02*
X4013781D01*
X3978348Y549606D02*
Y620472D01*
X3290946Y585039D02*
X3361812D01*
X3326379Y549606D02*
Y620472D01*
X3453938Y585039D02*
X3524804D01*
X3489371Y549606D02*
Y620472D01*
X3779923Y585039D02*
X3850789D01*
X3815356Y549606D02*
Y620472D01*
X3616930Y585039D02*
X3687796D01*
X3652363Y549606D02*
Y620472D01*
X2964962Y585039D02*
X3035828D01*
X3000395Y549606D02*
Y620472D01*
X3127954Y585039D02*
X3198820D01*
X3163387Y549606D02*
Y620472D01*
X2801970Y585039D02*
X2872836D01*
X2837403Y549606D02*
Y620472D01*
X2638978Y585039D02*
X2709844D01*
X2674411Y549606D02*
Y620472D01*
X2638978Y748032D02*
X2709844D01*
X2674411Y712598D02*
Y783465D01*
X2801970Y748032D02*
X2872836D01*
X2837403Y712598D02*
Y783465D01*
X3127954Y748032D02*
X3198820D01*
X3163387Y712598D02*
Y783465D01*
X2964962Y748032D02*
X3035828D01*
X3000395Y712598D02*
Y783465D01*
X3616930Y748032D02*
X3687796D01*
X3652363Y712598D02*
Y783465D01*
X3779923Y748032D02*
X3850789D01*
X3815356Y712598D02*
Y783465D01*
X3453938Y748032D02*
X3524804D01*
X3489371Y712598D02*
Y783465D01*
X3290946Y748032D02*
X3361812D01*
X3326379Y712598D02*
Y783465D01*
X3942915Y748032D02*
X4013781D01*
X3978348Y712598D02*
Y783465D01*
X2924411Y296063D02*
X3076379D01*
X3000395Y220079D02*
Y372047D01*
X3739371Y296063D02*
X3891340D01*
X3815356Y220079D02*
Y372047D01*
X4105907Y748032D02*
X4176773D01*
X4141340Y712598D02*
Y783465D01*
X1187402Y730693D02*
X1242520D01*
X1214961Y703134D02*
Y758252D01*
X1350394Y730693D02*
X1405512D01*
X1377953Y703134D02*
Y758252D01*
X1350394Y567701D02*
X1405512D01*
X1377953Y540141D02*
Y595260D01*
X1187402Y567701D02*
X1242520D01*
X1214961Y540141D02*
Y595260D01*
X1222441Y278724D02*
X1374409D01*
X1298425Y202740D02*
Y354708D01*
X2800670Y7629921D02*
X2840670D01*
X2820670Y7609921D02*
Y7649921D01*
X3200670Y7729921D02*
X3240670D01*
X3220670Y7709921D02*
Y7749921D01*
X3200670Y7629921D02*
X3240670D01*
X3220670Y7609921D02*
Y7649921D01*
X3100670Y7729921D02*
X3140670D01*
X3120670Y7709921D02*
Y7749921D01*
X3100670Y7629921D02*
X3140670D01*
X3120670Y7609921D02*
Y7649921D01*
X3000670Y7729921D02*
X3040670D01*
X3020670Y7709921D02*
Y7749921D01*
X3000670Y7629921D02*
X3040670D01*
X3020670Y7609921D02*
Y7649921D01*
X2900670Y7729921D02*
X2940670D01*
X2920670Y7709921D02*
Y7749921D01*
X2900670Y7629921D02*
X2940670D01*
X2920670Y7609921D02*
Y7649921D01*
X2800670Y7729921D02*
X2840670D01*
X2820670Y7709921D02*
Y7749921D01*
X2500669Y7729921D02*
X2540669D01*
X2520669Y7709921D02*
Y7749921D01*
X2400669Y7729921D02*
X2440669D01*
X2420669Y7709921D02*
Y7749921D01*
X2400669Y7629922D02*
X2440669D01*
X2420669Y7609922D02*
Y7649922D01*
X2500669Y7629921D02*
X2540669D01*
X2520669Y7609921D02*
Y7649921D01*
X2600670Y7629922D02*
X2640670D01*
X2620670Y7609922D02*
Y7649922D01*
X2300670Y7629921D02*
X2340670D01*
X2320670Y7609921D02*
Y7649921D01*
X2700669Y7729922D02*
X2740669D01*
X2720669Y7709922D02*
Y7749922D01*
X2700670Y7629922D02*
X2740670D01*
X2720670Y7609922D02*
Y7649922D01*
X2300670Y7729922D02*
X2340670D01*
X2320670Y7709922D02*
Y7749922D01*
X2600670Y7729922D02*
X2640670D01*
X2620670Y7709922D02*
Y7749922D01*
X10192014Y7421260D02*
X10232014D01*
X10212014Y7401260D02*
Y7441260D01*
X10192014Y7321260D02*
X10232014D01*
X10212014Y7301260D02*
Y7341260D01*
X9923314Y7421260D02*
X9963314D01*
X9943314Y7401260D02*
Y7441260D01*
X9923314Y7321260D02*
X9963314D01*
X9943314Y7301260D02*
Y7341260D01*
X9647723Y7421260D02*
X9687723D01*
X9667723Y7401260D02*
Y7441260D01*
X9647723Y7321260D02*
X9687723D01*
X9667723Y7301260D02*
Y7341260D01*
X9372132Y7421260D02*
X9412132D01*
X9392132Y7401260D02*
Y7441260D01*
X9372132Y7321260D02*
X9412132D01*
X9392132Y7301260D02*
Y7341260D01*
X295276Y393701D02*
X492126D01*
X393701Y295276D02*
Y492126D01*
X9879921Y5197835D02*
X9891732D01*
X9885827Y5191929D02*
Y5203740D01*
X9936024Y5240158D02*
X9947835D01*
X9941929Y5234252D02*
Y5246063D01*
X9962598Y5262096D02*
X9974409D01*
X9968504Y5256190D02*
Y5268001D01*
X3915354Y6345867D02*
X3927165D01*
X3921260Y6339961D02*
Y6351772D01*
X3653543Y6545276D02*
X3665354D01*
X3659449Y6539370D02*
Y6551181D01*
X5447835Y7215551D02*
X5459646D01*
X5453740Y7209646D02*
Y7221457D01*
X6470472Y4854409D02*
X6482283D01*
X6476378Y4848504D02*
Y4860315D01*
X6425197Y4806102D02*
X6437008D01*
X6431102Y4800197D02*
Y4812008D01*
X6368110Y4832677D02*
X6379921D01*
X6374016Y4826772D02*
Y4838583D01*
X6322992Y4885827D02*
X6334803D01*
X6328898Y4879921D02*
Y4891732D01*
X6262795Y4913386D02*
X6274606D01*
X6268701Y4907480D02*
Y4919291D01*
X6209646Y4937008D02*
X6221457D01*
X6215551Y4931102D02*
Y4942913D01*
X6356299Y4748032D02*
X6368110D01*
X6362205Y4742126D02*
Y4753937D01*
X4938976Y6531496D02*
X4950787D01*
X4944882Y6525591D02*
Y6537402D01*
X4559136Y6529831D02*
X4570947D01*
X4565041Y6523925D02*
Y6535736D01*
X4119337Y4849652D02*
X4131148D01*
X4125243Y4843747D02*
Y4855558D01*
X4531584Y5106299D02*
X4543395D01*
X4537490Y5100394D02*
Y5112205D01*
X4131623Y4675914D02*
X4143434D01*
X4137529Y4670009D02*
Y4681820D01*
X4163758Y4774606D02*
X4175569D01*
X4169664Y4768701D02*
Y4780512D01*
X4055880Y5155512D02*
X4067691D01*
X4061785Y5149606D02*
Y5161417D01*
X4253937Y4956693D02*
X4265748D01*
X4259842Y4950787D02*
Y4962598D01*
X4362592Y4913386D02*
X4374403D01*
X4368498Y4907480D02*
Y4919291D01*
X4675130Y5241142D02*
X4686941D01*
X4681035Y5235236D02*
Y5247047D01*
X4941990Y5327695D02*
X4953801D01*
X4947895Y5321790D02*
Y5333601D01*
X4500000Y5683149D02*
X4511811D01*
X4505905Y5677243D02*
Y5689054D01*
X9698622Y4920079D02*
X9710433D01*
X9704528Y4914173D02*
Y4925984D01*
X9673621Y4961221D02*
X9685432D01*
X9679527Y4955316D02*
Y4967127D01*
X9225394Y3505905D02*
X9237205D01*
X9231299Y3500000D02*
Y3511811D01*
X7614173Y3506299D02*
X7625984D01*
X7620079Y3500394D02*
Y3512205D01*
X6097441Y3507874D02*
X6109252D01*
X6103346Y3501968D02*
Y3513780D01*
X4411149Y3506621D02*
X4422960D01*
X4417054Y3500716D02*
Y3512527D01*
X10761220Y3506299D02*
X10773031D01*
X10767126Y3500394D02*
Y3512205D01*
X8628937Y5405610D02*
X8640748D01*
X8634843Y5399705D02*
Y5411516D01*
X3956693Y6139764D02*
X3968504D01*
X3962599Y6133858D02*
Y6145669D01*
X1769685Y6020374D02*
X1781496D01*
X1775591Y6014468D02*
Y6026279D01*
X7273622Y5019528D02*
X7285433D01*
X7279528Y5013622D02*
Y5025433D01*
X4650591Y5527512D02*
X4662402D01*
X4656496Y5521606D02*
Y5533417D01*
X7284449Y4811024D02*
X7296260D01*
X7290354Y4805118D02*
Y4816929D01*
X8920276Y5730315D02*
X8932087D01*
X8926181Y5724409D02*
Y5736221D01*
X6905512Y5724409D02*
X6917323D01*
X6911417Y5718504D02*
Y5730315D01*
X10206102Y6460236D02*
X10217913D01*
X10212008Y6454331D02*
Y6466142D01*
X7607165Y5099528D02*
X7618976D01*
X7613071Y5093622D02*
Y5105433D01*
X7643701Y5218504D02*
X7655512D01*
X7649606Y5212599D02*
Y5224409D01*
X7277480Y5435039D02*
X7289291D01*
X7283386Y5429134D02*
Y5440945D01*
X7275591Y5274882D02*
X7287402D01*
X7281496Y5268976D02*
Y5280787D01*
X8293307Y4773622D02*
X8305118D01*
X8299213Y4767717D02*
Y4779528D01*
X8481299Y5032480D02*
X8493110D01*
X8487205Y5026575D02*
Y5038386D01*
X8027559Y5080709D02*
X8039370D01*
X8033465Y5074803D02*
Y5086614D01*
X8277559Y5201772D02*
X8289370D01*
X8283465Y5195866D02*
Y5207677D01*
X5848425Y3303150D02*
X5860236D01*
X5854331Y3297244D02*
Y3309055D01*
X5895866Y3346260D02*
X5907677D01*
X5901772Y3340354D02*
Y3352165D01*
X5395669Y3188976D02*
X5407480D01*
X5401575Y3183071D02*
Y3194882D01*
X6478346Y3200787D02*
X6490158D01*
X6484252Y3194882D02*
Y3206693D01*
X6522638Y3237205D02*
X6534449D01*
X6528543Y3231299D02*
Y3243110D01*
X6568898Y3271653D02*
X6580709D01*
X6574803Y3265748D02*
Y3277559D01*
X6616142Y3303150D02*
X6627953D01*
X6622047Y3297244D02*
Y3309055D01*
X6667323Y3338583D02*
X6679134D01*
X6673228Y3332677D02*
Y3344488D01*
X7399606Y3129921D02*
X7411417D01*
X7405512Y3124016D02*
Y3135827D01*
X7348425Y3129921D02*
X7360236D01*
X7354331Y3124016D02*
Y3135827D01*
X7293307Y3129921D02*
X7305118D01*
X7299213Y3124016D02*
Y3135827D01*
X5427165Y3559055D02*
X5438976D01*
X5433071Y3553150D02*
Y3564961D01*
X4283756Y6462307D02*
X4295567D01*
X4289661Y6456402D02*
Y6468213D01*
X3875984Y6527559D02*
X3887795D01*
X3881890Y6521654D02*
Y6533465D01*
X4106315Y6301165D02*
X4118126D01*
X4112220Y6295260D02*
Y6307071D01*
X4311149Y6207677D02*
X4322960D01*
X4317054Y6201772D02*
Y6213583D01*
X4478565Y6165354D02*
X4490376D01*
X4484471Y6159449D02*
Y6171260D01*
X4360738Y5881249D02*
X4372549D01*
X4366643Y5875343D02*
Y5887154D01*
X4435261Y5980315D02*
X4447072D01*
X4441167Y5974409D02*
Y5986221D01*
X4053150Y5822835D02*
X4064961D01*
X4059055Y5816929D02*
Y5828740D01*
X4199457Y5688976D02*
X4211267D01*
X4205362Y5683071D02*
Y5694882D01*
X4023430Y5586614D02*
X4035241D01*
X4029336Y5580709D02*
Y5592520D01*
X3911149Y5685039D02*
X3922960D01*
X3917054Y5679134D02*
Y5690945D01*
X3746558Y5401575D02*
X3758369D01*
X3752463Y5395669D02*
Y5407480D01*
X3085866Y5523071D02*
X3097677D01*
X3091772Y5517165D02*
Y5528976D01*
X3407728Y5430854D02*
X3419539D01*
X3413634Y5424949D02*
Y5436760D01*
X2840551Y5145669D02*
X2852362D01*
X2846457Y5139764D02*
Y5151575D01*
X3438976Y5145669D02*
X3450787D01*
X3444882Y5139764D02*
Y5151575D01*
X3491390Y5430366D02*
X3503201D01*
X3497295Y5424461D02*
Y5436272D01*
X8187008Y5137795D02*
X8198819D01*
X8192913Y5131890D02*
Y5143701D01*
X6828740Y4972441D02*
X6840551D01*
X6834646Y4966535D02*
Y4978346D01*
X6761811Y4964567D02*
X6773622D01*
X6767717Y4958661D02*
Y4970472D01*
X6946837Y4984242D02*
X6958648D01*
X6952742Y4978337D02*
Y4990148D01*
X6636968Y4886968D02*
X6648779D01*
X6642874Y4881063D02*
Y4892874D01*
X6588583Y4921260D02*
X6600394D01*
X6594488Y4915354D02*
Y4927165D01*
X9464567Y4429134D02*
X9476378D01*
X9470472Y4423228D02*
Y4435039D01*
X9464567Y4685039D02*
X9476378D01*
X9470472Y4679134D02*
Y4690945D01*
X7789370Y4887953D02*
X7801181D01*
X7795276Y4882047D02*
Y4893858D01*
X7852362Y4846457D02*
X7864173D01*
X7858268Y4840551D02*
Y4852362D01*
X6320866Y4724409D02*
X6332677D01*
X6326772Y4718504D02*
Y4730315D01*
X1303937Y3897638D02*
X1315748D01*
X1309842Y3891732D02*
Y3903543D01*
X1303937Y2015748D02*
X1315748D01*
X1309843Y2009843D02*
Y2021654D01*
X1385932Y2142021D02*
X1397743D01*
X1391838Y2136115D02*
Y2147926D01*
X1541339Y4003937D02*
X1553150D01*
X1547244Y3998032D02*
Y4009843D01*
X1386220Y4014173D02*
X1398032D01*
X1392126Y4008268D02*
Y4020079D01*
X1541339Y4052173D02*
X1553150D01*
X1547244Y4046268D02*
Y4058079D01*
X4643701Y5400748D02*
X4655512D01*
X4649606Y5394843D02*
Y5406654D01*
X4643701Y5370079D02*
X4655512D01*
X4649606Y5364173D02*
Y5375984D01*
X4299313Y4811024D02*
X4311124D01*
X4305219Y4805118D02*
Y4816929D01*
X4279140Y4905512D02*
X4290951D01*
X4285046Y4899606D02*
Y4911417D01*
X3100394Y5035388D02*
X3112205D01*
X3106299Y5029482D02*
Y5041293D01*
X3894337Y5300197D02*
X3906148D01*
X3900243Y5294291D02*
Y5306102D01*
X3990157Y5275591D02*
X4001968D01*
X3996063Y5269685D02*
Y5281496D01*
X3157481Y5035433D02*
X3169293D01*
X3163387Y5029528D02*
Y5041339D01*
X3946850Y5297032D02*
X3958661D01*
X3952756Y5291127D02*
Y5302938D01*
X4498032Y4724409D02*
X4509842D01*
X4503937Y4718504D02*
Y4730315D01*
X4529528Y4755905D02*
X4541339D01*
X4535433Y4750000D02*
Y4761811D01*
X4519685Y4819882D02*
X4531496D01*
X4525591Y4813976D02*
Y4825787D01*
X4499134Y4799213D02*
X4510945D01*
X4505039Y4793307D02*
Y4805118D01*
X4540576Y4840787D02*
X4552387D01*
X4546482Y4834882D02*
Y4846693D01*
X4562992Y4861221D02*
X4574803D01*
X4568898Y4855315D02*
Y4867126D01*
X4583661Y4881890D02*
X4595472D01*
X4589567Y4875984D02*
Y4887795D01*
X4477221Y4688976D02*
X4489032D01*
X4483126Y4683071D02*
Y4694882D01*
X3942913Y6210630D02*
X3954724D01*
X3948819Y6204724D02*
Y6216535D01*
X3979284Y5547244D02*
X3991095D01*
X3985189Y5541339D02*
Y5553150D01*
X4171260Y5047244D02*
X4183071D01*
X4177165Y5041339D02*
Y5053150D01*
X5116142Y6744094D02*
X5127953D01*
X5122047Y6738189D02*
Y6750000D01*
X4709553Y6437008D02*
X4721364D01*
X4715458Y6431102D02*
Y6442913D01*
X4789370Y6468504D02*
X4801181D01*
X4795276Y6462598D02*
Y6474409D01*
X4486221Y5736221D02*
X4498032D01*
X4492126Y5730315D02*
Y5742126D01*
X4624016Y5933071D02*
X4635827D01*
X4629921Y5927165D02*
Y5938976D01*
X4572835Y5862205D02*
X4584646D01*
X4578740Y5856299D02*
Y5868110D01*
X4257874Y5830709D02*
X4269685D01*
X4263779Y5824803D02*
Y5836614D01*
X4517717Y6637795D02*
X4529528D01*
X4523622Y6631890D02*
Y6643701D01*
X4048228Y6146432D02*
X4060039D01*
X4054134Y6140526D02*
Y6152337D01*
X3990157Y6204503D02*
X4001968D01*
X3996063Y6198597D02*
Y6210408D01*
X4106315Y6598425D02*
X4118126D01*
X4112220Y6592520D02*
Y6604331D01*
X4206693Y6460630D02*
X4218504D01*
X4212598Y6454724D02*
Y6466535D01*
X4265748Y5775591D02*
X4277559D01*
X4271654Y5769685D02*
Y5781496D01*
X4478565Y4778762D02*
X4490376D01*
X4484471Y4772857D02*
Y4784668D01*
X4478346Y4778543D02*
X4490158D01*
X4484252Y4772638D02*
Y4784449D01*
X4411149Y3877684D02*
X4422960D01*
X4417054Y3871779D02*
Y3883590D01*
X3125984Y4533465D02*
X3137795D01*
X3131890Y4527559D02*
Y4539370D01*
X9503654Y5621346D02*
X9515465D01*
X9509559Y5615441D02*
Y5627252D01*
X9647244Y5181496D02*
X9659055D01*
X9653149Y5175591D02*
Y5187402D01*
X9502953Y4847441D02*
X9514764D01*
X9508858Y4841535D02*
Y4853346D01*
X9673984Y4345701D02*
X9685795D01*
X9679890Y4339795D02*
Y4351606D01*
X9673621Y5495670D02*
X9685432D01*
X9679527Y5489764D02*
Y5501575D01*
X9698622Y5535630D02*
X9710433D01*
X9704528Y5529725D02*
Y5541535D01*
X10058858Y5299016D02*
X10070669D01*
X10064764Y5293110D02*
Y5304921D01*
X9908465Y5218504D02*
X9920276D01*
X9914370Y5212598D02*
Y5224409D01*
X9907480Y4417323D02*
X9919291D01*
X9913386Y4411417D02*
Y4423228D01*
X9932087Y4442913D02*
X9943898D01*
X9937992Y4437008D02*
Y4448819D01*
X9990157Y4500984D02*
X10001969D01*
X9996063Y4495079D02*
Y4506890D01*
X9958661Y4470472D02*
X9970472D01*
X9964567Y4464567D02*
Y4476378D01*
X10390748Y5146654D02*
X10402559D01*
X10396654Y5140748D02*
Y5152559D01*
X10398622Y4322835D02*
X10410433D01*
X10404528Y4316929D02*
Y4328740D01*
X10068701Y4495276D02*
X10080512D01*
X10074606Y4489370D02*
Y4501181D01*
X9389764Y7687992D02*
X9401575D01*
X9395669Y7682087D02*
Y7693898D01*
X9662402Y7692913D02*
X9674213D01*
X9668307Y7687008D02*
Y7698819D01*
X9937408Y7696266D02*
X9949219D01*
X9943314Y7690361D02*
Y7702172D01*
X10207677Y7698819D02*
X10219488D01*
X10213583Y7692913D02*
Y7704724D01*
X10478346Y7697835D02*
X10490157D01*
X10484252Y7691929D02*
Y7703740D01*
X8975394Y3345472D02*
X8987205D01*
X8981299Y3339567D02*
Y3351378D01*
X9780512Y3357284D02*
X9792323D01*
X9786417Y3351378D02*
Y3363189D01*
X9696850Y3297244D02*
X9708661D01*
X9702756Y3291339D02*
Y3303150D01*
X9742126Y3327756D02*
X9753937D01*
X9748031Y3321851D02*
Y3333662D01*
X9840551Y2869095D02*
X9852362D01*
X9846457Y2863189D02*
Y2875000D01*
X9871063Y2876968D02*
X9882874D01*
X9876969Y2871063D02*
Y2882874D01*
X10086614Y2854331D02*
X10098425D01*
X10092520Y2848425D02*
Y2860236D01*
X9605315Y3237205D02*
X9617126D01*
X9611220Y3231299D02*
Y3243110D01*
X9651575Y3268701D02*
X9663386D01*
X9657480Y3262795D02*
Y3274606D01*
X10511220Y3339173D02*
X10523031D01*
X10517126Y3333268D02*
Y3345079D01*
X10561220Y3339370D02*
X10573031D01*
X10567126Y3333465D02*
Y3345276D01*
X10611220Y3339567D02*
X10623031D01*
X10617126Y3333662D02*
Y3345472D01*
X10661220Y3340354D02*
X10673031D01*
X10667126Y3334449D02*
Y3346260D01*
X10711220Y3339961D02*
X10723031D01*
X10717126Y3334055D02*
Y3345866D01*
X4447835Y4448819D02*
X4459646D01*
X4453740Y4442913D02*
Y4454724D01*
X4012991Y4904767D02*
X4024802D01*
X4018897Y4898861D02*
Y4910672D01*
X3990157Y4886968D02*
X4001968D01*
X3996063Y4881063D02*
Y4892874D01*
X3990157Y4649606D02*
X4001968D01*
X3996063Y4643701D02*
Y4655512D01*
X4990491Y5437659D02*
X5002302D01*
X4996396Y5431753D02*
Y5443564D01*
X4950479Y5478346D02*
X4962290D01*
X4956385Y5472441D02*
Y5484252D01*
X4314459Y5852362D02*
X4326270D01*
X4320365Y5846457D02*
Y5858268D01*
X1490157Y6210630D02*
X1501968D01*
X1496063Y6204724D02*
Y6216535D01*
X1489173Y6261811D02*
X1500984D01*
X1495079Y6255905D02*
Y6267717D01*
X1488780Y6310630D02*
X1500591D01*
X1494685Y6304724D02*
Y6316535D01*
X1485630Y6360630D02*
X1497441D01*
X1491535Y6354724D02*
Y6366535D01*
X1485236Y6410433D02*
X1497047D01*
X1491142Y6404528D02*
Y6416339D01*
X1484252Y6460630D02*
X1496063D01*
X1490158Y6454724D02*
Y6466535D01*
X1483268Y6510827D02*
X1495079D01*
X1489173Y6504921D02*
Y6516732D01*
X1483268Y6560039D02*
X1495079D01*
X1489173Y6554134D02*
Y6565945D01*
X1484252Y6657480D02*
X1496063D01*
X1490158Y6651575D02*
Y6663386D01*
X1483661Y6610630D02*
X1495472D01*
X1489567Y6604724D02*
Y6616535D01*
X4687008Y5860423D02*
X4698819D01*
X4692913Y5854518D02*
Y5866329D01*
X5010827Y5690945D02*
X5022638D01*
X5016732Y5685039D02*
Y5696850D01*
X5163386Y5154528D02*
X5175197D01*
X5169291Y5148622D02*
Y5160433D01*
X4966535Y4950787D02*
X4978346D01*
X4972441Y4944882D02*
Y4956693D01*
%TF.MD5,56e26134fbcf87f0cfe63c7d0dff36f2*%
M02*
