%TF.GenerationSoftware,Altium Limited,Altium Designer,18.0.11 (651)*%
G04 Layer_Color=128*
%FSLAX26Y26*%
%MOIN*%
%TF.FileFunction,Paste,Bot*%
%TF.Part,Single*%
G01*
G75*
%TA.AperFunction,SMDPad,CuDef*%
%ADD14R,0.040000X0.050000*%
D14*
X2960472Y1906299D02*
D03*
X3040472D02*
D03*
X2960471Y1512598D02*
D03*
X3040471D02*
D03*
X2173070D02*
D03*
X2253070D02*
D03*
X2180944Y1906299D02*
D03*
X2260944D02*
D03*
X2180944Y2292126D02*
D03*
X2260944D02*
D03*
X2960472D02*
D03*
X3040472D02*
D03*
X2960472Y2693701D02*
D03*
X3040472D02*
D03*
X2960472Y3095276D02*
D03*
X3040472D02*
D03*
X2180944Y3087401D02*
D03*
X2260944D02*
D03*
X2180944Y2693701D02*
D03*
X2260944D02*
D03*
X4507874Y2698032D02*
D03*
X4587874D02*
D03*
X4510709Y2291338D02*
D03*
X4590709D02*
D03*
X4507874Y1516929D02*
D03*
X4587874D02*
D03*
X4507874Y1910630D02*
D03*
X4587874D02*
D03*
X3729213Y1512992D02*
D03*
X3809213D02*
D03*
X3729213Y1910630D02*
D03*
X3809213D02*
D03*
X3729213Y2292520D02*
D03*
X3809213D02*
D03*
X3729213Y2696032D02*
D03*
X3809213D02*
D03*
X3729213Y3095669D02*
D03*
X3809213D02*
D03*
X4507874D02*
D03*
X4587874D02*
D03*
X10177165Y3129921D02*
D03*
X10097165D02*
D03*
X10178425Y2736220D02*
D03*
X10098425D02*
D03*
X6241417Y1948819D02*
D03*
X6161417D02*
D03*
X6241417Y1555118D02*
D03*
X6161417D02*
D03*
X7027559Y3129921D02*
D03*
X6947559D02*
D03*
X7021654Y2746063D02*
D03*
X6941654D02*
D03*
X10984252Y1555118D02*
D03*
X10904252D02*
D03*
X9392132Y3129921D02*
D03*
X9312132D02*
D03*
X9392132Y2736220D02*
D03*
X9312132D02*
D03*
X10984252Y3129921D02*
D03*
X10904252D02*
D03*
X7816221Y1555118D02*
D03*
X7736221D02*
D03*
X8602362Y2736220D02*
D03*
X8522362D02*
D03*
X10985512D02*
D03*
X10905512D02*
D03*
X6241417Y3129921D02*
D03*
X6161417D02*
D03*
X8602362Y2342520D02*
D03*
X8522362D02*
D03*
X10984252D02*
D03*
X10904252D02*
D03*
X6241417Y2746063D02*
D03*
X6161417D02*
D03*
X8603622Y1948819D02*
D03*
X8523622D02*
D03*
X9392132Y1555118D02*
D03*
X9312132D02*
D03*
X8603622D02*
D03*
X8523622D02*
D03*
X10984252Y1948819D02*
D03*
X10904252D02*
D03*
X7028819Y2342520D02*
D03*
X6948819D02*
D03*
X6241417D02*
D03*
X6161417D02*
D03*
X7028819Y1948819D02*
D03*
X6948819D02*
D03*
X7027559Y1555118D02*
D03*
X6947559D02*
D03*
X5473701Y3129921D02*
D03*
X5393701D02*
D03*
X10178425Y2342520D02*
D03*
X10098425D02*
D03*
X5472441Y2746063D02*
D03*
X5392441D02*
D03*
X7816221Y3129921D02*
D03*
X7736221D02*
D03*
X10177165Y1958661D02*
D03*
X10097165D02*
D03*
X5473701Y2352362D02*
D03*
X5393701D02*
D03*
X10178425Y1555118D02*
D03*
X10098425D02*
D03*
X5472441Y1948819D02*
D03*
X5392441D02*
D03*
X7816221Y2342520D02*
D03*
X7736221D02*
D03*
X8603622Y3129921D02*
D03*
X8523622D02*
D03*
X5472441Y1555118D02*
D03*
X5392441D02*
D03*
X7816221Y1948819D02*
D03*
X7736221D02*
D03*
X9391024D02*
D03*
X9311024D02*
D03*
X7816221Y2746063D02*
D03*
X7736221D02*
D03*
X9391024Y2342520D02*
D03*
X9311024D02*
D03*
%TF.MD5,e3867dd3fa4c005a804511c645e41478*%
M02*
