%TF.GenerationSoftware,Altium Limited,Altium Designer,18.0.11 (651)*%
G04 Layer_Color=255*
%FSLAX26Y26*%
%MOIN*%
%TF.FileFunction,Pads,Top*%
%TF.Part,Single*%
G01*
G75*
%TA.AperFunction,SMDPad,CuDef*%
%ADD10O,0.055118X0.011811*%
%ADD11O,0.023622X0.074803*%
%ADD12R,0.050000X0.040000*%
%ADD13R,0.050000X0.020000*%
%ADD14R,0.040000X0.050000*%
G04:AMPARAMS|DCode=15|XSize=40mil|YSize=50mil|CornerRadius=0mil|HoleSize=0mil|Usage=FLASHONLY|Rotation=45.000|XOffset=0mil|YOffset=0mil|HoleType=Round|Shape=Rectangle|*
%AMROTATEDRECTD15*
4,1,4,0.003535,-0.031820,-0.031820,0.003535,-0.003535,0.031820,0.031820,-0.003535,0.003535,-0.031820,0.0*
%
%ADD15ROTATEDRECTD15*%

%ADD16R,0.102362X0.137795*%
%ADD17R,0.060000X0.060000*%
%ADD18R,0.060000X0.060000*%
%ADD19R,0.212598X0.114173*%
%ADD20R,0.059055X0.140000*%
%ADD21O,0.059055X0.140000*%
%ADD22R,0.059055X0.106299*%
%ADD23R,0.039370X0.070866*%
%ADD24O,0.074803X0.023622*%
%ADD25O,0.023622X0.057087*%
%ADD26R,0.039370X0.059055*%
%ADD27R,0.047244X0.078740*%
G04:AMPARAMS|DCode=28|XSize=40mil|YSize=50mil|CornerRadius=0mil|HoleSize=0mil|Usage=FLASHONLY|Rotation=315.000|XOffset=0mil|YOffset=0mil|HoleType=Round|Shape=Rectangle|*
%AMROTATEDRECTD28*
4,1,4,-0.031820,-0.003535,0.003535,0.031820,0.031820,0.003535,-0.003535,-0.031820,-0.031820,-0.003535,0.0*
%
%ADD28ROTATEDRECTD28*%

%ADD29O,0.012000X0.050000*%
%ADD30R,0.012000X0.050000*%
G04:AMPARAMS|DCode=31|XSize=11.811mil|YSize=57.087mil|CornerRadius=0mil|HoleSize=0mil|Usage=FLASHONLY|Rotation=45.000|XOffset=0mil|YOffset=0mil|HoleType=Round|Shape=Round|*
%AMOVALD31*
21,1,0.045276,0.011811,0.000000,0.000000,135.0*
1,1,0.011811,0.016007,-0.016007*
1,1,0.011811,-0.016007,0.016007*
%
%ADD31OVALD31*%

G04:AMPARAMS|DCode=32|XSize=11.811mil|YSize=57.087mil|CornerRadius=0mil|HoleSize=0mil|Usage=FLASHONLY|Rotation=135.000|XOffset=0mil|YOffset=0mil|HoleType=Round|Shape=Round|*
%AMOVALD32*
21,1,0.045276,0.011811,0.000000,0.000000,225.0*
1,1,0.011811,0.016007,0.016007*
1,1,0.011811,-0.016007,-0.016007*
%
%ADD32OVALD32*%

%TA.AperFunction,ComponentPad*%
%ADD50C,0.062000*%
%ADD51R,0.062000X0.062000*%
%ADD52R,0.078740X0.078740*%
%ADD53C,0.078740*%
%ADD54R,0.062992X0.062992*%
%ADD55C,0.062992*%
%ADD56C,0.060000*%
%TA.AperFunction,ViaPad*%
%ADD57C,0.060000*%
%TA.AperFunction,ComponentPad*%
%ADD58C,0.070000*%
%ADD59R,0.070000X0.070000*%
%ADD60R,0.062992X0.062992*%
%ADD61C,0.064961*%
%ADD62C,0.065000*%
%TA.AperFunction,ViaPad*%
%ADD63C,0.157480*%
%ADD64C,0.354331*%
%TA.AperFunction,ComponentPad*%
%ADD65R,0.070000X0.070000*%
%ADD66C,0.086614*%
D10*
X8102362Y5041339D02*
D03*
Y5061024D02*
D03*
Y5080709D02*
D03*
Y5100394D02*
D03*
Y5120079D02*
D03*
Y5139764D02*
D03*
Y5159449D02*
D03*
Y5179134D02*
D03*
Y5198819D02*
D03*
Y5218504D02*
D03*
Y5238189D02*
D03*
Y5257874D02*
D03*
Y5277559D02*
D03*
Y5297244D02*
D03*
Y5316929D02*
D03*
Y5336614D02*
D03*
Y5356299D02*
D03*
Y5375984D02*
D03*
Y5395669D02*
D03*
Y5415354D02*
D03*
Y5435039D02*
D03*
Y5454724D02*
D03*
Y5474409D02*
D03*
Y5494095D02*
D03*
Y5513779D02*
D03*
Y5533465D02*
D03*
Y5553150D02*
D03*
Y5572835D02*
D03*
X7803150Y5041339D02*
D03*
Y5061024D02*
D03*
Y5080709D02*
D03*
Y5100394D02*
D03*
Y5120079D02*
D03*
Y5139764D02*
D03*
Y5159449D02*
D03*
Y5179134D02*
D03*
Y5198819D02*
D03*
Y5218504D02*
D03*
Y5238189D02*
D03*
Y5257874D02*
D03*
Y5277559D02*
D03*
Y5297244D02*
D03*
Y5316929D02*
D03*
Y5336614D02*
D03*
Y5356299D02*
D03*
Y5375984D02*
D03*
Y5395669D02*
D03*
Y5415354D02*
D03*
Y5435039D02*
D03*
Y5454724D02*
D03*
Y5474409D02*
D03*
Y5494095D02*
D03*
Y5513779D02*
D03*
Y5533465D02*
D03*
Y5553150D02*
D03*
Y5572835D02*
D03*
D11*
X6162795Y7184055D02*
D03*
X6112795D02*
D03*
X6062795D02*
D03*
X6012795D02*
D03*
X5962795D02*
D03*
X5912795D02*
D03*
X5862795D02*
D03*
X5812795D02*
D03*
X5762795D02*
D03*
X5712795D02*
D03*
X5662795D02*
D03*
X5612795D02*
D03*
X6162795Y6810039D02*
D03*
X6112795D02*
D03*
X6062795D02*
D03*
X6012795D02*
D03*
X5962795D02*
D03*
X5912795D02*
D03*
X5862795D02*
D03*
X5812795D02*
D03*
X5762795D02*
D03*
X5712795D02*
D03*
X5662795D02*
D03*
X5612795D02*
D03*
X7069882Y3415354D02*
D03*
X7119882D02*
D03*
X7169882D02*
D03*
X7219882D02*
D03*
X7269882D02*
D03*
X7319882D02*
D03*
X7369882D02*
D03*
X7419882D02*
D03*
X7469882D02*
D03*
X7519882D02*
D03*
X7569882D02*
D03*
X7619882D02*
D03*
X7069882Y3789370D02*
D03*
X7119882D02*
D03*
X7169882D02*
D03*
X7219882D02*
D03*
X7269882D02*
D03*
X7319882D02*
D03*
X7369882D02*
D03*
X7419882D02*
D03*
X7469882D02*
D03*
X7519882D02*
D03*
X7569882D02*
D03*
X7619882D02*
D03*
X5551772Y3415354D02*
D03*
X5601772D02*
D03*
X5651772D02*
D03*
X5701772D02*
D03*
X5751772D02*
D03*
X5801772D02*
D03*
X5851772D02*
D03*
X5901772D02*
D03*
X5951772D02*
D03*
X6001772D02*
D03*
X6051772D02*
D03*
X6101772D02*
D03*
X5551772Y3789370D02*
D03*
X5601772D02*
D03*
X5651772D02*
D03*
X5701772D02*
D03*
X5751772D02*
D03*
X5801772D02*
D03*
X5851772D02*
D03*
X5901772D02*
D03*
X5951772D02*
D03*
X6001772D02*
D03*
X6051772D02*
D03*
X6101772D02*
D03*
X10217126Y3415354D02*
D03*
X10267126D02*
D03*
X10317126D02*
D03*
X10367126D02*
D03*
X10417126D02*
D03*
X10467126D02*
D03*
X10517126D02*
D03*
X10567126D02*
D03*
X10617126D02*
D03*
X10667126D02*
D03*
X10717126D02*
D03*
X10767126D02*
D03*
X10217126Y3789370D02*
D03*
X10267126D02*
D03*
X10317126D02*
D03*
X10367126D02*
D03*
X10417126D02*
D03*
X10467126D02*
D03*
X10517126D02*
D03*
X10567126D02*
D03*
X10617126D02*
D03*
X10667126D02*
D03*
X10717126D02*
D03*
X10767126D02*
D03*
X8681693Y3415354D02*
D03*
X8731693D02*
D03*
X8781693D02*
D03*
X8831693D02*
D03*
X8881693D02*
D03*
X8931693D02*
D03*
X8981693D02*
D03*
X9031693D02*
D03*
X9081693D02*
D03*
X9131693D02*
D03*
X9181693D02*
D03*
X9231693D02*
D03*
X8681693Y3789370D02*
D03*
X8731693D02*
D03*
X8781693D02*
D03*
X8831693D02*
D03*
X8881693D02*
D03*
X8931693D02*
D03*
X8981693D02*
D03*
X9031693D02*
D03*
X9081693D02*
D03*
X9131693D02*
D03*
X9181693D02*
D03*
X9231693D02*
D03*
X3867054Y3415354D02*
D03*
X3917054D02*
D03*
X3967054D02*
D03*
X4017054D02*
D03*
X4067054D02*
D03*
X4117054D02*
D03*
X4167054D02*
D03*
X4217054D02*
D03*
X4267054D02*
D03*
X4317054D02*
D03*
X4367054D02*
D03*
X4417054D02*
D03*
X3867054Y3789370D02*
D03*
X3917054D02*
D03*
X3967054D02*
D03*
X4017054D02*
D03*
X4067054D02*
D03*
X4117054D02*
D03*
X4167054D02*
D03*
X4217054D02*
D03*
X4267054D02*
D03*
X4317054D02*
D03*
X4367054D02*
D03*
X4417054D02*
D03*
D12*
X5508858Y7195000D02*
D03*
Y7115000D02*
D03*
X1103150Y2102048D02*
D03*
Y2182048D02*
D03*
X1106020Y3974803D02*
D03*
Y4054803D02*
D03*
X5433071Y3730472D02*
D03*
Y3650472D02*
D03*
X10483077Y7536535D02*
D03*
Y7616535D02*
D03*
X9740158Y4425701D02*
D03*
Y4345701D02*
D03*
X9821851Y4425583D02*
D03*
Y4345583D02*
D03*
X1204445Y5285303D02*
D03*
Y5365303D02*
D03*
Y5450658D02*
D03*
Y5530658D02*
D03*
Y5615422D02*
D03*
Y5695422D02*
D03*
Y5780423D02*
D03*
Y5860423D02*
D03*
Y5945423D02*
D03*
Y6025423D02*
D03*
Y6111367D02*
D03*
Y6191367D02*
D03*
Y6275423D02*
D03*
Y6355423D02*
D03*
Y6440422D02*
D03*
Y6520422D02*
D03*
Y6606367D02*
D03*
Y6686367D02*
D03*
Y6774361D02*
D03*
Y6854361D02*
D03*
X4507738Y4369455D02*
D03*
Y4449455D02*
D03*
X4193762Y4370279D02*
D03*
Y4450279D02*
D03*
X7372047Y4886968D02*
D03*
Y4806968D02*
D03*
X7549213Y4887953D02*
D03*
Y4807953D02*
D03*
X5433071Y3495354D02*
D03*
Y3415354D02*
D03*
X3497295Y5354165D02*
D03*
Y5274165D02*
D03*
X3413634Y5273024D02*
D03*
Y5353024D02*
D03*
X8299213Y4916221D02*
D03*
Y4836221D02*
D03*
X7372047Y5194882D02*
D03*
Y5274882D02*
D03*
X8722568Y5406860D02*
D03*
Y5326860D02*
D03*
X8495154Y5153140D02*
D03*
Y5233140D02*
D03*
X10212014Y7536535D02*
D03*
Y7616535D02*
D03*
X9943314Y7538110D02*
D03*
Y7618110D02*
D03*
X9667723Y7538110D02*
D03*
Y7618110D02*
D03*
X9391540Y7536535D02*
D03*
Y7616535D02*
D03*
X4112220Y6527862D02*
D03*
Y6447862D02*
D03*
X9569882Y4767441D02*
D03*
Y4847441D02*
D03*
Y5541346D02*
D03*
Y5621346D02*
D03*
X7185039Y5274882D02*
D03*
Y5194882D02*
D03*
X4507739Y4192446D02*
D03*
Y4272446D02*
D03*
X4193762Y4193270D02*
D03*
Y4273270D02*
D03*
X7185039Y5104331D02*
D03*
Y5024331D02*
D03*
X7186024Y5367992D02*
D03*
Y5447992D02*
D03*
X6220472Y3415354D02*
D03*
Y3495354D02*
D03*
X7740158Y3414252D02*
D03*
Y3494252D02*
D03*
X9350394Y3404252D02*
D03*
Y3484252D02*
D03*
X10875984Y3414095D02*
D03*
Y3494095D02*
D03*
X4531424Y3402441D02*
D03*
Y3482441D02*
D03*
X8719488Y5153150D02*
D03*
Y5233150D02*
D03*
X8508760Y4836221D02*
D03*
Y4916221D02*
D03*
X8405512Y4836221D02*
D03*
Y4916221D02*
D03*
X7549213Y5235118D02*
D03*
Y5315118D02*
D03*
X7372047Y5099528D02*
D03*
Y5019528D02*
D03*
X7549213Y5099528D02*
D03*
Y5019528D02*
D03*
X8545357Y5406801D02*
D03*
Y5326801D02*
D03*
X8453822Y5325817D02*
D03*
Y5405817D02*
D03*
D13*
X1209843Y2105021D02*
D03*
X1309843Y2142021D02*
D03*
X1309843Y2180021D02*
D03*
Y2105021D02*
D03*
X1209843Y2180021D02*
D03*
X1209843Y3977173D02*
D03*
X1309843Y4014173D02*
D03*
X1309842Y4052173D02*
D03*
Y3977173D02*
D03*
X1209843Y4052173D02*
D03*
D14*
X3674095Y2291339D02*
D03*
X3754095D02*
D03*
X3679843Y1516929D02*
D03*
X3759843D02*
D03*
X4441902D02*
D03*
X4521902D02*
D03*
X4444213Y1910630D02*
D03*
X4524213D02*
D03*
X4448819Y2304134D02*
D03*
X4528819D02*
D03*
X4441902Y2698032D02*
D03*
X4521902D02*
D03*
X4448819Y3091732D02*
D03*
X4528819D02*
D03*
X3661417Y2698032D02*
D03*
X3741417D02*
D03*
X3673228Y3095669D02*
D03*
X3753228D02*
D03*
X2892835Y1511811D02*
D03*
X2812835D02*
D03*
X2892991Y1906299D02*
D03*
X2812991D02*
D03*
X2891535Y2300000D02*
D03*
X2811535D02*
D03*
X2892991Y2693701D02*
D03*
X2812991D02*
D03*
X2892991Y3107087D02*
D03*
X2812991D02*
D03*
X2105590Y1532283D02*
D03*
X2025590D02*
D03*
X2105590Y1906299D02*
D03*
X2025590D02*
D03*
X2105590Y2300000D02*
D03*
X2025590D02*
D03*
X2105590Y2693701D02*
D03*
X2025590D02*
D03*
X2104330Y3087401D02*
D03*
X2024330D02*
D03*
X3765039Y1909449D02*
D03*
X3685039D02*
D03*
X3121772Y5558071D02*
D03*
X3201772D02*
D03*
X9789528Y5181496D02*
D03*
X9709528D02*
D03*
X3065530Y5037338D02*
D03*
X2985530D02*
D03*
X3221593Y5037337D02*
D03*
X3301593D02*
D03*
X8415512Y5115158D02*
D03*
X8335512D02*
D03*
X8415512Y5032480D02*
D03*
X8335512D02*
D03*
X4209661Y6527862D02*
D03*
X4289661D02*
D03*
X4704740Y6529831D02*
D03*
X4624740D02*
D03*
X4800212D02*
D03*
X4880212D02*
D03*
X4024780Y6527862D02*
D03*
X3944780D02*
D03*
X10540472Y5146654D02*
D03*
X10460472D02*
D03*
X10540354Y4322835D02*
D03*
X10460354D02*
D03*
X1973425Y5962598D02*
D03*
X1893425D02*
D03*
X2986634Y5145606D02*
D03*
X2906634D02*
D03*
X3300491Y5145605D02*
D03*
X3380491D02*
D03*
X4305848Y4419652D02*
D03*
X4385848D02*
D03*
X4385945Y4511811D02*
D03*
X4305945D02*
D03*
X1578622Y6070866D02*
D03*
X1658622D02*
D03*
X8335512Y5197835D02*
D03*
X8415512D02*
D03*
X4876850Y5690945D02*
D03*
X4956850D02*
D03*
X8753819Y4989173D02*
D03*
X8833819D02*
D03*
X7297047Y5386811D02*
D03*
X7377047D02*
D03*
X8753819Y5071850D02*
D03*
X8833819D02*
D03*
X8647756Y5158465D02*
D03*
X8567756D02*
D03*
X8921260Y5635827D02*
D03*
X8841260D02*
D03*
X6919173Y5652559D02*
D03*
X6999173D02*
D03*
X4505039Y6529528D02*
D03*
X4425039D02*
D03*
D15*
X3724228Y4807890D02*
D03*
X3780797Y4864458D02*
D03*
X4135472Y4736239D02*
D03*
X4078903Y4679670D02*
D03*
X4076417Y4795294D02*
D03*
X4019848Y4738725D02*
D03*
X4213298Y6104046D02*
D03*
X4269866Y6160614D02*
D03*
D16*
X3047244Y4533465D02*
D03*
X1889764D02*
D03*
D17*
X8363346Y7014764D02*
D03*
X8228346D02*
D03*
X8924370D02*
D03*
X8789370D02*
D03*
X7535433Y7007874D02*
D03*
X7670433D02*
D03*
X6964409Y7006890D02*
D03*
X7099409D02*
D03*
D18*
X8346457Y5406346D02*
D03*
Y5541346D02*
D03*
Y5660369D02*
D03*
Y5795369D02*
D03*
X7559055Y5406346D02*
D03*
Y5541346D02*
D03*
Y5660370D02*
D03*
Y5795370D02*
D03*
D19*
X8228346Y6483268D02*
D03*
Y6875000D02*
D03*
X8799213Y6872047D02*
D03*
Y6480315D02*
D03*
X7664764Y6483268D02*
D03*
Y6875000D02*
D03*
X7098228Y6875000D02*
D03*
Y6483268D02*
D03*
D20*
X8932087Y7601614D02*
D03*
X8937008Y5463819D02*
D03*
X7279528Y7625236D02*
D03*
X6922244Y7348228D02*
D03*
X8578740Y7324724D02*
D03*
X6919291Y5512047D02*
D03*
D21*
X8932087Y7311614D02*
D03*
X8937008Y5173819D02*
D03*
X7279528Y7335236D02*
D03*
X6922244Y7638228D02*
D03*
X8578740Y7614724D02*
D03*
X6919291Y5222047D02*
D03*
D22*
X4386675Y4224770D02*
D03*
X4311872D02*
D03*
D23*
X3193326Y5145605D02*
D03*
X3094901D02*
D03*
D24*
X10153545Y4895276D02*
D03*
Y4845276D02*
D03*
Y4795276D02*
D03*
Y4745276D02*
D03*
Y4695276D02*
D03*
Y4645276D02*
D03*
Y4595276D02*
D03*
Y4545276D02*
D03*
Y4495276D02*
D03*
X10527560Y4895276D02*
D03*
Y4845276D02*
D03*
Y4795276D02*
D03*
Y4745276D02*
D03*
Y4695276D02*
D03*
Y4645276D02*
D03*
Y4595276D02*
D03*
Y4545276D02*
D03*
Y4495276D02*
D03*
X10153545Y5699016D02*
D03*
Y5649016D02*
D03*
Y5599016D02*
D03*
Y5549016D02*
D03*
Y5499016D02*
D03*
Y5449016D02*
D03*
Y5399016D02*
D03*
Y5349016D02*
D03*
Y5299016D02*
D03*
X10527561Y5699016D02*
D03*
Y5649016D02*
D03*
Y5599016D02*
D03*
Y5549016D02*
D03*
Y5499016D02*
D03*
Y5449016D02*
D03*
Y5399016D02*
D03*
Y5349016D02*
D03*
Y5299016D02*
D03*
X1958661Y5315551D02*
D03*
Y5365551D02*
D03*
Y5415551D02*
D03*
Y5465551D02*
D03*
Y5515551D02*
D03*
Y5565551D02*
D03*
Y5615551D02*
D03*
Y5665551D02*
D03*
Y5715551D02*
D03*
Y5765551D02*
D03*
Y5815551D02*
D03*
Y5865551D02*
D03*
X1584646Y5315551D02*
D03*
Y5365551D02*
D03*
Y5415551D02*
D03*
Y5465551D02*
D03*
Y5515551D02*
D03*
Y5565551D02*
D03*
Y5615551D02*
D03*
Y5665551D02*
D03*
Y5715551D02*
D03*
Y5765551D02*
D03*
Y5815551D02*
D03*
Y5865551D02*
D03*
X1594488Y6710630D02*
D03*
Y6660630D02*
D03*
Y6610630D02*
D03*
Y6560630D02*
D03*
Y6510630D02*
D03*
Y6460630D02*
D03*
Y6410630D02*
D03*
Y6360630D02*
D03*
Y6310630D02*
D03*
Y6260630D02*
D03*
Y6210630D02*
D03*
Y6160630D02*
D03*
X1968504Y6710630D02*
D03*
Y6660630D02*
D03*
Y6610630D02*
D03*
Y6560630D02*
D03*
Y6510630D02*
D03*
Y6460630D02*
D03*
Y6410630D02*
D03*
Y6360630D02*
D03*
Y6310630D02*
D03*
Y6260630D02*
D03*
Y6210630D02*
D03*
Y6160630D02*
D03*
D25*
X2324606Y3642717D02*
D03*
X2274606D02*
D03*
X2224606D02*
D03*
X2174606D02*
D03*
X2124606D02*
D03*
X2074606D02*
D03*
X2024606D02*
D03*
X1974606D02*
D03*
X2324606Y3428150D02*
D03*
X2274606D02*
D03*
X2224606D02*
D03*
X2174606D02*
D03*
X2124606D02*
D03*
X2074606D02*
D03*
X2024606D02*
D03*
X1974606D02*
D03*
X3110040Y3642717D02*
D03*
X3060040D02*
D03*
X3010040D02*
D03*
X2960040D02*
D03*
X2910040D02*
D03*
X2860040D02*
D03*
X2810040D02*
D03*
X2760040D02*
D03*
X3110040Y3428150D02*
D03*
X3060040D02*
D03*
X3010040D02*
D03*
X2960040D02*
D03*
X2910040D02*
D03*
X2860040D02*
D03*
X2810040D02*
D03*
X2760040D02*
D03*
D26*
X4916535Y6708268D02*
D03*
X4784646D02*
D03*
X4717717D02*
D03*
X4622047D02*
D03*
X4523622D02*
D03*
X4425197D02*
D03*
X4360236D02*
D03*
X4279528D02*
D03*
X4212598D02*
D03*
X4114173D02*
D03*
X4015748D02*
D03*
D27*
X3842520Y7535433D02*
D03*
X4921260D02*
D03*
D28*
X4139642Y4612404D02*
D03*
X4196211Y4555836D02*
D03*
X4201132Y4675914D02*
D03*
X4257700Y4619346D02*
D03*
X5061723Y5262096D02*
D03*
X5118292Y5205527D02*
D03*
X4575088Y6072550D02*
D03*
X4518520Y6129118D02*
D03*
X4866142Y5057087D02*
D03*
X4922710Y5000518D02*
D03*
D29*
X9829527Y4841764D02*
D03*
X9804527D02*
D03*
X9779527D02*
D03*
X9754527D02*
D03*
X9729527D02*
D03*
X9704527D02*
D03*
X9679527D02*
D03*
X9654527D02*
D03*
X9829527Y4604764D02*
D03*
X9804527D02*
D03*
X9779527D02*
D03*
X9754527D02*
D03*
X9729527D02*
D03*
X9704527D02*
D03*
X9679527D02*
D03*
X9829528Y5615347D02*
D03*
X9804528D02*
D03*
X9779528D02*
D03*
X9754528D02*
D03*
X9729528D02*
D03*
X9704528D02*
D03*
X9679528D02*
D03*
X9654528D02*
D03*
X9829528Y5378347D02*
D03*
X9804528D02*
D03*
X9779528D02*
D03*
X9754528D02*
D03*
X9729528D02*
D03*
X9704528D02*
D03*
X9679528D02*
D03*
D30*
X9654527Y4604764D02*
D03*
X9654528Y5378347D02*
D03*
D31*
X3788547Y5437659D02*
D03*
X3802466Y5451578D02*
D03*
X3816386Y5465498D02*
D03*
X3830306Y5479417D02*
D03*
X3844225Y5493337D02*
D03*
X3858144Y5507256D02*
D03*
X3872064Y5521175D02*
D03*
X3885983Y5535095D02*
D03*
X3899903Y5549014D02*
D03*
X3913822Y5562934D02*
D03*
X3927741Y5576853D02*
D03*
X3941661Y5590773D02*
D03*
X3955580Y5604692D02*
D03*
X3969500Y5618611D02*
D03*
X3983419Y5632531D02*
D03*
X3997338Y5646450D02*
D03*
X4011258Y5660369D02*
D03*
X4025177Y5674289D02*
D03*
X4039097Y5688208D02*
D03*
X4053016Y5702128D02*
D03*
X4066936Y5716047D02*
D03*
X4080855Y5729967D02*
D03*
X4094774Y5743886D02*
D03*
X4108694Y5757806D02*
D03*
X4122613Y5771725D02*
D03*
X4136533Y5785645D02*
D03*
X4150452Y5799564D02*
D03*
X4164372Y5813483D02*
D03*
X4178291Y5827403D02*
D03*
X4192210Y5841322D02*
D03*
X4206130Y5855242D02*
D03*
X4220049Y5869161D02*
D03*
X4233969Y5883081D02*
D03*
X4247888Y5897000D02*
D03*
X4261808Y5910919D02*
D03*
X4275727Y5924839D02*
D03*
X4872870Y5327695D02*
D03*
X4858951Y5313776D02*
D03*
X4845031Y5299856D02*
D03*
X4831112Y5285937D02*
D03*
X4817192Y5272018D02*
D03*
X4803273Y5258098D02*
D03*
X4789353Y5244179D02*
D03*
X4775434Y5230259D02*
D03*
X4761515Y5216340D02*
D03*
X4747596Y5202421D02*
D03*
X4733676Y5188501D02*
D03*
X4719757Y5174582D02*
D03*
X4705837Y5160662D02*
D03*
X4691918Y5146743D02*
D03*
X4677998Y5132823D02*
D03*
X4664079Y5118904D02*
D03*
X4650159Y5104984D02*
D03*
X4636240Y5091065D02*
D03*
X4622321Y5077146D02*
D03*
X4608401Y5063226D02*
D03*
X4594482Y5049307D02*
D03*
X4580562Y5035388D02*
D03*
X4566643Y5021468D02*
D03*
X4552724Y5007548D02*
D03*
X4538804Y4993629D02*
D03*
X4524885Y4979710D02*
D03*
X4510965Y4965790D02*
D03*
X4497046Y4951871D02*
D03*
X4483126Y4937952D02*
D03*
X4469207Y4924032D02*
D03*
X4455288Y4910113D02*
D03*
X4441368Y4896193D02*
D03*
X4427449Y4882274D02*
D03*
X4413529Y4868354D02*
D03*
X4399610Y4854435D02*
D03*
X4385690Y4840515D02*
D03*
D32*
X4385690Y5924839D02*
D03*
X4399610Y5910919D02*
D03*
X4413529Y5897000D02*
D03*
X4427449Y5883080D02*
D03*
X4441368Y5869161D02*
D03*
X4455288Y5855242D02*
D03*
X4469207Y5841322D02*
D03*
X4483126Y5827403D02*
D03*
X4497046Y5813483D02*
D03*
X4510965Y5799564D02*
D03*
X4524885Y5785645D02*
D03*
X4538804Y5771725D02*
D03*
X4552723Y5757806D02*
D03*
X4566643Y5743886D02*
D03*
X4580562Y5729967D02*
D03*
X4594482Y5716047D02*
D03*
X4608401Y5702128D02*
D03*
X4622321Y5688208D02*
D03*
X4636240Y5674289D02*
D03*
X4650159Y5660369D02*
D03*
X4664079Y5646450D02*
D03*
X4677998Y5632531D02*
D03*
X4691918Y5618611D02*
D03*
X4705837Y5604692D02*
D03*
X4719757Y5590773D02*
D03*
X4733676Y5576853D02*
D03*
X4747596Y5562934D02*
D03*
X4761515Y5549014D02*
D03*
X4775434Y5535095D02*
D03*
X4789354Y5521175D02*
D03*
X4803273Y5507256D02*
D03*
X4817193Y5493337D02*
D03*
X4831112Y5479417D02*
D03*
X4845031Y5465498D02*
D03*
X4858951Y5451578D02*
D03*
X4872870Y5437659D02*
D03*
X4275727Y4840516D02*
D03*
X4261807Y4854435D02*
D03*
X4247888Y4868354D02*
D03*
X4233969Y4882274D02*
D03*
X4220049Y4896193D02*
D03*
X4206130Y4910113D02*
D03*
X4192211Y4924032D02*
D03*
X4178291Y4937952D02*
D03*
X4164372Y4951871D02*
D03*
X4150452Y4965790D02*
D03*
X4136533Y4979710D02*
D03*
X4122613Y4993629D02*
D03*
X4108694Y5007549D02*
D03*
X4094774Y5021468D02*
D03*
X4080855Y5035388D02*
D03*
X4066936Y5049307D02*
D03*
X4053016Y5063226D02*
D03*
X4039097Y5077146D02*
D03*
X4025177Y5091065D02*
D03*
X4011258Y5104984D02*
D03*
X3997338Y5118904D02*
D03*
X3983419Y5132824D02*
D03*
X3969500Y5146743D02*
D03*
X3955580Y5160662D02*
D03*
X3941661Y5174582D02*
D03*
X3927741Y5188501D02*
D03*
X3913822Y5202421D02*
D03*
X3899903Y5216340D02*
D03*
X3885983Y5230259D02*
D03*
X3872064Y5244179D02*
D03*
X3858144Y5258098D02*
D03*
X3844225Y5272018D02*
D03*
X3830305Y5285937D02*
D03*
X3816386Y5299856D02*
D03*
X3802466Y5313776D02*
D03*
X3788547Y5327695D02*
D03*
D50*
X5697244Y7628346D02*
D03*
X5797244D02*
D03*
X5697244Y7728346D02*
D03*
X6197244Y7628346D02*
D03*
Y7728346D02*
D03*
X6097244Y7628346D02*
D03*
Y7728346D02*
D03*
X5997244Y7628346D02*
D03*
Y7728346D02*
D03*
X5897244Y7628346D02*
D03*
Y7728346D02*
D03*
X5797244D02*
D03*
X5597244D02*
D03*
D51*
Y7628346D02*
D03*
D52*
X10729134Y1555118D02*
D03*
Y1948819D02*
D03*
Y2342520D02*
D03*
Y2736220D02*
D03*
Y3129921D02*
D03*
X9933465Y1555118D02*
D03*
X9931890Y1948819D02*
D03*
Y2342520D02*
D03*
X9933465Y2736220D02*
D03*
Y3129921D02*
D03*
X9146063Y1555118D02*
D03*
X9144488Y1948819D02*
D03*
Y2342520D02*
D03*
X9146063Y2736220D02*
D03*
Y3129921D02*
D03*
X8358661Y1555118D02*
D03*
X8357087Y1948819D02*
D03*
Y2342520D02*
D03*
X8358661Y2736220D02*
D03*
Y3129921D02*
D03*
X7571260Y1555118D02*
D03*
X7569685Y1948819D02*
D03*
Y2342520D02*
D03*
Y2746063D02*
D03*
Y3139764D02*
D03*
X6783858Y1555118D02*
D03*
Y1948819D02*
D03*
X6792126Y2342520D02*
D03*
X6783858Y2746063D02*
D03*
Y3129921D02*
D03*
X6000787Y1564961D02*
D03*
Y1958661D02*
D03*
Y2352362D02*
D03*
Y2746063D02*
D03*
X5996457Y3129921D02*
D03*
X5217323Y1555118D02*
D03*
Y1948819D02*
D03*
Y2352362D02*
D03*
Y2746063D02*
D03*
Y3129921D02*
D03*
D53*
X11140945Y1555118D02*
D03*
Y1948819D02*
D03*
Y2342520D02*
D03*
Y2736220D02*
D03*
Y3129921D02*
D03*
X10345276Y1555118D02*
D03*
X10343701Y1948819D02*
D03*
Y2342520D02*
D03*
X10345276Y2736220D02*
D03*
Y3129921D02*
D03*
X9557874Y1555118D02*
D03*
X9556299Y1948819D02*
D03*
Y2342520D02*
D03*
X9557874Y2736220D02*
D03*
Y3129921D02*
D03*
X8770472Y1555118D02*
D03*
X8768898Y1948819D02*
D03*
Y2342520D02*
D03*
X8770472Y2736220D02*
D03*
Y3129921D02*
D03*
X7983071Y1555118D02*
D03*
X7981496Y1948819D02*
D03*
Y2342520D02*
D03*
Y2746063D02*
D03*
Y3139764D02*
D03*
X7195669Y1555118D02*
D03*
Y1948819D02*
D03*
X7203937Y2342520D02*
D03*
X7195669Y2746063D02*
D03*
Y3129921D02*
D03*
X6412598Y1564961D02*
D03*
Y1958661D02*
D03*
Y2352362D02*
D03*
Y2746063D02*
D03*
X6408268Y3129921D02*
D03*
X5629134Y1555118D02*
D03*
Y1948819D02*
D03*
Y2352362D02*
D03*
Y2746063D02*
D03*
Y3129921D02*
D03*
X11548819Y6664567D02*
D03*
X11259843Y6990551D02*
D03*
Y6827559D02*
D03*
Y6664567D02*
D03*
Y6501575D02*
D03*
Y6338583D02*
D03*
X11096850D02*
D03*
Y6990551D02*
D03*
Y6827559D02*
D03*
Y6664567D02*
D03*
Y6501575D02*
D03*
X1214961Y730693D02*
D03*
X1377953D02*
D03*
Y567701D02*
D03*
X1214961D02*
D03*
X1298425Y278724D02*
D03*
D54*
X10039370Y1371653D02*
D03*
Y1765354D02*
D03*
Y2159055D02*
D03*
Y2552756D02*
D03*
Y2946456D02*
D03*
X8464567Y1371653D02*
D03*
Y1765354D02*
D03*
Y2159055D02*
D03*
Y2552756D02*
D03*
X6889764Y1371653D02*
D03*
Y1765354D02*
D03*
X6888189Y2159055D02*
D03*
X6889764Y2564961D02*
D03*
X6888189Y2946456D02*
D03*
X5314961Y1371653D02*
D03*
Y1768504D02*
D03*
X5313386Y2165354D02*
D03*
X5314961Y2559055D02*
D03*
Y2946456D02*
D03*
X4449213Y1362599D02*
D03*
Y1751575D02*
D03*
Y2137008D02*
D03*
Y2545351D02*
D03*
X3677871Y1356299D02*
D03*
Y1750000D02*
D03*
Y2133859D02*
D03*
X3660631Y2537402D02*
D03*
X3661812Y2934252D02*
D03*
X4449213D02*
D03*
X7677165Y2952756D02*
D03*
Y2559055D02*
D03*
X7672366Y2155512D02*
D03*
X7677165Y1765354D02*
D03*
Y1371653D02*
D03*
X6100787Y2946456D02*
D03*
X6102362Y2559055D02*
D03*
Y2165354D02*
D03*
X6097562Y1771654D02*
D03*
X6102362Y1377953D02*
D03*
X10835039Y2946456D02*
D03*
Y2552756D02*
D03*
Y2159055D02*
D03*
Y1765354D02*
D03*
Y1371653D02*
D03*
X9251969Y2946456D02*
D03*
Y2552756D02*
D03*
X9255118Y2159055D02*
D03*
X9251969Y1765354D02*
D03*
Y1371653D02*
D03*
X8464567Y2946456D02*
D03*
X2892126Y2933071D02*
D03*
Y2536220D02*
D03*
Y2132677D02*
D03*
Y1748819D02*
D03*
Y1355118D02*
D03*
X2104724Y2933071D02*
D03*
Y2536220D02*
D03*
Y2132677D02*
D03*
X2113469Y1748819D02*
D03*
X2104724Y1355118D02*
D03*
D55*
X10139370Y1371653D02*
D03*
X10239370D02*
D03*
X10139370Y1765354D02*
D03*
X10239370D02*
D03*
X10139370Y2159055D02*
D03*
X10239370D02*
D03*
X10139370Y2552756D02*
D03*
X10239370D02*
D03*
X10139370Y2946456D02*
D03*
X10239370D02*
D03*
X8564567Y1371653D02*
D03*
X8664567D02*
D03*
X8564567Y1765354D02*
D03*
X8664567D02*
D03*
X8564567Y2159055D02*
D03*
X8664567D02*
D03*
X8564567Y2552756D02*
D03*
X8664567D02*
D03*
X6989764Y1371653D02*
D03*
X7089764D02*
D03*
X6989764Y1765354D02*
D03*
X7089764D02*
D03*
X6988189Y2159055D02*
D03*
X7088189D02*
D03*
X6989764Y2564961D02*
D03*
X7089764D02*
D03*
X6988189Y2946456D02*
D03*
X7088189D02*
D03*
X5414961Y1371653D02*
D03*
X5514961D02*
D03*
X5414961Y1768504D02*
D03*
X5514961D02*
D03*
X5413386Y2165354D02*
D03*
X5513386D02*
D03*
X5414961Y2559055D02*
D03*
X5514961D02*
D03*
X5414961Y2946456D02*
D03*
X5514961D02*
D03*
X4549213Y1362599D02*
D03*
X4649213D02*
D03*
X4549213Y1751575D02*
D03*
X4649213D02*
D03*
X4549213Y2137008D02*
D03*
X4649213D02*
D03*
X4549213Y2545351D02*
D03*
X4649213D02*
D03*
X3777871Y1356299D02*
D03*
X3877871D02*
D03*
X3777871Y1750000D02*
D03*
X3877871D02*
D03*
X3777871Y2133859D02*
D03*
X3877871D02*
D03*
X3760631Y2537402D02*
D03*
X3860631D02*
D03*
X3761812Y2934252D02*
D03*
X3861812D02*
D03*
X787402Y4114173D02*
D03*
Y4014173D02*
D03*
X4549213Y2934252D02*
D03*
X4649213D02*
D03*
X7877165Y2952756D02*
D03*
X7777165D02*
D03*
X7877165Y2559055D02*
D03*
X7777165D02*
D03*
X7872366Y2155512D02*
D03*
X7772366D02*
D03*
X7877165Y1765354D02*
D03*
X7777165D02*
D03*
X7877165Y1371653D02*
D03*
X7777165D02*
D03*
X6300787Y2946456D02*
D03*
X6200787D02*
D03*
X6302362Y2559055D02*
D03*
X6202362D02*
D03*
X6302362Y2165354D02*
D03*
X6202362D02*
D03*
X6297562Y1771654D02*
D03*
X6197562D02*
D03*
X6302362Y1377953D02*
D03*
X6202362D02*
D03*
X11035039Y2946456D02*
D03*
X10935039D02*
D03*
X11035039Y2552756D02*
D03*
X10935039D02*
D03*
X11035039Y2159055D02*
D03*
X10935039D02*
D03*
X11035039Y1765354D02*
D03*
X10935039D02*
D03*
X11035039Y1371653D02*
D03*
X10935039D02*
D03*
X9451969Y2946456D02*
D03*
X9351969D02*
D03*
X9451969Y2552756D02*
D03*
X9351969D02*
D03*
X9455118Y2159055D02*
D03*
X9355118D02*
D03*
X9451969Y1765354D02*
D03*
X9351969D02*
D03*
X9451969Y1371653D02*
D03*
X9351969D02*
D03*
X8664567Y2946456D02*
D03*
X8564567D02*
D03*
X787402Y2252363D02*
D03*
Y2152363D02*
D03*
X3092126Y2933071D02*
D03*
X2992126D02*
D03*
X3092126Y2536220D02*
D03*
X2992126D02*
D03*
X3092126Y2132677D02*
D03*
X2992126D02*
D03*
X3092126Y1748819D02*
D03*
X2992126D02*
D03*
X3092126Y1355118D02*
D03*
X2992126D02*
D03*
X2304724Y2933071D02*
D03*
X2204724D02*
D03*
X2304724Y2536220D02*
D03*
X2204724D02*
D03*
X2304724Y2132677D02*
D03*
X2204724D02*
D03*
X2313469Y1748819D02*
D03*
X2213469D02*
D03*
X2304724Y1355118D02*
D03*
X2204724D02*
D03*
D56*
X7717520Y7677953D02*
D03*
X8138779D02*
D03*
X8223425Y7507874D02*
D03*
X8105315D02*
D03*
X7987205D02*
D03*
X7632874D02*
D03*
X7750984D02*
D03*
X7869095D02*
D03*
X3909449Y7665354D02*
D03*
X4862205D02*
D03*
D57*
X637795Y3514173D02*
D03*
Y4514173D02*
D03*
Y1652362D02*
D03*
Y2652362D02*
D03*
D58*
X9548031Y5061023D02*
D03*
X9648031Y5061023D02*
D03*
X5118110Y7409449D02*
D03*
X5118110Y7309449D02*
D03*
X5118110Y7109449D02*
D03*
X5118110Y7209449D02*
D03*
X2820670Y7629921D02*
D03*
X3220670Y7729921D02*
D03*
Y7629921D02*
D03*
X3120670Y7729921D02*
D03*
Y7629921D02*
D03*
X3020670Y7729921D02*
D03*
Y7629921D02*
D03*
X2920670Y7729921D02*
D03*
Y7629921D02*
D03*
X2820670Y7729921D02*
D03*
X2520669Y7729921D02*
D03*
X2420669Y7729921D02*
D03*
X2420669Y7629922D02*
D03*
X2520669Y7629921D02*
D03*
X2620670Y7629922D02*
D03*
X2720669Y7729922D02*
D03*
X2720670Y7629922D02*
D03*
X2320670Y7729922D02*
D03*
X2620670Y7729922D02*
D03*
D59*
X9748031Y5061024D02*
D03*
D60*
X787402Y3914173D02*
D03*
Y2052363D02*
D03*
D61*
X10485748Y6942205D02*
D03*
Y6242205D02*
D03*
X10212008Y6942205D02*
D03*
Y6242205D02*
D03*
X9943314Y6941682D02*
D03*
Y6241682D02*
D03*
X9667723Y6941682D02*
D03*
Y6241682D02*
D03*
X9392132Y6941682D02*
D03*
Y6241682D02*
D03*
D62*
X5147638Y4114173D02*
D03*
Y4214173D02*
D03*
X10483077Y7421260D02*
D03*
Y7321260D02*
D03*
X10212014Y7421260D02*
D03*
Y7321260D02*
D03*
X9943314Y7421260D02*
D03*
Y7321260D02*
D03*
X9667723Y7421260D02*
D03*
Y7321260D02*
D03*
X9392132Y7421260D02*
D03*
Y7321260D02*
D03*
D63*
X7952756Y6094488D02*
D03*
Y4519685D02*
D03*
D64*
X11417323Y393701D02*
D03*
Y7480315D02*
D03*
X393701D02*
D03*
Y393701D02*
D03*
D65*
X5118111Y7009449D02*
D03*
X2320670Y7629921D02*
D03*
D66*
X551181Y5366142D02*
D03*
Y5529134D02*
D03*
Y6181102D02*
D03*
Y6018110D02*
D03*
Y5692126D02*
D03*
Y5855118D02*
D03*
Y6507087D02*
D03*
Y6344095D02*
D03*
Y6670079D02*
D03*
Y6833071D02*
D03*
X714173D02*
D03*
Y6670079D02*
D03*
Y6344095D02*
D03*
Y6507087D02*
D03*
Y5855118D02*
D03*
Y5692126D02*
D03*
Y6018110D02*
D03*
Y6181102D02*
D03*
Y5529134D02*
D03*
Y5366142D02*
D03*
X11259843Y5805118D02*
D03*
Y5642126D02*
D03*
Y4990158D02*
D03*
Y5153150D02*
D03*
Y5479134D02*
D03*
Y5316142D02*
D03*
Y4664173D02*
D03*
Y4827166D02*
D03*
Y4501181D02*
D03*
Y4338189D02*
D03*
X11096850D02*
D03*
Y4501181D02*
D03*
Y4827166D02*
D03*
Y4664173D02*
D03*
Y5316142D02*
D03*
Y5479134D02*
D03*
Y5153150D02*
D03*
Y4990158D02*
D03*
Y5642126D02*
D03*
Y5805118D02*
D03*
X7347638Y585039D02*
D03*
X7184646D02*
D03*
X6532677D02*
D03*
X6695669D02*
D03*
X7021654D02*
D03*
X6858661D02*
D03*
X6206693D02*
D03*
X6369685D02*
D03*
X6043701D02*
D03*
X5880709D02*
D03*
Y748032D02*
D03*
X6043701D02*
D03*
X6369685D02*
D03*
X6206693D02*
D03*
X6858661D02*
D03*
X7021654D02*
D03*
X6695669D02*
D03*
X6532677D02*
D03*
X7184646D02*
D03*
X7347638D02*
D03*
X10471654Y590551D02*
D03*
X10308661D02*
D03*
X9656693D02*
D03*
X9819685D02*
D03*
X10145669D02*
D03*
X9982677D02*
D03*
X9330709D02*
D03*
X9493701D02*
D03*
X9167717D02*
D03*
X9004724D02*
D03*
Y753543D02*
D03*
X9167717D02*
D03*
X9493701D02*
D03*
X9330709D02*
D03*
X9982677D02*
D03*
X10145669D02*
D03*
X9819685D02*
D03*
X9656693D02*
D03*
X10308661D02*
D03*
X10471654D02*
D03*
X4141340Y585039D02*
D03*
X3978348D02*
D03*
X3326379D02*
D03*
X3489371D02*
D03*
X3815356D02*
D03*
X3652363D02*
D03*
X3000395D02*
D03*
X3163387D02*
D03*
X2837403D02*
D03*
X2674411D02*
D03*
Y748032D02*
D03*
X2837403D02*
D03*
X3163387D02*
D03*
X3000395D02*
D03*
X3652363D02*
D03*
X3815356D02*
D03*
X3489371D02*
D03*
X3326379D02*
D03*
X3978348D02*
D03*
X4141340D02*
D03*
%TF.MD5,10962bc0ef9afb63fa74c456d8a68b8e*%
M02*
