%TF.GenerationSoftware,Altium Limited,Altium Designer,18.0.11 (651)*%
G04 Layer_Color=32768*
%FSLAX26Y26*%
%MOIN*%
%TF.FileFunction,Other,Mechanical_15*%
%TF.Part,Single*%
G01*
G75*
%TA.AperFunction,NonConductor*%
%ADD152C,0.003937*%
%ADD153C,0.002000*%
%ADD154C,0.001968*%
D152*
X7933071Y5307087D02*
X7972441D01*
X7952756Y5287402D02*
Y5326772D01*
X5868110Y6997047D02*
X5907480D01*
X5887795Y6977362D02*
Y7016732D01*
X10119685Y1371653D02*
X10159055D01*
X10139370Y1351968D02*
Y1391338D01*
X10119685Y1765354D02*
X10159055D01*
X10139370Y1745669D02*
Y1785039D01*
X10119685Y2159055D02*
X10159055D01*
X10139370Y2139370D02*
Y2178740D01*
X10119685Y2552756D02*
X10159055D01*
X10139370Y2533071D02*
Y2572441D01*
X10119685Y2946456D02*
X10159055D01*
X10139370Y2926771D02*
Y2966142D01*
X8544882Y1371653D02*
X8584252D01*
X8564567Y1351968D02*
Y1391339D01*
X8544882Y1765354D02*
X8584252D01*
X8564567Y1745669D02*
Y1785039D01*
X8544882Y2159055D02*
X8584252D01*
X8564567Y2139370D02*
Y2178740D01*
X8544882Y2552756D02*
X8584252D01*
X8564567Y2533071D02*
Y2572441D01*
X6970079Y1371653D02*
X7009449D01*
X6989764Y1351968D02*
Y1391338D01*
X6970079Y1765354D02*
X7009449D01*
X6989764Y1745669D02*
Y1785039D01*
X6968504Y2159055D02*
X7007874D01*
X6988189Y2139370D02*
Y2178740D01*
X6970079Y2564961D02*
X7009449D01*
X6989764Y2545276D02*
Y2584646D01*
X6968504Y2946456D02*
X7007874D01*
X6988189Y2926771D02*
Y2966142D01*
X5395275Y1371653D02*
X5434646D01*
X5414961Y1351968D02*
Y1391338D01*
X5395275Y1768504D02*
X5434646D01*
X5414961Y1748819D02*
Y1788189D01*
X5393701Y2165354D02*
X5433071D01*
X5413386Y2145669D02*
Y2185039D01*
X5395275Y2559055D02*
X5434646D01*
X5414961Y2539370D02*
Y2578740D01*
X5395275Y2946456D02*
X5434646D01*
X5414961Y2926771D02*
Y2966142D01*
X4529528Y1362599D02*
X4568898D01*
X4549213Y1342914D02*
Y1382284D01*
X4529528Y1751575D02*
X4568898D01*
X4549213Y1731890D02*
Y1771260D01*
X4529528Y2137008D02*
X4568898D01*
X4549213Y2117323D02*
Y2156693D01*
X4529528Y2545351D02*
X4568898D01*
X4549213Y2525666D02*
Y2565036D01*
X3758186Y1356299D02*
X3797556D01*
X3777871Y1336614D02*
Y1375984D01*
X3758186Y1750000D02*
X3797556D01*
X3777871Y1730315D02*
Y1769685D01*
X3758186Y2133859D02*
X3797556D01*
X3777871Y2114174D02*
Y2153544D01*
X3740946Y2537402D02*
X3780316D01*
X3760631Y2517716D02*
Y2557087D01*
X3742127Y2934252D02*
X3781497D01*
X3761812Y2914567D02*
Y2953937D01*
X767717Y4014173D02*
X807087D01*
X787402Y3994488D02*
Y4033858D01*
X4529528Y2934252D02*
X4568898D01*
X4549213Y2914567D02*
Y2953937D01*
X10320868Y4695276D02*
X10360238D01*
X10340553Y4675591D02*
Y4714961D01*
X10320868Y5499016D02*
X10360238D01*
X10340553Y5479331D02*
Y5518701D01*
X2149606Y3515748D02*
Y3555118D01*
X2129921Y3535433D02*
X2169291D01*
X2935040Y3515748D02*
Y3555118D01*
X2915355Y3535433D02*
X2954725D01*
X1771653Y5570866D02*
Y5610236D01*
X1751968Y5590551D02*
X1791339D01*
X1781496Y6415945D02*
Y6455315D01*
X1761811Y6435630D02*
X1801181D01*
X7325197Y3602362D02*
X7364567D01*
X7344882Y3582677D02*
Y3622047D01*
X5807087Y3602362D02*
X5846457D01*
X5826772Y3582677D02*
Y3622047D01*
X10472441Y3602362D02*
X10511811D01*
X10492126Y3582677D02*
Y3622047D01*
X8937008Y3602362D02*
X8976378D01*
X8956693Y3582677D02*
Y3622047D01*
X4122369Y3602362D02*
X4161739D01*
X4142054Y3582677D02*
Y3622047D01*
X7777165Y2933071D02*
Y2972441D01*
X7757480Y2952756D02*
X7796850D01*
X7777165Y2539370D02*
Y2578740D01*
X7757480Y2559055D02*
X7796850D01*
X7772366Y2135827D02*
Y2175197D01*
X7752681Y2155512D02*
X7792051D01*
X7777165Y1745669D02*
Y1785039D01*
X7757480Y1765354D02*
X7796850D01*
X7777165Y1351968D02*
Y1391339D01*
X7757480Y1371653D02*
X7796850D01*
X6200787Y2926771D02*
Y2966142D01*
X6181102Y2946456D02*
X6220472D01*
X6202362Y2539370D02*
Y2578740D01*
X6182677Y2559055D02*
X6222047D01*
X6202362Y2145669D02*
Y2185039D01*
X6182677Y2165354D02*
X6222047D01*
X6197562Y1751968D02*
Y1791339D01*
X6177877Y1771654D02*
X6217247D01*
X6202362Y1358268D02*
Y1397638D01*
X6182677Y1377953D02*
X6222047D01*
X10935039Y2926771D02*
Y2966142D01*
X10915354Y2946456D02*
X10954724D01*
X10935039Y2533071D02*
Y2572441D01*
X10915354Y2552756D02*
X10954724D01*
X10935039Y2139370D02*
Y2178740D01*
X10915354Y2159055D02*
X10954724D01*
X10935039Y1745669D02*
Y1785039D01*
X10915354Y1765354D02*
X10954724D01*
X10935039Y1351968D02*
Y1391339D01*
X10915354Y1371653D02*
X10954724D01*
X9351969Y2926771D02*
Y2966142D01*
X9332283Y2946456D02*
X9371654D01*
X9351969Y2533071D02*
Y2572441D01*
X9332283Y2552756D02*
X9371654D01*
X9355118Y2139370D02*
Y2178740D01*
X9335433Y2159055D02*
X9374803D01*
X9351969Y1745669D02*
Y1785039D01*
X9332283Y1765354D02*
X9371654D01*
X9351969Y1351968D02*
Y1391339D01*
X9332283Y1371653D02*
X9371654D01*
X8564567Y2926771D02*
Y2966142D01*
X8544882Y2946456D02*
X8584252D01*
X767717Y2152363D02*
X807087D01*
X787402Y2132677D02*
Y2172048D01*
X2992126Y2913386D02*
Y2952756D01*
X2972441Y2933071D02*
X3011811D01*
X2992126Y2516535D02*
Y2555905D01*
X2972441Y2536220D02*
X3011811D01*
X2992126Y2112992D02*
Y2152363D01*
X2972441Y2132677D02*
X3011811D01*
X2992126Y1729134D02*
Y1768504D01*
X2972441Y1748819D02*
X3011811D01*
X2992126Y1335433D02*
Y1374803D01*
X2972441Y1355118D02*
X3011811D01*
X2204724Y2913386D02*
Y2952756D01*
X2185039Y2933071D02*
X2224409D01*
X2204724Y2516535D02*
Y2555905D01*
X2185039Y2536220D02*
X2224409D01*
X2204724Y2112992D02*
Y2152363D01*
X2185039Y2132677D02*
X2224409D01*
X2213469Y1729134D02*
Y1768504D01*
X2193784Y1748819D02*
X2233154D01*
X2204724Y1335433D02*
Y1374803D01*
X2185039Y1355118D02*
X2224409D01*
X4316789Y5396596D02*
X4344628Y5368758D01*
X4316789D02*
X4344628Y5396596D01*
D153*
X4271274Y4161770D02*
X4427274D01*
X4271274D02*
Y4287770D01*
X4427274D01*
Y4161770D02*
Y4287770D01*
D154*
X8139764Y5019685D02*
Y5594488D01*
X7765748Y5019685D02*
Y5594488D01*
Y5019685D02*
X8139764D01*
X7765748Y5594488D02*
X8139764D01*
X6204724Y6763779D02*
Y7230315D01*
X5570866Y6763779D02*
Y7230315D01*
X6204724D01*
X5570866Y6763779D02*
X6204724D01*
X10107285Y4453150D02*
Y4937402D01*
X10573820Y4453150D02*
Y4937402D01*
X10107285D02*
X10573820D01*
X10107285Y4453150D02*
X10573820D01*
X10107285Y5256890D02*
Y5741142D01*
X10573821Y5256890D02*
Y5741142D01*
X10107285D02*
X10573821D01*
X10107285Y5256890D02*
X10573821D01*
X1942913Y3681102D02*
X2356299D01*
X1942913Y3389764D02*
X2356299D01*
Y3681102D01*
X1942913Y3389764D02*
Y3681102D01*
X2728347D02*
X3141733D01*
X2728347Y3389764D02*
X3141733D01*
Y3681102D01*
X2728347Y3389764D02*
Y3681102D01*
X1538386Y5273622D02*
X2004921D01*
X1538386Y5907480D02*
X2004921D01*
Y5273622D02*
Y5907480D01*
X1538386Y5273622D02*
Y5907480D01*
X1548228Y6752559D02*
X2014764D01*
X1548228Y6118701D02*
X2014764D01*
X1548228D02*
Y6752559D01*
X2014764Y6118701D02*
Y6752559D01*
X7027953Y3369095D02*
Y3835630D01*
X7661811Y3369095D02*
Y3835630D01*
X7027953Y3369095D02*
X7661811D01*
X7027953Y3835630D02*
X7661811D01*
X5509843Y3369095D02*
Y3835630D01*
X6143701Y3369095D02*
Y3835630D01*
X5509843Y3369095D02*
X6143701D01*
X5509843Y3835630D02*
X6143701D01*
X10175197Y3369095D02*
Y3835630D01*
X10809055Y3369095D02*
Y3835630D01*
X10175197Y3369095D02*
X10809055D01*
X10175197Y3835630D02*
X10809055D01*
X8639764Y3369095D02*
Y3835630D01*
X9273622Y3369095D02*
Y3835630D01*
X8639764Y3369095D02*
X9273622D01*
X8639764Y3835630D02*
X9273622D01*
X3825125Y3369095D02*
Y3835630D01*
X4458984Y3369095D02*
Y3835630D01*
X3825125Y3369095D02*
X4458984D01*
X3825125Y3835630D02*
X4458984D01*
X4330709Y4731248D02*
X4982138Y5382677D01*
X3679280Y5382677D02*
X4330709Y6034106D01*
X4982138Y5382677D01*
X3679280Y5382677D02*
X4330709Y4731248D01*
%TF.MD5,e586781b02854bfe6ce7fb6043d1fad9*%
M02*
