%TF.GenerationSoftware,Altium Limited,Altium Designer,18.0.11 (651)*%
G04 Layer_Color=16711935*
%FSLAX26Y26*%
%MOIN*%
%TF.FileFunction,Other,Mechanical_13*%
%TF.Part,Single*%
G01*
G75*
%TA.AperFunction,NonConductor*%
%ADD152C,0.003937*%
%ADD153C,0.002000*%
D152*
X8059055Y5064961D02*
G03*
X8059055Y5064961I-19685J0D01*
G01*
X5635827Y6882874D02*
G03*
X5635827Y6882874I-19685J0D01*
G01*
X10246064Y4892126D02*
G03*
X10246064Y4892126I-19685J0D01*
G01*
X10246065Y5695866D02*
G03*
X10246065Y5695866I-19685J0D01*
G01*
X2330709Y3578740D02*
G03*
X2330709Y3578740I-19685J0D01*
G01*
X3116142D02*
G03*
X3116142Y3578740I-19685J0D01*
G01*
X1677165Y5862205D02*
G03*
X1677165Y5862205I-19685J0D01*
G01*
X1915354Y6163976D02*
G03*
X1915354Y6163976I-19685J0D01*
G01*
X7636220Y3716535D02*
G03*
X7636220Y3716535I-19685J0D01*
G01*
X6118110D02*
G03*
X6118110Y3716535I-19685J0D01*
G01*
X10783464D02*
G03*
X10783464Y3716535I-19685J0D01*
G01*
X9248031D02*
G03*
X9248031Y3716535I-19685J0D01*
G01*
X4433393D02*
G03*
X4433393Y3716535I-19685J0D01*
G01*
X3843727Y5382677D02*
G03*
X3843727Y5382677I-19685J0D01*
G01*
X8074803Y5029528D02*
Y5584646D01*
X7830709Y5029528D02*
Y5584646D01*
Y5029528D02*
X8074803D01*
X7830709Y5584646D02*
X8074803D01*
X6194882Y6847441D02*
Y7146654D01*
X5580709Y6847441D02*
Y7146654D01*
X6194882D01*
X5580709Y6847441D02*
X6194882D01*
X9928740Y1432677D02*
X10350000D01*
Y1298819D02*
Y1483858D01*
X9928740Y1298819D02*
Y1483858D01*
Y1298819D02*
X10350000D01*
X9928740Y1483858D02*
X10350000D01*
X9928740Y1826378D02*
X10350000D01*
Y1692520D02*
Y1877559D01*
X9928740Y1692520D02*
Y1877559D01*
Y1692520D02*
X10350000D01*
X9928740Y1877559D02*
X10350000D01*
X9928740Y2220079D02*
X10350000D01*
Y2086220D02*
Y2271260D01*
X9928740Y2086220D02*
Y2271260D01*
Y2086220D02*
X10350000D01*
X9928740Y2271260D02*
X10350000D01*
X9928740Y2613779D02*
X10350000D01*
Y2479921D02*
Y2664961D01*
X9928740Y2479921D02*
Y2664961D01*
Y2479921D02*
X10350000D01*
X9928740Y2664961D02*
X10350000D01*
X9928740Y3007480D02*
X10350000D01*
Y2873622D02*
Y3058661D01*
X9928740Y2873622D02*
Y3058661D01*
Y2873622D02*
X10350000D01*
X9928740Y3058661D02*
X10350000D01*
X8353937Y1432677D02*
X8775197D01*
Y1298819D02*
Y1483858D01*
X8353937Y1298819D02*
Y1483858D01*
Y1298819D02*
X8775197D01*
X8353937Y1483858D02*
X8775197D01*
X8353937Y1826378D02*
X8775197D01*
Y1692520D02*
Y1877559D01*
X8353937Y1692520D02*
Y1877559D01*
Y1692520D02*
X8775197D01*
X8353937Y1877559D02*
X8775197D01*
X8353937Y2220079D02*
X8775197D01*
Y2086220D02*
Y2271260D01*
X8353937Y2086220D02*
Y2271260D01*
Y2086220D02*
X8775197D01*
X8353937Y2271260D02*
X8775197D01*
X8353937Y2613779D02*
X8775197D01*
Y2479921D02*
Y2664961D01*
X8353937Y2479921D02*
Y2664961D01*
Y2479921D02*
X8775197D01*
X8353937Y2664961D02*
X8775197D01*
X6779134Y1432677D02*
X7200394D01*
Y1298819D02*
Y1483858D01*
X6779134Y1298819D02*
Y1483858D01*
Y1298819D02*
X7200394D01*
X6779134Y1483858D02*
X7200394D01*
X6779134Y1826378D02*
X7200394D01*
Y1692520D02*
Y1877559D01*
X6779134Y1692520D02*
Y1877559D01*
Y1692520D02*
X7200394D01*
X6779134Y1877559D02*
X7200394D01*
X6777559Y2220079D02*
X7198819D01*
Y2086220D02*
Y2271260D01*
X6777559Y2086220D02*
Y2271260D01*
Y2086220D02*
X7198819D01*
X6777559Y2271260D02*
X7198819D01*
X6779134Y2625985D02*
X7200394D01*
Y2492127D02*
Y2677166D01*
X6779134Y2492127D02*
Y2677166D01*
Y2492127D02*
X7200394D01*
X6779134Y2677166D02*
X7200394D01*
X6777559Y3007480D02*
X7198819D01*
Y2873622D02*
Y3058661D01*
X6777559Y2873622D02*
Y3058661D01*
Y2873622D02*
X7198819D01*
X6777559Y3058661D02*
X7198819D01*
X5204331Y1432677D02*
X5625591D01*
Y1298819D02*
Y1483858D01*
X5204331Y1298819D02*
Y1483858D01*
Y1298819D02*
X5625591D01*
X5204331Y1483858D02*
X5625591D01*
X5204331Y1829527D02*
X5625591D01*
Y1695669D02*
Y1880709D01*
X5204331Y1695669D02*
Y1880709D01*
Y1695669D02*
X5625591D01*
X5204331Y1880709D02*
X5625591D01*
X5202756Y2226378D02*
X5624016D01*
Y2092520D02*
Y2277559D01*
X5202756Y2092520D02*
Y2277559D01*
Y2092520D02*
X5624016D01*
X5202756Y2277559D02*
X5624016D01*
X5204331Y2620079D02*
X5625591D01*
Y2486220D02*
Y2671260D01*
X5204331Y2486220D02*
Y2671260D01*
Y2486220D02*
X5625591D01*
X5204331Y2671260D02*
X5625591D01*
X5204331Y3007480D02*
X5625591D01*
Y2873622D02*
Y3058661D01*
X5204331Y2873622D02*
Y3058661D01*
Y2873622D02*
X5625591D01*
X5204331Y3058661D02*
X5625591D01*
X4338583Y1423622D02*
X4759843D01*
Y1289764D02*
Y1474803D01*
X4338583Y1289764D02*
Y1474803D01*
Y1289764D02*
X4759843D01*
X4338583Y1474803D02*
X4759843D01*
X4338583Y1812599D02*
X4759843D01*
Y1678741D02*
Y1863780D01*
X4338583Y1678741D02*
Y1863780D01*
Y1678741D02*
X4759843D01*
X4338583Y1863780D02*
X4759843D01*
X4338583Y2198032D02*
X4759843D01*
Y2064174D02*
Y2249213D01*
X4338583Y2064174D02*
Y2249213D01*
Y2064174D02*
X4759843D01*
X4338583Y2249213D02*
X4759843D01*
X4338583Y2606375D02*
X4759843D01*
Y2472517D02*
Y2657556D01*
X4338583Y2472517D02*
Y2657556D01*
Y2472517D02*
X4759843D01*
X4338583Y2657556D02*
X4759843D01*
X3567241Y1417323D02*
X3988501D01*
Y1283465D02*
Y1468504D01*
X3567241Y1283465D02*
Y1468504D01*
Y1283465D02*
X3988501D01*
X3567241Y1468504D02*
X3988501D01*
X3567241Y1811024D02*
X3988501D01*
Y1677166D02*
Y1862205D01*
X3567241Y1677166D02*
Y1862205D01*
Y1677166D02*
X3988501D01*
X3567241Y1862205D02*
X3988501D01*
X3567241Y2194882D02*
X3988501D01*
Y2061024D02*
Y2246063D01*
X3567241Y2061024D02*
Y2246063D01*
Y2061024D02*
X3988501D01*
X3567241Y2246063D02*
X3988501D01*
X3550001Y2598425D02*
X3971261D01*
Y2464567D02*
Y2649606D01*
X3550001Y2464567D02*
Y2649606D01*
Y2464567D02*
X3971261D01*
X3550001Y2649606D02*
X3971261D01*
X3551182Y2995276D02*
X3972442D01*
Y2861418D02*
Y3046457D01*
X3551182Y2861418D02*
Y3046457D01*
Y2861418D02*
X3972442D01*
X3551182Y3046457D02*
X3972442D01*
X675197Y3803543D02*
Y4224803D01*
X860236Y3803543D02*
Y4224803D01*
X675197Y3803543D02*
X860236D01*
X675197Y4224803D02*
X860236D01*
X726378Y3803543D02*
Y4224803D01*
X4338583Y2995276D02*
X4759843D01*
Y2861418D02*
Y3046457D01*
X4338583Y2861418D02*
Y3046457D01*
Y2861418D02*
X4759843D01*
X4338583Y3046457D02*
X4759843D01*
X10190946Y4462992D02*
Y4927559D01*
X10490159Y4462992D02*
Y4927559D01*
X10190946D02*
X10490159D01*
X10190946Y4462992D02*
X10490159D01*
X10190947Y5266732D02*
Y5731299D01*
X10490159Y5266732D02*
Y5731299D01*
X10190947D02*
X10490159D01*
X10190947Y5266732D02*
X10490159D01*
X1952756Y3614173D02*
X2346457D01*
X1952756Y3456693D02*
X2346457D01*
Y3614173D01*
X1952756Y3456693D02*
Y3614173D01*
X2738190D02*
X3131890D01*
X2738190Y3456693D02*
X3131890D01*
Y3614173D01*
X2738190Y3456693D02*
Y3614173D01*
X1622047Y5283465D02*
X1921260D01*
X1622047Y5897638D02*
X1921260D01*
Y5283465D02*
Y5897638D01*
X1622047Y5283465D02*
Y5897638D01*
X1631890Y6742717D02*
X1931102D01*
X1631890Y6128543D02*
X1931102D01*
X1631890D02*
Y6742717D01*
X1931102Y6128543D02*
Y6742717D01*
X7037795Y3452756D02*
Y3751968D01*
X7651968Y3452756D02*
Y3751968D01*
X7037795Y3452756D02*
X7651968D01*
X7037795Y3751968D02*
X7651968D01*
X5519685Y3452756D02*
Y3751968D01*
X6133858Y3452756D02*
Y3751968D01*
X5519685Y3452756D02*
X6133858D01*
X5519685Y3751968D02*
X6133858D01*
X10185039Y3452756D02*
Y3751968D01*
X10799212Y3452756D02*
Y3751968D01*
X10185039Y3452756D02*
X10799212D01*
X10185039Y3751968D02*
X10799212D01*
X8649606Y3452756D02*
Y3751968D01*
X9263780Y3452756D02*
Y3751968D01*
X8649606Y3452756D02*
X9263780D01*
X8649606Y3751968D02*
X9263780D01*
X3834968Y3452756D02*
Y3751968D01*
X4449141Y3452756D02*
Y3751968D01*
X3834968Y3452756D02*
X4449141D01*
X3834968Y3751968D02*
X4449141D01*
X7566535Y3064961D02*
X7987795D01*
X7566535Y2879921D02*
X7987795D01*
X7566535D02*
Y3064961D01*
X7987795Y2879921D02*
Y3064961D01*
X7566535Y3013780D02*
X7987795D01*
X7566535Y2671260D02*
X7987795D01*
X7566535Y2486220D02*
X7987795D01*
X7566535D02*
Y2671260D01*
X7987795Y2486220D02*
Y2671260D01*
X7566535Y2620079D02*
X7987795D01*
X7561736Y2267717D02*
X7982996D01*
X7561736Y2082677D02*
X7982996D01*
X7561736D02*
Y2267717D01*
X7982996Y2082677D02*
Y2267717D01*
X7561736Y2216536D02*
X7982996D01*
X7566535Y1877559D02*
X7987795D01*
X7566535Y1692520D02*
X7987795D01*
X7566535D02*
Y1877559D01*
X7987795Y1692520D02*
Y1877559D01*
X7566535Y1826378D02*
X7987795D01*
X7566535Y1483858D02*
X7987795D01*
X7566535Y1298819D02*
X7987795D01*
X7566535D02*
Y1483858D01*
X7987795Y1298819D02*
Y1483858D01*
X7566535Y1432677D02*
X7987795D01*
X5990157Y3058661D02*
X6411417D01*
X5990157Y2873622D02*
X6411417D01*
X5990157D02*
Y3058661D01*
X6411417Y2873622D02*
Y3058661D01*
X5990157Y3007480D02*
X6411417D01*
X5991732Y2671260D02*
X6412992D01*
X5991732Y2486220D02*
X6412992D01*
X5991732D02*
Y2671260D01*
X6412992Y2486220D02*
Y2671260D01*
X5991732Y2620079D02*
X6412992D01*
X5991732Y2277559D02*
X6412992D01*
X5991732Y2092520D02*
X6412992D01*
X5991732D02*
Y2277559D01*
X6412992Y2092520D02*
Y2277559D01*
X5991732Y2226378D02*
X6412992D01*
X5986932Y1883858D02*
X6408192D01*
X5986932Y1698819D02*
X6408192D01*
X5986932D02*
Y1883858D01*
X6408192Y1698819D02*
Y1883858D01*
X5986932Y1832677D02*
X6408192D01*
X5991732Y1490158D02*
X6412992D01*
X5991732Y1305118D02*
X6412992D01*
X5991732D02*
Y1490158D01*
X6412992Y1305118D02*
Y1490158D01*
X5991732Y1438976D02*
X6412992D01*
X10724409Y3058661D02*
X11145669D01*
X10724409Y2873622D02*
X11145669D01*
X10724409D02*
Y3058661D01*
X11145669Y2873622D02*
Y3058661D01*
X10724409Y3007480D02*
X11145669D01*
X10724409Y2664961D02*
X11145669D01*
X10724409Y2479921D02*
X11145669D01*
X10724409D02*
Y2664961D01*
X11145669Y2479921D02*
Y2664961D01*
X10724409Y2613779D02*
X11145669D01*
X10724409Y2271260D02*
X11145669D01*
X10724409Y2086220D02*
X11145669D01*
X10724409D02*
Y2271260D01*
X11145669Y2086220D02*
Y2271260D01*
X10724409Y2220079D02*
X11145669D01*
X10724409Y1877559D02*
X11145669D01*
X10724409Y1692520D02*
X11145669D01*
X10724409D02*
Y1877559D01*
X11145669Y1692520D02*
Y1877559D01*
X10724409Y1826378D02*
X11145669D01*
X10724409Y1483858D02*
X11145669D01*
X10724409Y1298819D02*
X11145669D01*
X10724409D02*
Y1483858D01*
X11145669Y1298819D02*
Y1483858D01*
X10724409Y1432677D02*
X11145669D01*
X9141338Y3058661D02*
X9562599D01*
X9141338Y2873622D02*
X9562599D01*
X9141338D02*
Y3058661D01*
X9562599Y2873622D02*
Y3058661D01*
X9141338Y3007480D02*
X9562599D01*
X9141338Y2664961D02*
X9562599D01*
X9141338Y2479921D02*
X9562599D01*
X9141338D02*
Y2664961D01*
X9562599Y2479921D02*
Y2664961D01*
X9141338Y2613779D02*
X9562599D01*
X9144488Y2271260D02*
X9565748D01*
X9144488Y2086220D02*
X9565748D01*
X9144488D02*
Y2271260D01*
X9565748Y2086220D02*
Y2271260D01*
X9144488Y2220079D02*
X9565748D01*
X9141338Y1877559D02*
X9562599D01*
X9141338Y1692520D02*
X9562599D01*
X9141338D02*
Y1877559D01*
X9562599Y1692520D02*
Y1877559D01*
X9141338Y1826378D02*
X9562599D01*
X9141338Y1483858D02*
X9562599D01*
X9141338Y1298819D02*
X9562599D01*
X9141338D02*
Y1483858D01*
X9562599Y1298819D02*
Y1483858D01*
X9141338Y1432677D02*
X9562599D01*
X8353937Y3058661D02*
X8775197D01*
X8353937Y2873622D02*
X8775197D01*
X8353937D02*
Y3058661D01*
X8775197Y2873622D02*
Y3058661D01*
X8353937Y3007480D02*
X8775197D01*
X675197Y1941733D02*
Y2362993D01*
X860236Y1941733D02*
Y2362993D01*
X675197Y1941733D02*
X860236D01*
X675197Y2362993D02*
X860236D01*
X726378Y1941733D02*
Y2362993D01*
X2781496Y3045276D02*
X3202756D01*
X2781496Y2860236D02*
X3202756D01*
X2781496D02*
Y3045276D01*
X3202756Y2860236D02*
Y3045276D01*
X2781496Y2994095D02*
X3202756D01*
X2781496Y2648425D02*
X3202756D01*
X2781496Y2463386D02*
X3202756D01*
X2781496D02*
Y2648425D01*
X3202756Y2463386D02*
Y2648425D01*
X2781496Y2597244D02*
X3202756D01*
X2781496Y2244882D02*
X3202756D01*
X2781496Y2059843D02*
X3202756D01*
X2781496D02*
Y2244882D01*
X3202756Y2059843D02*
Y2244882D01*
X2781496Y2193701D02*
X3202756D01*
X2781496Y1861024D02*
X3202756D01*
X2781496Y1675984D02*
X3202756D01*
X2781496D02*
Y1861024D01*
X3202756Y1675984D02*
Y1861024D01*
X2781496Y1809842D02*
X3202756D01*
X2781496Y1467323D02*
X3202756D01*
X2781496Y1282284D02*
X3202756D01*
X2781496D02*
Y1467323D01*
X3202756Y1282284D02*
Y1467323D01*
X2781496Y1416142D02*
X3202756D01*
X1994094Y3045276D02*
X2415354D01*
X1994094Y2860236D02*
X2415354D01*
X1994094D02*
Y3045276D01*
X2415354Y2860236D02*
Y3045276D01*
X1994094Y2994095D02*
X2415354D01*
X1994094Y2648425D02*
X2415354D01*
X1994094Y2463386D02*
X2415354D01*
X1994094D02*
Y2648425D01*
X2415354Y2463386D02*
Y2648425D01*
X1994094Y2597244D02*
X2415354D01*
X1994094Y2244882D02*
X2415354D01*
X1994094Y2059843D02*
X2415354D01*
X1994094D02*
Y2244882D01*
X2415354Y2059843D02*
Y2244882D01*
X1994094Y2193701D02*
X2415354D01*
X2002839Y1861024D02*
X2424099D01*
X2002839Y1675984D02*
X2424099D01*
X2002839D02*
Y1861024D01*
X2424099Y1675984D02*
Y1861024D01*
X2002839Y1809842D02*
X2424099D01*
X1994094Y1467323D02*
X2415354D01*
X1994094Y1282284D02*
X2415354D01*
X1994094D02*
Y1467323D01*
X2415354Y1282284D02*
Y1467323D01*
X1994094Y1416142D02*
X2415354D01*
X4330709Y4825900D02*
X4887486Y5382677D01*
X3773932D02*
X4330709Y5939454D01*
X4887486Y5382677D01*
X3773932D02*
X4330709Y4825900D01*
D153*
X4412266Y4175557D02*
Y4273982D01*
X4286282D02*
X4412266D01*
X4286282Y4175557D02*
Y4273982D01*
Y4175557D02*
X4412266D01*
%TF.MD5,2bc3bc5fb18118f30a189511445b6083*%
M02*
