%TF.GenerationSoftware,Altium Limited,Altium Designer,18.0.11 (651)*%
G04 Layer_Color=255*
%FSLAX26Y26*%
%MOIN*%
%TF.FileFunction,Pads,Bot*%
%TF.Part,Single*%
G01*
G75*
%TA.AperFunction,SMDPad,CuDef*%
%ADD14R,0.040000X0.050000*%
%TA.AperFunction,ComponentPad*%
%ADD50C,0.062000*%
%ADD51R,0.062000X0.062000*%
%ADD52R,0.078740X0.078740*%
%ADD53C,0.078740*%
%ADD54R,0.062992X0.062992*%
%ADD55C,0.062992*%
%ADD56C,0.060000*%
%TA.AperFunction,ViaPad*%
%ADD57C,0.060000*%
%TA.AperFunction,ComponentPad*%
%ADD58C,0.070000*%
%ADD59R,0.070000X0.070000*%
%ADD60R,0.062992X0.062992*%
%ADD61C,0.064961*%
%ADD62C,0.065000*%
%TA.AperFunction,ViaPad*%
%ADD63C,0.157480*%
%ADD64C,0.354331*%
%TA.AperFunction,ComponentPad*%
%ADD65R,0.070000X0.070000*%
%ADD66C,0.086614*%
D14*
X2960472Y1906299D02*
D03*
X3040472D02*
D03*
X2960471Y1512598D02*
D03*
X3040471D02*
D03*
X2173070D02*
D03*
X2253070D02*
D03*
X2180944Y1906299D02*
D03*
X2260944D02*
D03*
X2180944Y2292126D02*
D03*
X2260944D02*
D03*
X2960472D02*
D03*
X3040472D02*
D03*
X2960472Y2693701D02*
D03*
X3040472D02*
D03*
X2960472Y3095276D02*
D03*
X3040472D02*
D03*
X2180944Y3087401D02*
D03*
X2260944D02*
D03*
X2180944Y2693701D02*
D03*
X2260944D02*
D03*
X4507874Y2698032D02*
D03*
X4587874D02*
D03*
X4510709Y2291338D02*
D03*
X4590709D02*
D03*
X4507874Y1516929D02*
D03*
X4587874D02*
D03*
X4507874Y1910630D02*
D03*
X4587874D02*
D03*
X3729213Y1512992D02*
D03*
X3809213D02*
D03*
X3729213Y1910630D02*
D03*
X3809213D02*
D03*
X3729213Y2292520D02*
D03*
X3809213D02*
D03*
X3729213Y2696032D02*
D03*
X3809213D02*
D03*
X3729213Y3095669D02*
D03*
X3809213D02*
D03*
X4507874D02*
D03*
X4587874D02*
D03*
X10177165Y3129921D02*
D03*
X10097165D02*
D03*
X10178425Y2736220D02*
D03*
X10098425D02*
D03*
X6241417Y1948819D02*
D03*
X6161417D02*
D03*
X6241417Y1555118D02*
D03*
X6161417D02*
D03*
X7027559Y3129921D02*
D03*
X6947559D02*
D03*
X7021654Y2746063D02*
D03*
X6941654D02*
D03*
X10984252Y1555118D02*
D03*
X10904252D02*
D03*
X9392132Y3129921D02*
D03*
X9312132D02*
D03*
X9392132Y2736220D02*
D03*
X9312132D02*
D03*
X10984252Y3129921D02*
D03*
X10904252D02*
D03*
X7816221Y1555118D02*
D03*
X7736221D02*
D03*
X8602362Y2736220D02*
D03*
X8522362D02*
D03*
X10985512D02*
D03*
X10905512D02*
D03*
X6241417Y3129921D02*
D03*
X6161417D02*
D03*
X8602362Y2342520D02*
D03*
X8522362D02*
D03*
X10984252D02*
D03*
X10904252D02*
D03*
X6241417Y2746063D02*
D03*
X6161417D02*
D03*
X8603622Y1948819D02*
D03*
X8523622D02*
D03*
X9392132Y1555118D02*
D03*
X9312132D02*
D03*
X8603622D02*
D03*
X8523622D02*
D03*
X10984252Y1948819D02*
D03*
X10904252D02*
D03*
X7028819Y2342520D02*
D03*
X6948819D02*
D03*
X6241417D02*
D03*
X6161417D02*
D03*
X7028819Y1948819D02*
D03*
X6948819D02*
D03*
X7027559Y1555118D02*
D03*
X6947559D02*
D03*
X5473701Y3129921D02*
D03*
X5393701D02*
D03*
X10178425Y2342520D02*
D03*
X10098425D02*
D03*
X5472441Y2746063D02*
D03*
X5392441D02*
D03*
X7816221Y3129921D02*
D03*
X7736221D02*
D03*
X10177165Y1958661D02*
D03*
X10097165D02*
D03*
X5473701Y2352362D02*
D03*
X5393701D02*
D03*
X10178425Y1555118D02*
D03*
X10098425D02*
D03*
X5472441Y1948819D02*
D03*
X5392441D02*
D03*
X7816221Y2342520D02*
D03*
X7736221D02*
D03*
X8603622Y3129921D02*
D03*
X8523622D02*
D03*
X5472441Y1555118D02*
D03*
X5392441D02*
D03*
X7816221Y1948819D02*
D03*
X7736221D02*
D03*
X9391024D02*
D03*
X9311024D02*
D03*
X7816221Y2746063D02*
D03*
X7736221D02*
D03*
X9391024Y2342520D02*
D03*
X9311024D02*
D03*
D50*
X5697244Y7628346D02*
D03*
X5797244D02*
D03*
X5697244Y7728346D02*
D03*
X6197244Y7628346D02*
D03*
Y7728346D02*
D03*
X6097244Y7628346D02*
D03*
Y7728346D02*
D03*
X5997244Y7628346D02*
D03*
Y7728346D02*
D03*
X5897244Y7628346D02*
D03*
Y7728346D02*
D03*
X5797244D02*
D03*
X5597244D02*
D03*
D51*
Y7628346D02*
D03*
D52*
X10729134Y1555118D02*
D03*
Y1948819D02*
D03*
Y2342520D02*
D03*
Y2736220D02*
D03*
Y3129921D02*
D03*
X9933465Y1555118D02*
D03*
X9931890Y1948819D02*
D03*
Y2342520D02*
D03*
X9933465Y2736220D02*
D03*
Y3129921D02*
D03*
X9146063Y1555118D02*
D03*
X9144488Y1948819D02*
D03*
Y2342520D02*
D03*
X9146063Y2736220D02*
D03*
Y3129921D02*
D03*
X8358661Y1555118D02*
D03*
X8357087Y1948819D02*
D03*
Y2342520D02*
D03*
X8358661Y2736220D02*
D03*
Y3129921D02*
D03*
X7571260Y1555118D02*
D03*
X7569685Y1948819D02*
D03*
Y2342520D02*
D03*
Y2746063D02*
D03*
Y3139764D02*
D03*
X6783858Y1555118D02*
D03*
Y1948819D02*
D03*
X6792126Y2342520D02*
D03*
X6783858Y2746063D02*
D03*
Y3129921D02*
D03*
X6000787Y1564961D02*
D03*
Y1958661D02*
D03*
Y2352362D02*
D03*
Y2746063D02*
D03*
X5996457Y3129921D02*
D03*
X5217323Y1555118D02*
D03*
Y1948819D02*
D03*
Y2352362D02*
D03*
Y2746063D02*
D03*
Y3129921D02*
D03*
D53*
X11140945Y1555118D02*
D03*
Y1948819D02*
D03*
Y2342520D02*
D03*
Y2736220D02*
D03*
Y3129921D02*
D03*
X10345276Y1555118D02*
D03*
X10343701Y1948819D02*
D03*
Y2342520D02*
D03*
X10345276Y2736220D02*
D03*
Y3129921D02*
D03*
X9557874Y1555118D02*
D03*
X9556299Y1948819D02*
D03*
Y2342520D02*
D03*
X9557874Y2736220D02*
D03*
Y3129921D02*
D03*
X8770472Y1555118D02*
D03*
X8768898Y1948819D02*
D03*
Y2342520D02*
D03*
X8770472Y2736220D02*
D03*
Y3129921D02*
D03*
X7983071Y1555118D02*
D03*
X7981496Y1948819D02*
D03*
Y2342520D02*
D03*
Y2746063D02*
D03*
Y3139764D02*
D03*
X7195669Y1555118D02*
D03*
Y1948819D02*
D03*
X7203937Y2342520D02*
D03*
X7195669Y2746063D02*
D03*
Y3129921D02*
D03*
X6412598Y1564961D02*
D03*
Y1958661D02*
D03*
Y2352362D02*
D03*
Y2746063D02*
D03*
X6408268Y3129921D02*
D03*
X5629134Y1555118D02*
D03*
Y1948819D02*
D03*
Y2352362D02*
D03*
Y2746063D02*
D03*
Y3129921D02*
D03*
X11548819Y6664567D02*
D03*
X11259843Y6990551D02*
D03*
Y6827559D02*
D03*
Y6664567D02*
D03*
Y6501575D02*
D03*
Y6338583D02*
D03*
X11096850D02*
D03*
Y6990551D02*
D03*
Y6827559D02*
D03*
Y6664567D02*
D03*
Y6501575D02*
D03*
X1214961Y730693D02*
D03*
X1377953D02*
D03*
Y567701D02*
D03*
X1214961D02*
D03*
X1298425Y278724D02*
D03*
D54*
X10039370Y1371653D02*
D03*
Y1765354D02*
D03*
Y2159055D02*
D03*
Y2552756D02*
D03*
Y2946456D02*
D03*
X8464567Y1371653D02*
D03*
Y1765354D02*
D03*
Y2159055D02*
D03*
Y2552756D02*
D03*
X6889764Y1371653D02*
D03*
Y1765354D02*
D03*
X6888189Y2159055D02*
D03*
X6889764Y2564961D02*
D03*
X6888189Y2946456D02*
D03*
X5314961Y1371653D02*
D03*
Y1768504D02*
D03*
X5313386Y2165354D02*
D03*
X5314961Y2559055D02*
D03*
Y2946456D02*
D03*
X4449213Y1362599D02*
D03*
Y1751575D02*
D03*
Y2137008D02*
D03*
Y2545351D02*
D03*
X3677871Y1356299D02*
D03*
Y1750000D02*
D03*
Y2133859D02*
D03*
X3660631Y2537402D02*
D03*
X3661812Y2934252D02*
D03*
X4449213D02*
D03*
X7677165Y2952756D02*
D03*
Y2559055D02*
D03*
X7672366Y2155512D02*
D03*
X7677165Y1765354D02*
D03*
Y1371653D02*
D03*
X6100787Y2946456D02*
D03*
X6102362Y2559055D02*
D03*
Y2165354D02*
D03*
X6097562Y1771654D02*
D03*
X6102362Y1377953D02*
D03*
X10835039Y2946456D02*
D03*
Y2552756D02*
D03*
Y2159055D02*
D03*
Y1765354D02*
D03*
Y1371653D02*
D03*
X9251969Y2946456D02*
D03*
Y2552756D02*
D03*
X9255118Y2159055D02*
D03*
X9251969Y1765354D02*
D03*
Y1371653D02*
D03*
X8464567Y2946456D02*
D03*
X2892126Y2933071D02*
D03*
Y2536220D02*
D03*
Y2132677D02*
D03*
Y1748819D02*
D03*
Y1355118D02*
D03*
X2104724Y2933071D02*
D03*
Y2536220D02*
D03*
Y2132677D02*
D03*
X2113469Y1748819D02*
D03*
X2104724Y1355118D02*
D03*
D55*
X10139370Y1371653D02*
D03*
X10239370D02*
D03*
X10139370Y1765354D02*
D03*
X10239370D02*
D03*
X10139370Y2159055D02*
D03*
X10239370D02*
D03*
X10139370Y2552756D02*
D03*
X10239370D02*
D03*
X10139370Y2946456D02*
D03*
X10239370D02*
D03*
X8564567Y1371653D02*
D03*
X8664567D02*
D03*
X8564567Y1765354D02*
D03*
X8664567D02*
D03*
X8564567Y2159055D02*
D03*
X8664567D02*
D03*
X8564567Y2552756D02*
D03*
X8664567D02*
D03*
X6989764Y1371653D02*
D03*
X7089764D02*
D03*
X6989764Y1765354D02*
D03*
X7089764D02*
D03*
X6988189Y2159055D02*
D03*
X7088189D02*
D03*
X6989764Y2564961D02*
D03*
X7089764D02*
D03*
X6988189Y2946456D02*
D03*
X7088189D02*
D03*
X5414961Y1371653D02*
D03*
X5514961D02*
D03*
X5414961Y1768504D02*
D03*
X5514961D02*
D03*
X5413386Y2165354D02*
D03*
X5513386D02*
D03*
X5414961Y2559055D02*
D03*
X5514961D02*
D03*
X5414961Y2946456D02*
D03*
X5514961D02*
D03*
X4549213Y1362599D02*
D03*
X4649213D02*
D03*
X4549213Y1751575D02*
D03*
X4649213D02*
D03*
X4549213Y2137008D02*
D03*
X4649213D02*
D03*
X4549213Y2545351D02*
D03*
X4649213D02*
D03*
X3777871Y1356299D02*
D03*
X3877871D02*
D03*
X3777871Y1750000D02*
D03*
X3877871D02*
D03*
X3777871Y2133859D02*
D03*
X3877871D02*
D03*
X3760631Y2537402D02*
D03*
X3860631D02*
D03*
X3761812Y2934252D02*
D03*
X3861812D02*
D03*
X787402Y4114173D02*
D03*
Y4014173D02*
D03*
X4549213Y2934252D02*
D03*
X4649213D02*
D03*
X7877165Y2952756D02*
D03*
X7777165D02*
D03*
X7877165Y2559055D02*
D03*
X7777165D02*
D03*
X7872366Y2155512D02*
D03*
X7772366D02*
D03*
X7877165Y1765354D02*
D03*
X7777165D02*
D03*
X7877165Y1371653D02*
D03*
X7777165D02*
D03*
X6300787Y2946456D02*
D03*
X6200787D02*
D03*
X6302362Y2559055D02*
D03*
X6202362D02*
D03*
X6302362Y2165354D02*
D03*
X6202362D02*
D03*
X6297562Y1771654D02*
D03*
X6197562D02*
D03*
X6302362Y1377953D02*
D03*
X6202362D02*
D03*
X11035039Y2946456D02*
D03*
X10935039D02*
D03*
X11035039Y2552756D02*
D03*
X10935039D02*
D03*
X11035039Y2159055D02*
D03*
X10935039D02*
D03*
X11035039Y1765354D02*
D03*
X10935039D02*
D03*
X11035039Y1371653D02*
D03*
X10935039D02*
D03*
X9451969Y2946456D02*
D03*
X9351969D02*
D03*
X9451969Y2552756D02*
D03*
X9351969D02*
D03*
X9455118Y2159055D02*
D03*
X9355118D02*
D03*
X9451969Y1765354D02*
D03*
X9351969D02*
D03*
X9451969Y1371653D02*
D03*
X9351969D02*
D03*
X8664567Y2946456D02*
D03*
X8564567D02*
D03*
X787402Y2252363D02*
D03*
Y2152363D02*
D03*
X3092126Y2933071D02*
D03*
X2992126D02*
D03*
X3092126Y2536220D02*
D03*
X2992126D02*
D03*
X3092126Y2132677D02*
D03*
X2992126D02*
D03*
X3092126Y1748819D02*
D03*
X2992126D02*
D03*
X3092126Y1355118D02*
D03*
X2992126D02*
D03*
X2304724Y2933071D02*
D03*
X2204724D02*
D03*
X2304724Y2536220D02*
D03*
X2204724D02*
D03*
X2304724Y2132677D02*
D03*
X2204724D02*
D03*
X2313469Y1748819D02*
D03*
X2213469D02*
D03*
X2304724Y1355118D02*
D03*
X2204724D02*
D03*
D56*
X7717520Y7677953D02*
D03*
X8138779D02*
D03*
X8223425Y7507874D02*
D03*
X8105315D02*
D03*
X7987205D02*
D03*
X7632874D02*
D03*
X7750984D02*
D03*
X7869095D02*
D03*
X3909449Y7665354D02*
D03*
X4862205D02*
D03*
D57*
X637795Y3514173D02*
D03*
Y4514173D02*
D03*
Y1652362D02*
D03*
Y2652362D02*
D03*
D58*
X9548031Y5061023D02*
D03*
X9648031Y5061023D02*
D03*
X5118110Y7409449D02*
D03*
X5118110Y7309449D02*
D03*
X5118110Y7109449D02*
D03*
X5118110Y7209449D02*
D03*
X2820670Y7629921D02*
D03*
X3220670Y7729921D02*
D03*
Y7629921D02*
D03*
X3120670Y7729921D02*
D03*
Y7629921D02*
D03*
X3020670Y7729921D02*
D03*
Y7629921D02*
D03*
X2920670Y7729921D02*
D03*
Y7629921D02*
D03*
X2820670Y7729921D02*
D03*
X2520669Y7729921D02*
D03*
X2420669Y7729921D02*
D03*
X2420669Y7629922D02*
D03*
X2520669Y7629921D02*
D03*
X2620670Y7629922D02*
D03*
X2720669Y7729922D02*
D03*
X2720670Y7629922D02*
D03*
X2320670Y7729922D02*
D03*
X2620670Y7729922D02*
D03*
D59*
X9748031Y5061024D02*
D03*
D60*
X787402Y3914173D02*
D03*
Y2052363D02*
D03*
D61*
X10485748Y6942205D02*
D03*
Y6242205D02*
D03*
X10212008Y6942205D02*
D03*
Y6242205D02*
D03*
X9943314Y6941682D02*
D03*
Y6241682D02*
D03*
X9667723Y6941682D02*
D03*
Y6241682D02*
D03*
X9392132Y6941682D02*
D03*
Y6241682D02*
D03*
D62*
X5147638Y4114173D02*
D03*
Y4214173D02*
D03*
X10483077Y7421260D02*
D03*
Y7321260D02*
D03*
X10212014Y7421260D02*
D03*
Y7321260D02*
D03*
X9943314Y7421260D02*
D03*
Y7321260D02*
D03*
X9667723Y7421260D02*
D03*
Y7321260D02*
D03*
X9392132Y7421260D02*
D03*
Y7321260D02*
D03*
D63*
X7952756Y6094488D02*
D03*
Y4519685D02*
D03*
D64*
X11417323Y393701D02*
D03*
Y7480315D02*
D03*
X393701D02*
D03*
Y393701D02*
D03*
D65*
X5118111Y7009449D02*
D03*
X2320670Y7629921D02*
D03*
D66*
X551181Y5366142D02*
D03*
Y5529134D02*
D03*
Y6181102D02*
D03*
Y6018110D02*
D03*
Y5692126D02*
D03*
Y5855118D02*
D03*
Y6507087D02*
D03*
Y6344095D02*
D03*
Y6670079D02*
D03*
Y6833071D02*
D03*
X714173D02*
D03*
Y6670079D02*
D03*
Y6344095D02*
D03*
Y6507087D02*
D03*
Y5855118D02*
D03*
Y5692126D02*
D03*
Y6018110D02*
D03*
Y6181102D02*
D03*
Y5529134D02*
D03*
Y5366142D02*
D03*
X11259843Y5805118D02*
D03*
Y5642126D02*
D03*
Y4990158D02*
D03*
Y5153150D02*
D03*
Y5479134D02*
D03*
Y5316142D02*
D03*
Y4664173D02*
D03*
Y4827166D02*
D03*
Y4501181D02*
D03*
Y4338189D02*
D03*
X11096850D02*
D03*
Y4501181D02*
D03*
Y4827166D02*
D03*
Y4664173D02*
D03*
Y5316142D02*
D03*
Y5479134D02*
D03*
Y5153150D02*
D03*
Y4990158D02*
D03*
Y5642126D02*
D03*
Y5805118D02*
D03*
X7347638Y585039D02*
D03*
X7184646D02*
D03*
X6532677D02*
D03*
X6695669D02*
D03*
X7021654D02*
D03*
X6858661D02*
D03*
X6206693D02*
D03*
X6369685D02*
D03*
X6043701D02*
D03*
X5880709D02*
D03*
Y748032D02*
D03*
X6043701D02*
D03*
X6369685D02*
D03*
X6206693D02*
D03*
X6858661D02*
D03*
X7021654D02*
D03*
X6695669D02*
D03*
X6532677D02*
D03*
X7184646D02*
D03*
X7347638D02*
D03*
X10471654Y590551D02*
D03*
X10308661D02*
D03*
X9656693D02*
D03*
X9819685D02*
D03*
X10145669D02*
D03*
X9982677D02*
D03*
X9330709D02*
D03*
X9493701D02*
D03*
X9167717D02*
D03*
X9004724D02*
D03*
Y753543D02*
D03*
X9167717D02*
D03*
X9493701D02*
D03*
X9330709D02*
D03*
X9982677D02*
D03*
X10145669D02*
D03*
X9819685D02*
D03*
X9656693D02*
D03*
X10308661D02*
D03*
X10471654D02*
D03*
X4141340Y585039D02*
D03*
X3978348D02*
D03*
X3326379D02*
D03*
X3489371D02*
D03*
X3815356D02*
D03*
X3652363D02*
D03*
X3000395D02*
D03*
X3163387D02*
D03*
X2837403D02*
D03*
X2674411D02*
D03*
Y748032D02*
D03*
X2837403D02*
D03*
X3163387D02*
D03*
X3000395D02*
D03*
X3652363D02*
D03*
X3815356D02*
D03*
X3489371D02*
D03*
X3326379D02*
D03*
X3978348D02*
D03*
X4141340D02*
D03*
%TF.MD5,339dc978f80b6f36f9adb96c8f440341*%
M02*
