%TF.GenerationSoftware,Altium Limited,Altium Designer,18.0.11 (651)*%
G04 Layer_Color=2752767*
%FSLAX26Y26*%
%MOIN*%
%TF.FileFunction,Drawing*%
%TF.Part,Single*%
G01*
G75*
%TA.AperFunction,NonConductor*%
%ADD92C,0.005000*%
%ADD115C,0.004000*%
%ADD183C,0.006667*%
D92*
X5677244Y7608346D02*
Y7648346D01*
X5717244D01*
Y7608346D01*
X5677244D01*
X5777244D02*
Y7648346D01*
X5817244D01*
Y7608346D01*
X5777244D01*
X5677244Y7708346D02*
Y7748346D01*
X5717244D01*
Y7708346D01*
X5677244D01*
X6177244Y7608346D02*
Y7648346D01*
X6217244D01*
Y7608346D01*
X6177244D01*
Y7708346D02*
Y7748346D01*
X6217244D01*
Y7708346D01*
X6177244D01*
X6077244Y7608346D02*
Y7648346D01*
X6117244D01*
Y7608346D01*
X6077244D01*
Y7708346D02*
Y7748346D01*
X6117244D01*
Y7708346D01*
X6077244D01*
X5977244Y7608346D02*
Y7648346D01*
X6017244D01*
Y7608346D01*
X5977244D01*
Y7708346D02*
Y7748346D01*
X6017244D01*
Y7708346D01*
X5977244D01*
X5877244Y7608346D02*
Y7648346D01*
X5917244D01*
Y7608346D01*
X5877244D01*
Y7708346D02*
Y7748346D01*
X5917244D01*
Y7708346D01*
X5877244D01*
X5577244Y7608346D02*
Y7648346D01*
X5617244D01*
Y7608346D01*
X5577244D01*
X5777244Y7708346D02*
Y7748346D01*
X5817244D01*
Y7708346D01*
X5777244D01*
X5577244D02*
Y7748346D01*
X5617244D01*
Y7708346D01*
X5577244D01*
X10039370Y1351653D02*
X10019370Y1391653D01*
X10059370D01*
X10039370Y1351653D01*
X10139370D02*
X10119370Y1391653D01*
X10159370D01*
X10139370Y1351653D01*
X10239370D02*
X10219370Y1391653D01*
X10259370D01*
X10239370Y1351653D01*
X10039370Y1745354D02*
X10019370Y1785354D01*
X10059370D01*
X10039370Y1745354D01*
X10139370D02*
X10119370Y1785354D01*
X10159370D01*
X10139370Y1745354D01*
X10239370D02*
X10219370Y1785354D01*
X10259370D01*
X10239370Y1745354D01*
X10039370Y2139055D02*
X10019370Y2179055D01*
X10059370D01*
X10039370Y2139055D01*
X10139370D02*
X10119370Y2179055D01*
X10159370D01*
X10139370Y2139055D01*
X10239370D02*
X10219370Y2179055D01*
X10259370D01*
X10239370Y2139055D01*
X10039370Y2532756D02*
X10019370Y2572756D01*
X10059370D01*
X10039370Y2532756D01*
X10139370D02*
X10119370Y2572756D01*
X10159370D01*
X10139370Y2532756D01*
X10239370D02*
X10219370Y2572756D01*
X10259370D01*
X10239370Y2532756D01*
X10039370Y2926456D02*
X10019370Y2966456D01*
X10059370D01*
X10039370Y2926456D01*
X10139370D02*
X10119370Y2966456D01*
X10159370D01*
X10139370Y2926456D01*
X10239370D02*
X10219370Y2966456D01*
X10259370D01*
X10239370Y2926456D01*
X8464567Y1351653D02*
X8444567Y1391653D01*
X8484567D01*
X8464567Y1351653D01*
X8564567D02*
X8544567Y1391653D01*
X8584567D01*
X8564567Y1351653D01*
X8664567D02*
X8644567Y1391653D01*
X8684567D01*
X8664567Y1351653D01*
X8464567Y1745354D02*
X8444567Y1785354D01*
X8484567D01*
X8464567Y1745354D01*
X8564567D02*
X8544567Y1785354D01*
X8584567D01*
X8564567Y1745354D01*
X8664567D02*
X8644567Y1785354D01*
X8684567D01*
X8664567Y1745354D01*
X8464567Y2139055D02*
X8444567Y2179055D01*
X8484567D01*
X8464567Y2139055D01*
X8564567D02*
X8544567Y2179055D01*
X8584567D01*
X8564567Y2139055D01*
X8664567D02*
X8644567Y2179055D01*
X8684567D01*
X8664567Y2139055D01*
X8464567Y2532756D02*
X8444567Y2572756D01*
X8484567D01*
X8464567Y2532756D01*
X8564567D02*
X8544567Y2572756D01*
X8584567D01*
X8564567Y2532756D01*
X8664567D02*
X8644567Y2572756D01*
X8684567D01*
X8664567Y2532756D01*
X6889764Y1351653D02*
X6869764Y1391653D01*
X6909764D01*
X6889764Y1351653D01*
X6989764D02*
X6969764Y1391653D01*
X7009764D01*
X6989764Y1351653D01*
X7089764D02*
X7069764Y1391653D01*
X7109764D01*
X7089764Y1351653D01*
X6889764Y1745354D02*
X6869764Y1785354D01*
X6909764D01*
X6889764Y1745354D01*
X6989764D02*
X6969764Y1785354D01*
X7009764D01*
X6989764Y1745354D01*
X7089764D02*
X7069764Y1785354D01*
X7109764D01*
X7089764Y1745354D01*
X6888189Y2139055D02*
X6868189Y2179055D01*
X6908189D01*
X6888189Y2139055D01*
X6988189D02*
X6968189Y2179055D01*
X7008189D01*
X6988189Y2139055D01*
X7088189D02*
X7068189Y2179055D01*
X7108189D01*
X7088189Y2139055D01*
X6889764Y2544961D02*
X6869764Y2584961D01*
X6909764D01*
X6889764Y2544961D01*
X6989764D02*
X6969764Y2584961D01*
X7009764D01*
X6989764Y2544961D01*
X7089764D02*
X7069764Y2584961D01*
X7109764D01*
X7089764Y2544961D01*
X6888189Y2926456D02*
X6868189Y2966456D01*
X6908189D01*
X6888189Y2926456D01*
X6988189D02*
X6968189Y2966456D01*
X7008189D01*
X6988189Y2926456D01*
X7088189D02*
X7068189Y2966456D01*
X7108189D01*
X7088189Y2926456D01*
X5314961Y1351653D02*
X5294961Y1391653D01*
X5334961D01*
X5314961Y1351653D01*
X5414961D02*
X5394961Y1391653D01*
X5434961D01*
X5414961Y1351653D01*
X5514961D02*
X5494961Y1391653D01*
X5534961D01*
X5514961Y1351653D01*
X5314961Y1748504D02*
X5294961Y1788504D01*
X5334961D01*
X5314961Y1748504D01*
X5414961D02*
X5394961Y1788504D01*
X5434961D01*
X5414961Y1748504D01*
X5514961D02*
X5494961Y1788504D01*
X5534961D01*
X5514961Y1748504D01*
X5313386Y2145354D02*
X5293386Y2185354D01*
X5333386D01*
X5313386Y2145354D01*
X5413386D02*
X5393386Y2185354D01*
X5433386D01*
X5413386Y2145354D01*
X5513386D02*
X5493386Y2185354D01*
X5533386D01*
X5513386Y2145354D01*
X5314961Y2539055D02*
X5294961Y2579055D01*
X5334961D01*
X5314961Y2539055D01*
X5414961D02*
X5394961Y2579055D01*
X5434961D01*
X5414961Y2539055D01*
X5514961D02*
X5494961Y2579055D01*
X5534961D01*
X5514961Y2539055D01*
X5314961Y2926456D02*
X5294961Y2966456D01*
X5334961D01*
X5314961Y2926456D01*
X5414961D02*
X5394961Y2966456D01*
X5434961D01*
X5414961Y2926456D01*
X5514961D02*
X5494961Y2966456D01*
X5534961D01*
X5514961Y2926456D01*
X4449213Y1342599D02*
X4429213Y1382599D01*
X4469213D01*
X4449213Y1342599D01*
X4549213D02*
X4529213Y1382599D01*
X4569213D01*
X4549213Y1342599D01*
X4649213D02*
X4629213Y1382599D01*
X4669213D01*
X4649213Y1342599D01*
X4449213Y1731575D02*
X4429213Y1771575D01*
X4469213D01*
X4449213Y1731575D01*
X4549213D02*
X4529213Y1771575D01*
X4569213D01*
X4549213Y1731575D01*
X4649213D02*
X4629213Y1771575D01*
X4669213D01*
X4649213Y1731575D01*
X4449213Y2117008D02*
X4429213Y2157008D01*
X4469213D01*
X4449213Y2117008D01*
X4549213D02*
X4529213Y2157008D01*
X4569213D01*
X4549213Y2117008D01*
X4649213D02*
X4629213Y2157008D01*
X4669213D01*
X4649213Y2117008D01*
X4449213Y2525351D02*
X4429213Y2565351D01*
X4469213D01*
X4449213Y2525351D01*
X4549213D02*
X4529213Y2565351D01*
X4569213D01*
X4549213Y2525351D01*
X4649213D02*
X4629213Y2565351D01*
X4669213D01*
X4649213Y2525351D01*
X3677871Y1336299D02*
X3657871Y1376299D01*
X3697871D01*
X3677871Y1336299D01*
X3777871D02*
X3757871Y1376299D01*
X3797871D01*
X3777871Y1336299D01*
X3877871D02*
X3857871Y1376299D01*
X3897871D01*
X3877871Y1336299D01*
X3677871Y1730000D02*
X3657871Y1770000D01*
X3697871D01*
X3677871Y1730000D01*
X3777871D02*
X3757871Y1770000D01*
X3797871D01*
X3777871Y1730000D01*
X3877871D02*
X3857871Y1770000D01*
X3897871D01*
X3877871Y1730000D01*
X3677871Y2113859D02*
X3657871Y2153859D01*
X3697871D01*
X3677871Y2113859D01*
X3777871D02*
X3757871Y2153859D01*
X3797871D01*
X3777871Y2113859D01*
X3877871D02*
X3857871Y2153859D01*
X3897871D01*
X3877871Y2113859D01*
X3660631Y2517402D02*
X3640631Y2557402D01*
X3680631D01*
X3660631Y2517402D01*
X3760631D02*
X3740631Y2557402D01*
X3780631D01*
X3760631Y2517402D01*
X3860631D02*
X3840631Y2557402D01*
X3880631D01*
X3860631Y2517402D01*
X3661812Y2914252D02*
X3641812Y2954252D01*
X3681812D01*
X3661812Y2914252D01*
X3761812D02*
X3741812Y2954252D01*
X3781812D01*
X3761812Y2914252D01*
X3861812D02*
X3841812Y2954252D01*
X3881812D01*
X3861812Y2914252D01*
X7717520Y7657953D02*
X7727520Y7667953D01*
X7737520D01*
X7727520Y7677953D01*
X7737520Y7687953D01*
X7727520D01*
X7717520Y7697953D01*
X7707520Y7687953D01*
X7697520D01*
X7707520Y7677953D01*
X7697520Y7667953D01*
X7707520D01*
X7717520Y7657953D01*
X8138779D02*
X8148779Y7667953D01*
X8158779D01*
X8148779Y7677953D01*
X8158779Y7687953D01*
X8148779D01*
X8138779Y7697953D01*
X8128779Y7687953D01*
X8118779D01*
X8128779Y7677953D01*
X8118779Y7667953D01*
X8128779D01*
X8138779Y7657953D01*
X8203425Y7487874D02*
X8213425Y7507874D01*
X8203425Y7527874D01*
X8223425Y7517874D01*
X8243425Y7527874D01*
X8233425Y7507874D01*
X8243425Y7487874D01*
X8223425Y7497874D01*
X8203425Y7487874D01*
X8085315D02*
X8095315Y7507874D01*
X8085315Y7527874D01*
X8105315Y7517874D01*
X8125315Y7527874D01*
X8115315Y7507874D01*
X8125315Y7487874D01*
X8105315Y7497874D01*
X8085315Y7487874D01*
X7967205D02*
X7977205Y7507874D01*
X7967205Y7527874D01*
X7987205Y7517874D01*
X8007205Y7527874D01*
X7997205Y7507874D01*
X8007205Y7487874D01*
X7987205Y7497874D01*
X7967205Y7487874D01*
X7612874D02*
X7622874Y7507874D01*
X7612874Y7527874D01*
X7632874Y7517874D01*
X7652874Y7527874D01*
X7642874Y7507874D01*
X7652874Y7487874D01*
X7632874Y7497874D01*
X7612874Y7487874D01*
X7730984D02*
X7740984Y7507874D01*
X7730984Y7527874D01*
X7750984Y7517874D01*
X7770984Y7527874D01*
X7760984Y7507874D01*
X7770984Y7487874D01*
X7750984Y7497874D01*
X7730984Y7487874D01*
X7849095D02*
X7859095Y7507874D01*
X7849095Y7527874D01*
X7869095Y7517874D01*
X7889095Y7527874D01*
X7879095Y7507874D01*
X7889095Y7487874D01*
X7869095Y7497874D01*
X7849095Y7487874D01*
X627795Y3504173D02*
Y3494173D01*
X647795D01*
Y3504173D01*
X657795D01*
Y3524173D01*
X647795D01*
Y3534173D01*
X627795D01*
Y3524173D01*
X617795D01*
Y3504173D01*
X627795D01*
Y4504173D02*
Y4494173D01*
X647795D01*
Y4504173D01*
X657795D01*
Y4524173D01*
X647795D01*
Y4534173D01*
X627795D01*
Y4524173D01*
X617795D01*
Y4504173D01*
X627795D01*
Y1642362D02*
Y1632362D01*
X647795D01*
Y1642362D01*
X657795D01*
Y1662362D01*
X647795D01*
Y1672362D01*
X627795D01*
Y1662362D01*
X617795D01*
Y1642362D01*
X627795D01*
Y2642362D02*
Y2632362D01*
X647795D01*
Y2642362D01*
X657795D01*
Y2662362D01*
X647795D01*
Y2672362D01*
X627795D01*
Y2662362D01*
X617795D01*
Y2642362D01*
X627795D01*
X9528031Y5041023D02*
Y5081023D01*
X9568031D01*
Y5041023D01*
X9528031D01*
X9728031Y5041024D02*
Y5081024D01*
X9768031D01*
Y5041024D01*
X9728031D01*
X9628031Y5041023D02*
Y5081023D01*
X9668031D01*
Y5041023D01*
X9628031D01*
X787402Y4094173D02*
X767402Y4134173D01*
X807402D01*
X787402Y4094173D01*
Y3994173D02*
X767402Y4034173D01*
X807402D01*
X787402Y3994173D01*
Y3894173D02*
X767402Y3934173D01*
X807402D01*
X787402Y3894173D01*
X10485748Y6922205D02*
X10465748Y6962205D01*
X10505748D01*
X10485748Y6922205D01*
Y6222205D02*
X10465748Y6262205D01*
X10505748D01*
X10485748Y6222205D01*
X10212008Y6922205D02*
X10192008Y6962205D01*
X10232008D01*
X10212008Y6922205D01*
Y6222205D02*
X10192008Y6262205D01*
X10232008D01*
X10212008Y6222205D01*
X9943314Y6921682D02*
X9923314Y6961682D01*
X9963314D01*
X9943314Y6921682D01*
Y6221682D02*
X9923314Y6261682D01*
X9963314D01*
X9943314Y6221682D01*
X9667723Y6921682D02*
X9647723Y6961682D01*
X9687723D01*
X9667723Y6921682D01*
Y6221682D02*
X9647723Y6261682D01*
X9687723D01*
X9667723Y6221682D01*
X9392132Y6921682D02*
X9372132Y6961682D01*
X9412132D01*
X9392132Y6921682D01*
Y6221682D02*
X9372132Y6261682D01*
X9412132D01*
X9392132Y6221682D01*
X4449213Y2914252D02*
X4429213Y2954252D01*
X4469213D01*
X4449213Y2914252D01*
X4549213D02*
X4529213Y2954252D01*
X4569213D01*
X4549213Y2914252D01*
X4649213D02*
X4629213Y2954252D01*
X4669213D01*
X4649213Y2914252D01*
X5127638Y4094173D02*
Y4134173D01*
X5167638D01*
Y4094173D01*
X5127638D01*
Y4194173D02*
Y4234173D01*
X5167638D01*
Y4194173D01*
X5127638D01*
X7932756Y6074488D02*
X7942756D01*
X7952756Y6084488D01*
X7962756Y6074488D01*
X7972756D01*
Y6084488D01*
X7962756Y6094488D01*
X7972756Y6104488D01*
Y6114488D01*
X7962756D01*
X7952756Y6104488D01*
X7942756Y6114488D01*
X7932756D01*
Y6104488D01*
X7942756Y6094488D01*
X7932756Y6084488D01*
Y6074488D01*
Y4499685D02*
X7942756D01*
X7952756Y4509685D01*
X7962756Y4499685D01*
X7972756D01*
Y4509685D01*
X7962756Y4519685D01*
X7972756Y4529685D01*
Y4539685D01*
X7962756D01*
X7952756Y4529685D01*
X7942756Y4539685D01*
X7932756D01*
Y4529685D01*
X7942756Y4519685D01*
X7932756Y4509685D01*
Y4499685D01*
X10463077Y7401260D02*
Y7441260D01*
X10503077D01*
Y7401260D01*
X10463077D01*
Y7301260D02*
Y7341260D01*
X10503077D01*
Y7301260D01*
X10463077D01*
X11397323Y393701D02*
X11417323Y413701D01*
X11437323Y393701D01*
X11417323Y373701D01*
X11397323Y393701D01*
Y7480315D02*
X11417323Y7500315D01*
X11437323Y7480315D01*
X11417323Y7460315D01*
X11397323Y7480315D01*
X373701D02*
X393701Y7500315D01*
X413701Y7480315D01*
X393701Y7460315D01*
X373701Y7480315D01*
X5098110Y7389449D02*
Y7429449D01*
X5138110D01*
Y7389449D01*
X5098110D01*
X5098110Y7289449D02*
Y7329449D01*
X5138110D01*
Y7289449D01*
X5098110D01*
X5098110Y7089449D02*
Y7129449D01*
X5138110D01*
Y7089449D01*
X5098110D01*
X5098111Y6989449D02*
Y7029449D01*
X5138111D01*
Y6989449D01*
X5098111D01*
X5098110Y7189449D02*
Y7229449D01*
X5138110D01*
Y7189449D01*
X5098110D01*
X531181Y5346142D02*
Y5386142D01*
X571181D01*
Y5346142D01*
X531181D01*
X539181Y5354142D02*
Y5378142D01*
X563181D01*
Y5354142D01*
X539181D01*
X531181Y5509134D02*
Y5549134D01*
X571181D01*
Y5509134D01*
X531181D01*
X539181Y5517134D02*
Y5541134D01*
X563181D01*
Y5517134D01*
X539181D01*
X531181Y6161102D02*
Y6201102D01*
X571181D01*
Y6161102D01*
X531181D01*
X539181Y6169102D02*
Y6193102D01*
X563181D01*
Y6169102D01*
X539181D01*
X531181Y5998110D02*
Y6038110D01*
X571181D01*
Y5998110D01*
X531181D01*
X539181Y6006110D02*
Y6030110D01*
X563181D01*
Y6006110D01*
X539181D01*
X531181Y5672126D02*
Y5712126D01*
X571181D01*
Y5672126D01*
X531181D01*
X539181Y5680126D02*
Y5704126D01*
X563181D01*
Y5680126D01*
X539181D01*
X531181Y5835118D02*
Y5875118D01*
X571181D01*
Y5835118D01*
X531181D01*
X539181Y5843118D02*
Y5867118D01*
X563181D01*
Y5843118D01*
X539181D01*
X531181Y6487087D02*
Y6527087D01*
X571181D01*
Y6487087D01*
X531181D01*
X539181Y6495087D02*
Y6519087D01*
X563181D01*
Y6495087D01*
X539181D01*
X531181Y6324095D02*
Y6364095D01*
X571181D01*
Y6324095D01*
X531181D01*
X539181Y6332095D02*
Y6356095D01*
X563181D01*
Y6332095D01*
X539181D01*
X531181Y6650079D02*
Y6690079D01*
X571181D01*
Y6650079D01*
X531181D01*
X539181Y6658079D02*
Y6682079D01*
X563181D01*
Y6658079D01*
X539181D01*
X531181Y6813071D02*
Y6853071D01*
X571181D01*
Y6813071D01*
X531181D01*
X539181Y6821071D02*
Y6845071D01*
X563181D01*
Y6821071D01*
X539181D01*
X694173Y6813071D02*
Y6853071D01*
X734173D01*
Y6813071D01*
X694173D01*
X702173Y6821071D02*
Y6845071D01*
X726173D01*
Y6821071D01*
X702173D01*
X694173Y6650079D02*
Y6690079D01*
X734173D01*
Y6650079D01*
X694173D01*
X702173Y6658079D02*
Y6682079D01*
X726173D01*
Y6658079D01*
X702173D01*
X694173Y6324095D02*
Y6364095D01*
X734173D01*
Y6324095D01*
X694173D01*
X702173Y6332095D02*
Y6356095D01*
X726173D01*
Y6332095D01*
X702173D01*
X694173Y6487087D02*
Y6527087D01*
X734173D01*
Y6487087D01*
X694173D01*
X702173Y6495087D02*
Y6519087D01*
X726173D01*
Y6495087D01*
X702173D01*
X694173Y5835118D02*
Y5875118D01*
X734173D01*
Y5835118D01*
X694173D01*
X702173Y5843118D02*
Y5867118D01*
X726173D01*
Y5843118D01*
X702173D01*
X694173Y5672126D02*
Y5712126D01*
X734173D01*
Y5672126D01*
X694173D01*
X702173Y5680126D02*
Y5704126D01*
X726173D01*
Y5680126D01*
X702173D01*
X694173Y5998110D02*
Y6038110D01*
X734173D01*
Y5998110D01*
X694173D01*
X702173Y6006110D02*
Y6030110D01*
X726173D01*
Y6006110D01*
X702173D01*
X694173Y6161102D02*
Y6201102D01*
X734173D01*
Y6161102D01*
X694173D01*
X702173Y6169102D02*
Y6193102D01*
X726173D01*
Y6169102D01*
X702173D01*
X694173Y5509134D02*
Y5549134D01*
X734173D01*
Y5509134D01*
X694173D01*
X702173Y5517134D02*
Y5541134D01*
X726173D01*
Y5517134D01*
X702173D01*
X694173Y5346142D02*
Y5386142D01*
X734173D01*
Y5346142D01*
X694173D01*
X702173Y5354142D02*
Y5378142D01*
X726173D01*
Y5354142D01*
X702173D01*
X11239843Y5785118D02*
Y5825118D01*
X11279843D01*
Y5785118D01*
X11239843D01*
X11247843Y5793118D02*
Y5817118D01*
X11271843D01*
Y5793118D01*
X11247843D01*
X11239843Y5622126D02*
Y5662126D01*
X11279843D01*
Y5622126D01*
X11239843D01*
X11247843Y5630126D02*
Y5654126D01*
X11271843D01*
Y5630126D01*
X11247843D01*
X11239843Y4970158D02*
Y5010158D01*
X11279843D01*
Y4970158D01*
X11239843D01*
X11247843Y4978158D02*
Y5002158D01*
X11271843D01*
Y4978158D01*
X11247843D01*
X11239843Y5133150D02*
Y5173150D01*
X11279843D01*
Y5133150D01*
X11239843D01*
X11247843Y5141150D02*
Y5165150D01*
X11271843D01*
Y5141150D01*
X11247843D01*
X11239843Y5459134D02*
Y5499134D01*
X11279843D01*
Y5459134D01*
X11239843D01*
X11247843Y5467134D02*
Y5491134D01*
X11271843D01*
Y5467134D01*
X11247843D01*
X11239843Y5296142D02*
Y5336142D01*
X11279843D01*
Y5296142D01*
X11239843D01*
X11247843Y5304142D02*
Y5328142D01*
X11271843D01*
Y5304142D01*
X11247843D01*
X11239843Y4644173D02*
Y4684173D01*
X11279843D01*
Y4644173D01*
X11239843D01*
X11247843Y4652173D02*
Y4676173D01*
X11271843D01*
Y4652173D01*
X11247843D01*
X11239843Y4807166D02*
Y4847166D01*
X11279843D01*
Y4807166D01*
X11239843D01*
X11247843Y4815166D02*
Y4839166D01*
X11271843D01*
Y4815166D01*
X11247843D01*
X11239843Y4481181D02*
Y4521181D01*
X11279843D01*
Y4481181D01*
X11239843D01*
X11247843Y4489181D02*
Y4513181D01*
X11271843D01*
Y4489181D01*
X11247843D01*
X11239843Y4318189D02*
Y4358189D01*
X11279843D01*
Y4318189D01*
X11239843D01*
X11247843Y4326189D02*
Y4350189D01*
X11271843D01*
Y4326189D01*
X11247843D01*
X11076850Y4318189D02*
Y4358189D01*
X11116850D01*
Y4318189D01*
X11076850D01*
X11084850Y4326189D02*
Y4350189D01*
X11108850D01*
Y4326189D01*
X11084850D01*
X11076850Y4481181D02*
Y4521181D01*
X11116850D01*
Y4481181D01*
X11076850D01*
X11084850Y4489181D02*
Y4513181D01*
X11108850D01*
Y4489181D01*
X11084850D01*
X11076850Y4807166D02*
Y4847166D01*
X11116850D01*
Y4807166D01*
X11076850D01*
X11084850Y4815166D02*
Y4839166D01*
X11108850D01*
Y4815166D01*
X11084850D01*
X11076850Y4644173D02*
Y4684173D01*
X11116850D01*
Y4644173D01*
X11076850D01*
X11084850Y4652173D02*
Y4676173D01*
X11108850D01*
Y4652173D01*
X11084850D01*
X11076850Y5296142D02*
Y5336142D01*
X11116850D01*
Y5296142D01*
X11076850D01*
X11084850Y5304142D02*
Y5328142D01*
X11108850D01*
Y5304142D01*
X11084850D01*
X11076850Y5459134D02*
Y5499134D01*
X11116850D01*
Y5459134D01*
X11076850D01*
X11084850Y5467134D02*
Y5491134D01*
X11108850D01*
Y5467134D01*
X11084850D01*
X11076850Y5133150D02*
Y5173150D01*
X11116850D01*
Y5133150D01*
X11076850D01*
X11084850Y5141150D02*
Y5165150D01*
X11108850D01*
Y5141150D01*
X11084850D01*
X11076850Y4970158D02*
Y5010158D01*
X11116850D01*
Y4970158D01*
X11076850D01*
X11084850Y4978158D02*
Y5002158D01*
X11108850D01*
Y4978158D01*
X11084850D01*
X11076850Y5622126D02*
Y5662126D01*
X11116850D01*
Y5622126D01*
X11076850D01*
X11084850Y5630126D02*
Y5654126D01*
X11108850D01*
Y5630126D01*
X11084850D01*
X11076850Y5785118D02*
Y5825118D01*
X11116850D01*
Y5785118D01*
X11076850D01*
X11084850Y5793118D02*
Y5817118D01*
X11108850D01*
Y5793118D01*
X11084850D01*
X7327638Y565039D02*
Y605039D01*
X7367638D01*
Y565039D01*
X7327638D01*
X7335638Y573039D02*
Y597039D01*
X7359638D01*
Y573039D01*
X7335638D01*
X7164646Y565039D02*
Y605039D01*
X7204646D01*
Y565039D01*
X7164646D01*
X7172646Y573039D02*
Y597039D01*
X7196646D01*
Y573039D01*
X7172646D01*
X6512677Y565039D02*
Y605039D01*
X6552677D01*
Y565039D01*
X6512677D01*
X6520677Y573039D02*
Y597039D01*
X6544677D01*
Y573039D01*
X6520677D01*
X6675669Y565039D02*
Y605039D01*
X6715669D01*
Y565039D01*
X6675669D01*
X6683669Y573039D02*
Y597039D01*
X6707669D01*
Y573039D01*
X6683669D01*
X7001654Y565039D02*
Y605039D01*
X7041654D01*
Y565039D01*
X7001654D01*
X7009654Y573039D02*
Y597039D01*
X7033654D01*
Y573039D01*
X7009654D01*
X6838661Y565039D02*
Y605039D01*
X6878661D01*
Y565039D01*
X6838661D01*
X6846661Y573039D02*
Y597039D01*
X6870661D01*
Y573039D01*
X6846661D01*
X6186693Y565039D02*
Y605039D01*
X6226693D01*
Y565039D01*
X6186693D01*
X6194693Y573039D02*
Y597039D01*
X6218693D01*
Y573039D01*
X6194693D01*
X6349685Y565039D02*
Y605039D01*
X6389685D01*
Y565039D01*
X6349685D01*
X6357685Y573039D02*
Y597039D01*
X6381685D01*
Y573039D01*
X6357685D01*
X6023701Y565039D02*
Y605039D01*
X6063701D01*
Y565039D01*
X6023701D01*
X6031701Y573039D02*
Y597039D01*
X6055701D01*
Y573039D01*
X6031701D01*
X5860709Y565039D02*
Y605039D01*
X5900709D01*
Y565039D01*
X5860709D01*
X5868709Y573039D02*
Y597039D01*
X5892709D01*
Y573039D01*
X5868709D01*
X5860709Y728032D02*
Y768032D01*
X5900709D01*
Y728032D01*
X5860709D01*
X5868709Y736032D02*
Y760032D01*
X5892709D01*
Y736032D01*
X5868709D01*
X6023701Y728032D02*
Y768032D01*
X6063701D01*
Y728032D01*
X6023701D01*
X6031701Y736032D02*
Y760032D01*
X6055701D01*
Y736032D01*
X6031701D01*
X6349685Y728032D02*
Y768032D01*
X6389685D01*
Y728032D01*
X6349685D01*
X6357685Y736032D02*
Y760032D01*
X6381685D01*
Y736032D01*
X6357685D01*
X6186693Y728032D02*
Y768032D01*
X6226693D01*
Y728032D01*
X6186693D01*
X6194693Y736032D02*
Y760032D01*
X6218693D01*
Y736032D01*
X6194693D01*
X6838661Y728032D02*
Y768032D01*
X6878661D01*
Y728032D01*
X6838661D01*
X6846661Y736032D02*
Y760032D01*
X6870661D01*
Y736032D01*
X6846661D01*
X7001654Y728032D02*
Y768032D01*
X7041654D01*
Y728032D01*
X7001654D01*
X7009654Y736032D02*
Y760032D01*
X7033654D01*
Y736032D01*
X7009654D01*
X6675669Y728032D02*
Y768032D01*
X6715669D01*
Y728032D01*
X6675669D01*
X6683669Y736032D02*
Y760032D01*
X6707669D01*
Y736032D01*
X6683669D01*
X6512677Y728032D02*
Y768032D01*
X6552677D01*
Y728032D01*
X6512677D01*
X6520677Y736032D02*
Y760032D01*
X6544677D01*
Y736032D01*
X6520677D01*
X7164646Y728032D02*
Y768032D01*
X7204646D01*
Y728032D01*
X7164646D01*
X7172646Y736032D02*
Y760032D01*
X7196646D01*
Y736032D01*
X7172646D01*
X7327638Y728032D02*
Y768032D01*
X7367638D01*
Y728032D01*
X7327638D01*
X7335638Y736032D02*
Y760032D01*
X7359638D01*
Y736032D01*
X7335638D01*
X10451654Y570551D02*
Y610551D01*
X10491654D01*
Y570551D01*
X10451654D01*
X10459654Y578551D02*
Y602551D01*
X10483654D01*
Y578551D01*
X10459654D01*
X10288661Y570551D02*
Y610551D01*
X10328661D01*
Y570551D01*
X10288661D01*
X10296661Y578551D02*
Y602551D01*
X10320661D01*
Y578551D01*
X10296661D01*
X9636693Y570551D02*
Y610551D01*
X9676693D01*
Y570551D01*
X9636693D01*
X9644693Y578551D02*
Y602551D01*
X9668693D01*
Y578551D01*
X9644693D01*
X9799685Y570551D02*
Y610551D01*
X9839685D01*
Y570551D01*
X9799685D01*
X9807685Y578551D02*
Y602551D01*
X9831685D01*
Y578551D01*
X9807685D01*
X10125669Y570551D02*
Y610551D01*
X10165669D01*
Y570551D01*
X10125669D01*
X10133669Y578551D02*
Y602551D01*
X10157669D01*
Y578551D01*
X10133669D01*
X9962677Y570551D02*
Y610551D01*
X10002677D01*
Y570551D01*
X9962677D01*
X9970677Y578551D02*
Y602551D01*
X9994677D01*
Y578551D01*
X9970677D01*
X9310709Y570551D02*
Y610551D01*
X9350709D01*
Y570551D01*
X9310709D01*
X9318709Y578551D02*
Y602551D01*
X9342709D01*
Y578551D01*
X9318709D01*
X9473701Y570551D02*
Y610551D01*
X9513701D01*
Y570551D01*
X9473701D01*
X9481701Y578551D02*
Y602551D01*
X9505701D01*
Y578551D01*
X9481701D01*
X9147717Y570551D02*
Y610551D01*
X9187717D01*
Y570551D01*
X9147717D01*
X9155717Y578551D02*
Y602551D01*
X9179717D01*
Y578551D01*
X9155717D01*
X8984724Y570551D02*
Y610551D01*
X9024724D01*
Y570551D01*
X8984724D01*
X8992724Y578551D02*
Y602551D01*
X9016724D01*
Y578551D01*
X8992724D01*
X8984724Y733543D02*
Y773543D01*
X9024724D01*
Y733543D01*
X8984724D01*
X8992724Y741543D02*
Y765543D01*
X9016724D01*
Y741543D01*
X8992724D01*
X9147717Y733543D02*
Y773543D01*
X9187717D01*
Y733543D01*
X9147717D01*
X9155717Y741543D02*
Y765543D01*
X9179717D01*
Y741543D01*
X9155717D01*
X9473701Y733543D02*
Y773543D01*
X9513701D01*
Y733543D01*
X9473701D01*
X9481701Y741543D02*
Y765543D01*
X9505701D01*
Y741543D01*
X9481701D01*
X9310709Y733543D02*
Y773543D01*
X9350709D01*
Y733543D01*
X9310709D01*
X9318709Y741543D02*
Y765543D01*
X9342709D01*
Y741543D01*
X9318709D01*
X9962677Y733543D02*
Y773543D01*
X10002677D01*
Y733543D01*
X9962677D01*
X9970677Y741543D02*
Y765543D01*
X9994677D01*
Y741543D01*
X9970677D01*
X10125669Y733543D02*
Y773543D01*
X10165669D01*
Y733543D01*
X10125669D01*
X10133669Y741543D02*
Y765543D01*
X10157669D01*
Y741543D01*
X10133669D01*
X9799685Y733543D02*
Y773543D01*
X9839685D01*
Y733543D01*
X9799685D01*
X9807685Y741543D02*
Y765543D01*
X9831685D01*
Y741543D01*
X9807685D01*
X9636693Y733543D02*
Y773543D01*
X9676693D01*
Y733543D01*
X9636693D01*
X9644693Y741543D02*
Y765543D01*
X9668693D01*
Y741543D01*
X9644693D01*
X10288661Y733543D02*
Y773543D01*
X10328661D01*
Y733543D01*
X10288661D01*
X10296661Y741543D02*
Y765543D01*
X10320661D01*
Y741543D01*
X10296661D01*
X10451654Y733543D02*
Y773543D01*
X10491654D01*
Y733543D01*
X10451654D01*
X10459654Y741543D02*
Y765543D01*
X10483654D01*
Y741543D01*
X10459654D01*
X3909449Y7645354D02*
X3889449Y7685354D01*
X3929449D01*
X3909449Y7645354D01*
Y7653354D02*
X3897449Y7677354D01*
X3921449D01*
X3909449Y7653354D01*
X4862205Y7645354D02*
X4842205Y7685354D01*
X4882205D01*
X4862205Y7645354D01*
Y7653354D02*
X4850205Y7677354D01*
X4874205D01*
X4862205Y7653354D01*
X7877165Y2932756D02*
X7857165Y2972756D01*
X7897165D01*
X7877165Y2932756D01*
X7777165D02*
X7757165Y2972756D01*
X7797165D01*
X7777165Y2932756D01*
X7677165D02*
X7657165Y2972756D01*
X7697165D01*
X7677165Y2932756D01*
X7877165Y2539055D02*
X7857165Y2579055D01*
X7897165D01*
X7877165Y2539055D01*
X7777165D02*
X7757165Y2579055D01*
X7797165D01*
X7777165Y2539055D01*
X7677165D02*
X7657165Y2579055D01*
X7697165D01*
X7677165Y2539055D01*
X7872366Y2135512D02*
X7852366Y2175512D01*
X7892366D01*
X7872366Y2135512D01*
X7772366D02*
X7752366Y2175512D01*
X7792366D01*
X7772366Y2135512D01*
X7672366D02*
X7652366Y2175512D01*
X7692366D01*
X7672366Y2135512D01*
X7877165Y1745354D02*
X7857165Y1785354D01*
X7897165D01*
X7877165Y1745354D01*
X7777165D02*
X7757165Y1785354D01*
X7797165D01*
X7777165Y1745354D01*
X7677165D02*
X7657165Y1785354D01*
X7697165D01*
X7677165Y1745354D01*
X7877165Y1351653D02*
X7857165Y1391653D01*
X7897165D01*
X7877165Y1351653D01*
X7777165D02*
X7757165Y1391653D01*
X7797165D01*
X7777165Y1351653D01*
X7677165D02*
X7657165Y1391653D01*
X7697165D01*
X7677165Y1351653D01*
X6300787Y2926456D02*
X6280787Y2966456D01*
X6320787D01*
X6300787Y2926456D01*
X6200787D02*
X6180787Y2966456D01*
X6220787D01*
X6200787Y2926456D01*
X6100787D02*
X6080787Y2966456D01*
X6120787D01*
X6100787Y2926456D01*
X6302362Y2539055D02*
X6282362Y2579055D01*
X6322362D01*
X6302362Y2539055D01*
X6202362D02*
X6182362Y2579055D01*
X6222362D01*
X6202362Y2539055D01*
X6102362D02*
X6082362Y2579055D01*
X6122362D01*
X6102362Y2539055D01*
X6302362Y2145354D02*
X6282362Y2185354D01*
X6322362D01*
X6302362Y2145354D01*
X6202362D02*
X6182362Y2185354D01*
X6222362D01*
X6202362Y2145354D01*
X6102362D02*
X6082362Y2185354D01*
X6122362D01*
X6102362Y2145354D01*
X6297562Y1751654D02*
X6277562Y1791654D01*
X6317562D01*
X6297562Y1751654D01*
X6197562D02*
X6177562Y1791654D01*
X6217562D01*
X6197562Y1751654D01*
X6097562D02*
X6077562Y1791654D01*
X6117562D01*
X6097562Y1751654D01*
X6302362Y1357953D02*
X6282362Y1397953D01*
X6322362D01*
X6302362Y1357953D01*
X6202362D02*
X6182362Y1397953D01*
X6222362D01*
X6202362Y1357953D01*
X6102362D02*
X6082362Y1397953D01*
X6122362D01*
X6102362Y1357953D01*
X11035039Y2926456D02*
X11015039Y2966456D01*
X11055039D01*
X11035039Y2926456D01*
X10935039D02*
X10915039Y2966456D01*
X10955039D01*
X10935039Y2926456D01*
X10835039D02*
X10815039Y2966456D01*
X10855039D01*
X10835039Y2926456D01*
X11035039Y2532756D02*
X11015039Y2572756D01*
X11055039D01*
X11035039Y2532756D01*
X10935039D02*
X10915039Y2572756D01*
X10955039D01*
X10935039Y2532756D01*
X10835039D02*
X10815039Y2572756D01*
X10855039D01*
X10835039Y2532756D01*
X11035039Y2139055D02*
X11015039Y2179055D01*
X11055039D01*
X11035039Y2139055D01*
X10935039D02*
X10915039Y2179055D01*
X10955039D01*
X10935039Y2139055D01*
X10835039D02*
X10815039Y2179055D01*
X10855039D01*
X10835039Y2139055D01*
X11035039Y1745354D02*
X11015039Y1785354D01*
X11055039D01*
X11035039Y1745354D01*
X10935039D02*
X10915039Y1785354D01*
X10955039D01*
X10935039Y1745354D01*
X10835039D02*
X10815039Y1785354D01*
X10855039D01*
X10835039Y1745354D01*
X11035039Y1351653D02*
X11015039Y1391653D01*
X11055039D01*
X11035039Y1351653D01*
X10935039D02*
X10915039Y1391653D01*
X10955039D01*
X10935039Y1351653D01*
X10835039D02*
X10815039Y1391653D01*
X10855039D01*
X10835039Y1351653D01*
X9451969Y2926456D02*
X9431969Y2966456D01*
X9471969D01*
X9451969Y2926456D01*
X9351969D02*
X9331969Y2966456D01*
X9371969D01*
X9351969Y2926456D01*
X9251969D02*
X9231969Y2966456D01*
X9271969D01*
X9251969Y2926456D01*
X9451969Y2532756D02*
X9431969Y2572756D01*
X9471969D01*
X9451969Y2532756D01*
X9351969D02*
X9331969Y2572756D01*
X9371969D01*
X9351969Y2532756D01*
X9251969D02*
X9231969Y2572756D01*
X9271969D01*
X9251969Y2532756D01*
X9455118Y2139055D02*
X9435118Y2179055D01*
X9475118D01*
X9455118Y2139055D01*
X9355118D02*
X9335118Y2179055D01*
X9375118D01*
X9355118Y2139055D01*
X9255118D02*
X9235118Y2179055D01*
X9275118D01*
X9255118Y2139055D01*
X9451969Y1745354D02*
X9431969Y1785354D01*
X9471969D01*
X9451969Y1745354D01*
X9351969D02*
X9331969Y1785354D01*
X9371969D01*
X9351969Y1745354D01*
X9251969D02*
X9231969Y1785354D01*
X9271969D01*
X9251969Y1745354D01*
X9451969Y1351653D02*
X9431969Y1391653D01*
X9471969D01*
X9451969Y1351653D01*
X9351969D02*
X9331969Y1391653D01*
X9371969D01*
X9351969Y1351653D01*
X9251969D02*
X9231969Y1391653D01*
X9271969D01*
X9251969Y1351653D01*
X8664567Y2926456D02*
X8644567Y2966456D01*
X8684567D01*
X8664567Y2926456D01*
X8564567D02*
X8544567Y2966456D01*
X8584567D01*
X8564567Y2926456D01*
X8464567D02*
X8444567Y2966456D01*
X8484567D01*
X8464567Y2926456D01*
X787402Y2232363D02*
X767402Y2272363D01*
X807402D01*
X787402Y2232363D01*
Y2132363D02*
X767402Y2172363D01*
X807402D01*
X787402Y2132363D01*
Y2032363D02*
X767402Y2072363D01*
X807402D01*
X787402Y2032363D01*
X3092126Y2913071D02*
X3072126Y2953071D01*
X3112126D01*
X3092126Y2913071D01*
X2992126D02*
X2972126Y2953071D01*
X3012126D01*
X2992126Y2913071D01*
X2892126D02*
X2872126Y2953071D01*
X2912126D01*
X2892126Y2913071D01*
X3092126Y2516220D02*
X3072126Y2556220D01*
X3112126D01*
X3092126Y2516220D01*
X2992126D02*
X2972126Y2556220D01*
X3012126D01*
X2992126Y2516220D01*
X2892126D02*
X2872126Y2556220D01*
X2912126D01*
X2892126Y2516220D01*
X3092126Y2112677D02*
X3072126Y2152677D01*
X3112126D01*
X3092126Y2112677D01*
X2992126D02*
X2972126Y2152677D01*
X3012126D01*
X2992126Y2112677D01*
X2892126D02*
X2872126Y2152677D01*
X2912126D01*
X2892126Y2112677D01*
X3092126Y1728819D02*
X3072126Y1768819D01*
X3112126D01*
X3092126Y1728819D01*
X2992126D02*
X2972126Y1768819D01*
X3012126D01*
X2992126Y1728819D01*
X2892126D02*
X2872126Y1768819D01*
X2912126D01*
X2892126Y1728819D01*
X3092126Y1335118D02*
X3072126Y1375118D01*
X3112126D01*
X3092126Y1335118D01*
X2992126D02*
X2972126Y1375118D01*
X3012126D01*
X2992126Y1335118D01*
X2892126D02*
X2872126Y1375118D01*
X2912126D01*
X2892126Y1335118D01*
X2304724Y2913071D02*
X2284724Y2953071D01*
X2324724D01*
X2304724Y2913071D01*
X2204724D02*
X2184724Y2953071D01*
X2224724D01*
X2204724Y2913071D01*
X2104724D02*
X2084724Y2953071D01*
X2124724D01*
X2104724Y2913071D01*
X2304724Y2516220D02*
X2284724Y2556220D01*
X2324724D01*
X2304724Y2516220D01*
X2204724D02*
X2184724Y2556220D01*
X2224724D01*
X2204724Y2516220D01*
X2104724D02*
X2084724Y2556220D01*
X2124724D01*
X2104724Y2516220D01*
X2304724Y2112677D02*
X2284724Y2152677D01*
X2324724D01*
X2304724Y2112677D01*
X2204724D02*
X2184724Y2152677D01*
X2224724D01*
X2204724Y2112677D01*
X2104724D02*
X2084724Y2152677D01*
X2124724D01*
X2104724Y2112677D01*
X2313469Y1728819D02*
X2293469Y1768819D01*
X2333469D01*
X2313469Y1728819D01*
X2213469D02*
X2193469Y1768819D01*
X2233469D01*
X2213469Y1728819D01*
X2113469D02*
X2093469Y1768819D01*
X2133469D01*
X2113469Y1728819D01*
X2304724Y1335118D02*
X2284724Y1375118D01*
X2324724D01*
X2304724Y1335118D01*
X2204724D02*
X2184724Y1375118D01*
X2224724D01*
X2204724Y1335118D01*
X2104724D02*
X2084724Y1375118D01*
X2124724D01*
X2104724Y1335118D01*
X11548819Y6644567D02*
X11558819Y6654567D01*
X11568819D01*
X11558819Y6664567D01*
X11568819Y6674567D01*
X11558819D01*
X11548819Y6684567D01*
X11538819Y6674567D01*
X11528819D01*
X11538819Y6664567D01*
X11528819Y6654567D01*
X11538819D01*
X11548819Y6644567D01*
Y6652567D02*
X11554819Y6658567D01*
X11560819D01*
X11554819Y6664567D01*
X11560819Y6670567D01*
X11554819D01*
X11548819Y6676567D01*
X11542819Y6670567D01*
X11536819D01*
X11542819Y6664567D01*
X11536819Y6658567D01*
X11542819D01*
X11548819Y6652567D01*
X11239843Y6970551D02*
X11249843Y6990551D01*
X11239843Y7010551D01*
X11259843Y7000551D01*
X11279843Y7010551D01*
X11269843Y6990551D01*
X11279843Y6970551D01*
X11259843Y6980551D01*
X11239843Y6970551D01*
X11247843Y6978551D02*
X11253843Y6990551D01*
X11247843Y7002551D01*
X11259843Y6996551D01*
X11271843Y7002551D01*
X11265843Y6990551D01*
X11271843Y6978551D01*
X11259843Y6984551D01*
X11247843Y6978551D01*
X11239843Y6807559D02*
X11249843Y6827559D01*
X11239843Y6847559D01*
X11259843Y6837559D01*
X11279843Y6847559D01*
X11269843Y6827559D01*
X11279843Y6807559D01*
X11259843Y6817559D01*
X11239843Y6807559D01*
X11247843Y6815559D02*
X11253843Y6827559D01*
X11247843Y6839559D01*
X11259843Y6833559D01*
X11271843Y6839559D01*
X11265843Y6827559D01*
X11271843Y6815559D01*
X11259843Y6821559D01*
X11247843Y6815559D01*
X11239843Y6644567D02*
X11249843Y6664567D01*
X11239843Y6684567D01*
X11259843Y6674567D01*
X11279843Y6684567D01*
X11269843Y6664567D01*
X11279843Y6644567D01*
X11259843Y6654567D01*
X11239843Y6644567D01*
X11247843Y6652567D02*
X11253843Y6664567D01*
X11247843Y6676567D01*
X11259843Y6670567D01*
X11271843Y6676567D01*
X11265843Y6664567D01*
X11271843Y6652567D01*
X11259843Y6658567D01*
X11247843Y6652567D01*
X11239843Y6481575D02*
X11249843Y6501575D01*
X11239843Y6521575D01*
X11259843Y6511575D01*
X11279843Y6521575D01*
X11269843Y6501575D01*
X11279843Y6481575D01*
X11259843Y6491575D01*
X11239843Y6481575D01*
X11247843Y6489575D02*
X11253843Y6501575D01*
X11247843Y6513575D01*
X11259843Y6507575D01*
X11271843Y6513575D01*
X11265843Y6501575D01*
X11271843Y6489575D01*
X11259843Y6495575D01*
X11247843Y6489575D01*
X11239843Y6318583D02*
X11249843Y6338583D01*
X11239843Y6358583D01*
X11259843Y6348583D01*
X11279843Y6358583D01*
X11269843Y6338583D01*
X11279843Y6318583D01*
X11259843Y6328583D01*
X11239843Y6318583D01*
X11247843Y6326583D02*
X11253843Y6338583D01*
X11247843Y6350583D01*
X11259843Y6344583D01*
X11271843Y6350583D01*
X11265843Y6338583D01*
X11271843Y6326583D01*
X11259843Y6332583D01*
X11247843Y6326583D01*
X11076850Y6318583D02*
X11086850Y6338583D01*
X11076850Y6358583D01*
X11096850Y6348583D01*
X11116850Y6358583D01*
X11106850Y6338583D01*
X11116850Y6318583D01*
X11096850Y6328583D01*
X11076850Y6318583D01*
X11084850Y6326583D02*
X11090850Y6338583D01*
X11084850Y6350583D01*
X11096850Y6344583D01*
X11108850Y6350583D01*
X11102850Y6338583D01*
X11108850Y6326583D01*
X11096850Y6332583D01*
X11084850Y6326583D01*
X11076850Y6970551D02*
X11086850Y6990551D01*
X11076850Y7010551D01*
X11096850Y7000551D01*
X11116850Y7010551D01*
X11106850Y6990551D01*
X11116850Y6970551D01*
X11096850Y6980551D01*
X11076850Y6970551D01*
X11084850Y6978551D02*
X11090850Y6990551D01*
X11084850Y7002551D01*
X11096850Y6996551D01*
X11108850Y7002551D01*
X11102850Y6990551D01*
X11108850Y6978551D01*
X11096850Y6984551D01*
X11084850Y6978551D01*
X11076850Y6807559D02*
X11086850Y6827559D01*
X11076850Y6847559D01*
X11096850Y6837559D01*
X11116850Y6847559D01*
X11106850Y6827559D01*
X11116850Y6807559D01*
X11096850Y6817559D01*
X11076850Y6807559D01*
X11084850Y6815559D02*
X11090850Y6827559D01*
X11084850Y6839559D01*
X11096850Y6833559D01*
X11108850Y6839559D01*
X11102850Y6827559D01*
X11108850Y6815559D01*
X11096850Y6821559D01*
X11084850Y6815559D01*
X11076850Y6644567D02*
X11086850Y6664567D01*
X11076850Y6684567D01*
X11096850Y6674567D01*
X11116850Y6684567D01*
X11106850Y6664567D01*
X11116850Y6644567D01*
X11096850Y6654567D01*
X11076850Y6644567D01*
X11084850Y6652567D02*
X11090850Y6664567D01*
X11084850Y6676567D01*
X11096850Y6670567D01*
X11108850Y6676567D01*
X11102850Y6664567D01*
X11108850Y6652567D01*
X11096850Y6658567D01*
X11084850Y6652567D01*
X11076850Y6481575D02*
X11086850Y6501575D01*
X11076850Y6521575D01*
X11096850Y6511575D01*
X11116850Y6521575D01*
X11106850Y6501575D01*
X11116850Y6481575D01*
X11096850Y6491575D01*
X11076850Y6481575D01*
X11084850Y6489575D02*
X11090850Y6501575D01*
X11084850Y6513575D01*
X11096850Y6507575D01*
X11108850Y6513575D01*
X11102850Y6501575D01*
X11108850Y6489575D01*
X11096850Y6495575D01*
X11084850Y6489575D01*
X4121340Y565039D02*
Y605039D01*
X4161340D01*
Y565039D01*
X4121340D01*
X4129340Y573039D02*
Y597039D01*
X4153340D01*
Y573039D01*
X4129340D01*
X3958348Y565039D02*
Y605039D01*
X3998348D01*
Y565039D01*
X3958348D01*
X3966348Y573039D02*
Y597039D01*
X3990348D01*
Y573039D01*
X3966348D01*
X3306379Y565039D02*
Y605039D01*
X3346379D01*
Y565039D01*
X3306379D01*
X3314379Y573039D02*
Y597039D01*
X3338379D01*
Y573039D01*
X3314379D01*
X3469371Y565039D02*
Y605039D01*
X3509371D01*
Y565039D01*
X3469371D01*
X3477371Y573039D02*
Y597039D01*
X3501371D01*
Y573039D01*
X3477371D01*
X3795356Y565039D02*
Y605039D01*
X3835356D01*
Y565039D01*
X3795356D01*
X3803356Y573039D02*
Y597039D01*
X3827356D01*
Y573039D01*
X3803356D01*
X3632363Y565039D02*
Y605039D01*
X3672363D01*
Y565039D01*
X3632363D01*
X3640363Y573039D02*
Y597039D01*
X3664363D01*
Y573039D01*
X3640363D01*
X2980395Y565039D02*
Y605039D01*
X3020395D01*
Y565039D01*
X2980395D01*
X2988395Y573039D02*
Y597039D01*
X3012395D01*
Y573039D01*
X2988395D01*
X3143387Y565039D02*
Y605039D01*
X3183387D01*
Y565039D01*
X3143387D01*
X3151387Y573039D02*
Y597039D01*
X3175387D01*
Y573039D01*
X3151387D01*
X2817403Y565039D02*
Y605039D01*
X2857403D01*
Y565039D01*
X2817403D01*
X2825403Y573039D02*
Y597039D01*
X2849403D01*
Y573039D01*
X2825403D01*
X2654411Y565039D02*
Y605039D01*
X2694411D01*
Y565039D01*
X2654411D01*
X2662411Y573039D02*
Y597039D01*
X2686411D01*
Y573039D01*
X2662411D01*
X2654411Y728032D02*
Y768032D01*
X2694411D01*
Y728032D01*
X2654411D01*
X2662411Y736032D02*
Y760032D01*
X2686411D01*
Y736032D01*
X2662411D01*
X2817403Y728032D02*
Y768032D01*
X2857403D01*
Y728032D01*
X2817403D01*
X2825403Y736032D02*
Y760032D01*
X2849403D01*
Y736032D01*
X2825403D01*
X3143387Y728032D02*
Y768032D01*
X3183387D01*
Y728032D01*
X3143387D01*
X3151387Y736032D02*
Y760032D01*
X3175387D01*
Y736032D01*
X3151387D01*
X2980395Y728032D02*
Y768032D01*
X3020395D01*
Y728032D01*
X2980395D01*
X2988395Y736032D02*
Y760032D01*
X3012395D01*
Y736032D01*
X2988395D01*
X3632363Y728032D02*
Y768032D01*
X3672363D01*
Y728032D01*
X3632363D01*
X3640363Y736032D02*
Y760032D01*
X3664363D01*
Y736032D01*
X3640363D01*
X3795356Y728032D02*
Y768032D01*
X3835356D01*
Y728032D01*
X3795356D01*
X3803356Y736032D02*
Y760032D01*
X3827356D01*
Y736032D01*
X3803356D01*
X3469371Y728032D02*
Y768032D01*
X3509371D01*
Y728032D01*
X3469371D01*
X3477371Y736032D02*
Y760032D01*
X3501371D01*
Y736032D01*
X3477371D01*
X3306379Y728032D02*
Y768032D01*
X3346379D01*
Y728032D01*
X3306379D01*
X3314379Y736032D02*
Y760032D01*
X3338379D01*
Y736032D01*
X3314379D01*
X3958348Y728032D02*
Y768032D01*
X3998348D01*
Y728032D01*
X3958348D01*
X3966348Y736032D02*
Y760032D01*
X3990348D01*
Y736032D01*
X3966348D01*
X4121340Y728032D02*
Y768032D01*
X4161340D01*
Y728032D01*
X4121340D01*
X4129340Y736032D02*
Y760032D01*
X4153340D01*
Y736032D01*
X4129340D01*
X1194961Y710693D02*
X1204961Y730693D01*
X1194961Y750693D01*
X1214961Y740693D01*
X1234961Y750693D01*
X1224961Y730693D01*
X1234961Y710693D01*
X1214961Y720693D01*
X1194961Y710693D01*
X1202961Y718693D02*
X1208961Y730693D01*
X1202961Y742693D01*
X1214961Y736693D01*
X1226961Y742693D01*
X1220961Y730693D01*
X1226961Y718693D01*
X1214961Y724693D01*
X1202961Y718693D01*
X1357953Y710693D02*
X1367953Y730693D01*
X1357953Y750693D01*
X1377953Y740693D01*
X1397953Y750693D01*
X1387953Y730693D01*
X1397953Y710693D01*
X1377953Y720693D01*
X1357953Y710693D01*
X1365953Y718693D02*
X1371953Y730693D01*
X1365953Y742693D01*
X1377953Y736693D01*
X1389953Y742693D01*
X1383953Y730693D01*
X1389953Y718693D01*
X1377953Y724693D01*
X1365953Y718693D01*
X1357953Y547701D02*
X1367953Y567701D01*
X1357953Y587701D01*
X1377953Y577701D01*
X1397953Y587701D01*
X1387953Y567701D01*
X1397953Y547701D01*
X1377953Y557701D01*
X1357953Y547701D01*
X1365953Y555701D02*
X1371953Y567701D01*
X1365953Y579701D01*
X1377953Y573701D01*
X1389953Y579701D01*
X1383953Y567701D01*
X1389953Y555701D01*
X1377953Y561701D01*
X1365953Y555701D01*
X1194961Y547701D02*
X1204961Y567701D01*
X1194961Y587701D01*
X1214961Y577701D01*
X1234961Y587701D01*
X1224961Y567701D01*
X1234961Y547701D01*
X1214961Y557701D01*
X1194961Y547701D01*
X1202961Y555701D02*
X1208961Y567701D01*
X1202961Y579701D01*
X1214961Y573701D01*
X1226961Y579701D01*
X1220961Y567701D01*
X1226961Y555701D01*
X1214961Y561701D01*
X1202961Y555701D01*
X1298425Y258724D02*
X1308425Y268724D01*
X1318425D01*
X1308425Y278724D01*
X1318425Y288724D01*
X1308425D01*
X1298425Y298724D01*
X1288425Y288724D01*
X1278425D01*
X1288425Y278724D01*
X1278425Y268724D01*
X1288425D01*
X1298425Y258724D01*
Y266724D02*
X1304425Y272724D01*
X1310425D01*
X1304425Y278724D01*
X1310425Y284724D01*
X1304425D01*
X1298425Y290724D01*
X1292425Y284724D01*
X1286425D01*
X1292425Y278724D01*
X1286425Y272724D01*
X1292425D01*
X1298425Y266724D01*
X2800670Y7609921D02*
Y7649921D01*
X2840670D01*
Y7609921D01*
X2800670D01*
X3200670Y7709921D02*
Y7749921D01*
X3240670D01*
Y7709921D01*
X3200670D01*
Y7609921D02*
Y7649921D01*
X3240670D01*
Y7609921D01*
X3200670D01*
X3100670Y7709921D02*
Y7749921D01*
X3140670D01*
Y7709921D01*
X3100670D01*
Y7609921D02*
Y7649921D01*
X3140670D01*
Y7609921D01*
X3100670D01*
X3000670Y7709921D02*
Y7749921D01*
X3040670D01*
Y7709921D01*
X3000670D01*
Y7609921D02*
Y7649921D01*
X3040670D01*
Y7609921D01*
X3000670D01*
X2900670Y7709921D02*
Y7749921D01*
X2940670D01*
Y7709921D01*
X2900670D01*
Y7609921D02*
Y7649921D01*
X2940670D01*
Y7609921D01*
X2900670D01*
X2800670Y7709921D02*
Y7749921D01*
X2840670D01*
Y7709921D01*
X2800670D01*
X2500669Y7709921D02*
Y7749921D01*
X2540669D01*
Y7709921D01*
X2500669D01*
X2400669Y7709921D02*
Y7749921D01*
X2440669D01*
Y7709921D01*
X2400669D01*
X2400669Y7609922D02*
Y7649922D01*
X2440669D01*
Y7609922D01*
X2400669D01*
X2500669Y7609921D02*
Y7649921D01*
X2540669D01*
Y7609921D01*
X2500669D01*
X2600670Y7609922D02*
Y7649922D01*
X2640670D01*
Y7609922D01*
X2600670D01*
X2300670Y7609921D02*
Y7649921D01*
X2340670D01*
Y7609921D01*
X2300670D01*
X2700669Y7709922D02*
Y7749922D01*
X2740669D01*
Y7709922D01*
X2700669D01*
X2700670Y7609922D02*
Y7649922D01*
X2740670D01*
Y7609922D01*
X2700670D01*
X2300670Y7709922D02*
Y7749922D01*
X2340670D01*
Y7709922D01*
X2300670D01*
X2600670Y7709922D02*
Y7749922D01*
X2640670D01*
Y7709922D01*
X2600670D01*
X10192014Y7401260D02*
Y7441260D01*
X10232014D01*
Y7401260D01*
X10192014D01*
Y7301260D02*
Y7341260D01*
X10232014D01*
Y7301260D01*
X10192014D01*
X9923314Y7401260D02*
Y7441260D01*
X9963314D01*
Y7401260D01*
X9923314D01*
Y7301260D02*
Y7341260D01*
X9963314D01*
Y7301260D01*
X9923314D01*
X9647723Y7401260D02*
Y7441260D01*
X9687723D01*
Y7401260D01*
X9647723D01*
Y7301260D02*
Y7341260D01*
X9687723D01*
Y7301260D01*
X9647723D01*
X9372132Y7401260D02*
Y7441260D01*
X9412132D01*
Y7401260D01*
X9372132D01*
Y7301260D02*
Y7341260D01*
X9412132D01*
Y7301260D01*
X9372132D01*
X373701Y393701D02*
X393701Y413701D01*
X413701Y393701D01*
X393701Y373701D01*
X373701Y393701D01*
X9875827Y5187835D02*
Y5177835D01*
X9895827D01*
Y5187835D01*
X9905827D01*
Y5207835D01*
X9895827D01*
Y5217835D01*
X9875827D01*
Y5207835D01*
X9865827D01*
Y5187835D01*
X9875827D01*
X9879827Y5191835D02*
Y5185835D01*
X9891827D01*
Y5191835D01*
X9897827D01*
Y5203835D01*
X9891827D01*
Y5209835D01*
X9879827D01*
Y5203835D01*
X9873827D01*
Y5191835D01*
X9879827D01*
X9931929Y5230158D02*
Y5220158D01*
X9951929D01*
Y5230158D01*
X9961929D01*
Y5250158D01*
X9951929D01*
Y5260158D01*
X9931929D01*
Y5250158D01*
X9921929D01*
Y5230158D01*
X9931929D01*
X9935929Y5234158D02*
Y5228158D01*
X9947929D01*
Y5234158D01*
X9953929D01*
Y5246158D01*
X9947929D01*
Y5252158D01*
X9935929D01*
Y5246158D01*
X9929929D01*
Y5234158D01*
X9935929D01*
X9958504Y5252096D02*
Y5242096D01*
X9978504D01*
Y5252096D01*
X9988504D01*
Y5272096D01*
X9978504D01*
Y5282096D01*
X9958504D01*
Y5272096D01*
X9948504D01*
Y5252096D01*
X9958504D01*
X9962504Y5256096D02*
Y5250096D01*
X9974504D01*
Y5256096D01*
X9980504D01*
Y5268096D01*
X9974504D01*
Y5274096D01*
X9962504D01*
Y5268096D01*
X9956504D01*
Y5256096D01*
X9962504D01*
X3911260Y6335867D02*
Y6325867D01*
X3931260D01*
Y6335867D01*
X3941260D01*
Y6355867D01*
X3931260D01*
Y6365867D01*
X3911260D01*
Y6355867D01*
X3901260D01*
Y6335867D01*
X3911260D01*
X3915260Y6339867D02*
Y6333867D01*
X3927260D01*
Y6339867D01*
X3933260D01*
Y6351867D01*
X3927260D01*
Y6357867D01*
X3915260D01*
Y6351867D01*
X3909260D01*
Y6339867D01*
X3915260D01*
X3649449Y6535276D02*
Y6525276D01*
X3669449D01*
Y6535276D01*
X3679449D01*
Y6555276D01*
X3669449D01*
Y6565276D01*
X3649449D01*
Y6555276D01*
X3639449D01*
Y6535276D01*
X3649449D01*
X3653449Y6539276D02*
Y6533276D01*
X3665449D01*
Y6539276D01*
X3671449D01*
Y6551276D01*
X3665449D01*
Y6557276D01*
X3653449D01*
Y6551276D01*
X3647449D01*
Y6539276D01*
X3653449D01*
X5443740Y7205551D02*
Y7195551D01*
X5463740D01*
Y7205551D01*
X5473740D01*
Y7225551D01*
X5463740D01*
Y7235551D01*
X5443740D01*
Y7225551D01*
X5433740D01*
Y7205551D01*
X5443740D01*
X5447740Y7209551D02*
Y7203551D01*
X5459740D01*
Y7209551D01*
X5465740D01*
Y7221551D01*
X5459740D01*
Y7227551D01*
X5447740D01*
Y7221551D01*
X5441740D01*
Y7209551D01*
X5447740D01*
X6466378Y4844409D02*
Y4834409D01*
X6486378D01*
Y4844409D01*
X6496378D01*
Y4864409D01*
X6486378D01*
Y4874409D01*
X6466378D01*
Y4864409D01*
X6456378D01*
Y4844409D01*
X6466378D01*
X6470378Y4848409D02*
Y4842409D01*
X6482378D01*
Y4848409D01*
X6488378D01*
Y4860409D01*
X6482378D01*
Y4866409D01*
X6470378D01*
Y4860409D01*
X6464378D01*
Y4848409D01*
X6470378D01*
X6421102Y4796102D02*
Y4786102D01*
X6441102D01*
Y4796102D01*
X6451102D01*
Y4816102D01*
X6441102D01*
Y4826102D01*
X6421102D01*
Y4816102D01*
X6411102D01*
Y4796102D01*
X6421102D01*
X6425102Y4800102D02*
Y4794102D01*
X6437102D01*
Y4800102D01*
X6443102D01*
Y4812102D01*
X6437102D01*
Y4818102D01*
X6425102D01*
Y4812102D01*
X6419102D01*
Y4800102D01*
X6425102D01*
X6364016Y4822677D02*
Y4812677D01*
X6384016D01*
Y4822677D01*
X6394016D01*
Y4842677D01*
X6384016D01*
Y4852677D01*
X6364016D01*
Y4842677D01*
X6354016D01*
Y4822677D01*
X6364016D01*
X6368016Y4826677D02*
Y4820677D01*
X6380016D01*
Y4826677D01*
X6386016D01*
Y4838677D01*
X6380016D01*
Y4844677D01*
X6368016D01*
Y4838677D01*
X6362016D01*
Y4826677D01*
X6368016D01*
X6318898Y4875827D02*
Y4865827D01*
X6338898D01*
Y4875827D01*
X6348898D01*
Y4895827D01*
X6338898D01*
Y4905827D01*
X6318898D01*
Y4895827D01*
X6308898D01*
Y4875827D01*
X6318898D01*
X6322898Y4879827D02*
Y4873827D01*
X6334898D01*
Y4879827D01*
X6340898D01*
Y4891827D01*
X6334898D01*
Y4897827D01*
X6322898D01*
Y4891827D01*
X6316898D01*
Y4879827D01*
X6322898D01*
X6258701Y4903386D02*
Y4893386D01*
X6278701D01*
Y4903386D01*
X6288701D01*
Y4923386D01*
X6278701D01*
Y4933386D01*
X6258701D01*
Y4923386D01*
X6248701D01*
Y4903386D01*
X6258701D01*
X6262701Y4907386D02*
Y4901386D01*
X6274701D01*
Y4907386D01*
X6280701D01*
Y4919386D01*
X6274701D01*
Y4925386D01*
X6262701D01*
Y4919386D01*
X6256701D01*
Y4907386D01*
X6262701D01*
X6205551Y4927008D02*
Y4917008D01*
X6225551D01*
Y4927008D01*
X6235551D01*
Y4947008D01*
X6225551D01*
Y4957008D01*
X6205551D01*
Y4947008D01*
X6195551D01*
Y4927008D01*
X6205551D01*
X6209551Y4931008D02*
Y4925008D01*
X6221551D01*
Y4931008D01*
X6227551D01*
Y4943008D01*
X6221551D01*
Y4949008D01*
X6209551D01*
Y4943008D01*
X6203551D01*
Y4931008D01*
X6209551D01*
X6352205Y4738032D02*
Y4728032D01*
X6372205D01*
Y4738032D01*
X6382205D01*
Y4758032D01*
X6372205D01*
Y4768032D01*
X6352205D01*
Y4758032D01*
X6342205D01*
Y4738032D01*
X6352205D01*
X6356205Y4742032D02*
Y4736032D01*
X6368205D01*
Y4742032D01*
X6374205D01*
Y4754032D01*
X6368205D01*
Y4760032D01*
X6356205D01*
Y4754032D01*
X6350205D01*
Y4742032D01*
X6356205D01*
X4934882Y6521496D02*
Y6511496D01*
X4954882D01*
Y6521496D01*
X4964882D01*
Y6541496D01*
X4954882D01*
Y6551496D01*
X4934882D01*
Y6541496D01*
X4924882D01*
Y6521496D01*
X4934882D01*
X4938882Y6525496D02*
Y6519496D01*
X4950882D01*
Y6525496D01*
X4956882D01*
Y6537496D01*
X4950882D01*
Y6543496D01*
X4938882D01*
Y6537496D01*
X4932882D01*
Y6525496D01*
X4938882D01*
X4555041Y6519831D02*
Y6509831D01*
X4575041D01*
Y6519831D01*
X4585041D01*
Y6539831D01*
X4575041D01*
Y6549831D01*
X4555041D01*
Y6539831D01*
X4545041D01*
Y6519831D01*
X4555041D01*
X4559041Y6523831D02*
Y6517831D01*
X4571041D01*
Y6523831D01*
X4577041D01*
Y6535831D01*
X4571041D01*
Y6541831D01*
X4559041D01*
Y6535831D01*
X4553041D01*
Y6523831D01*
X4559041D01*
X4115243Y4839652D02*
Y4829652D01*
X4135243D01*
Y4839652D01*
X4145243D01*
Y4859652D01*
X4135243D01*
Y4869652D01*
X4115243D01*
Y4859652D01*
X4105243D01*
Y4839652D01*
X4115243D01*
X4119243Y4843652D02*
Y4837652D01*
X4131243D01*
Y4843652D01*
X4137243D01*
Y4855652D01*
X4131243D01*
Y4861652D01*
X4119243D01*
Y4855652D01*
X4113243D01*
Y4843652D01*
X4119243D01*
X4527490Y5096299D02*
Y5086299D01*
X4547490D01*
Y5096299D01*
X4557490D01*
Y5116299D01*
X4547490D01*
Y5126299D01*
X4527490D01*
Y5116299D01*
X4517490D01*
Y5096299D01*
X4527490D01*
X4531490Y5100299D02*
Y5094299D01*
X4543490D01*
Y5100299D01*
X4549490D01*
Y5112299D01*
X4543490D01*
Y5118299D01*
X4531490D01*
Y5112299D01*
X4525490D01*
Y5100299D01*
X4531490D01*
X4127529Y4665914D02*
Y4655914D01*
X4147529D01*
Y4665914D01*
X4157529D01*
Y4685914D01*
X4147529D01*
Y4695914D01*
X4127529D01*
Y4685914D01*
X4117529D01*
Y4665914D01*
X4127529D01*
X4131529Y4669914D02*
Y4663914D01*
X4143529D01*
Y4669914D01*
X4149529D01*
Y4681914D01*
X4143529D01*
Y4687914D01*
X4131529D01*
Y4681914D01*
X4125529D01*
Y4669914D01*
X4131529D01*
X4159664Y4764606D02*
Y4754606D01*
X4179664D01*
Y4764606D01*
X4189664D01*
Y4784606D01*
X4179664D01*
Y4794606D01*
X4159664D01*
Y4784606D01*
X4149664D01*
Y4764606D01*
X4159664D01*
X4163664Y4768606D02*
Y4762606D01*
X4175664D01*
Y4768606D01*
X4181664D01*
Y4780606D01*
X4175664D01*
Y4786606D01*
X4163664D01*
Y4780606D01*
X4157664D01*
Y4768606D01*
X4163664D01*
X4051785Y5145512D02*
Y5135512D01*
X4071785D01*
Y5145512D01*
X4081785D01*
Y5165512D01*
X4071785D01*
Y5175512D01*
X4051785D01*
Y5165512D01*
X4041785D01*
Y5145512D01*
X4051785D01*
X4055785Y5149512D02*
Y5143512D01*
X4067785D01*
Y5149512D01*
X4073785D01*
Y5161512D01*
X4067785D01*
Y5167512D01*
X4055785D01*
Y5161512D01*
X4049785D01*
Y5149512D01*
X4055785D01*
X4249842Y4946693D02*
Y4936693D01*
X4269842D01*
Y4946693D01*
X4279842D01*
Y4966693D01*
X4269842D01*
Y4976693D01*
X4249842D01*
Y4966693D01*
X4239842D01*
Y4946693D01*
X4249842D01*
X4253842Y4950693D02*
Y4944693D01*
X4265842D01*
Y4950693D01*
X4271842D01*
Y4962693D01*
X4265842D01*
Y4968693D01*
X4253842D01*
Y4962693D01*
X4247842D01*
Y4950693D01*
X4253842D01*
X4358498Y4903386D02*
Y4893386D01*
X4378498D01*
Y4903386D01*
X4388498D01*
Y4923386D01*
X4378498D01*
Y4933386D01*
X4358498D01*
Y4923386D01*
X4348498D01*
Y4903386D01*
X4358498D01*
X4362498Y4907386D02*
Y4901386D01*
X4374498D01*
Y4907386D01*
X4380498D01*
Y4919386D01*
X4374498D01*
Y4925386D01*
X4362498D01*
Y4919386D01*
X4356498D01*
Y4907386D01*
X4362498D01*
X4671035Y5231142D02*
Y5221142D01*
X4691035D01*
Y5231142D01*
X4701035D01*
Y5251142D01*
X4691035D01*
Y5261142D01*
X4671035D01*
Y5251142D01*
X4661035D01*
Y5231142D01*
X4671035D01*
X4675035Y5235142D02*
Y5229142D01*
X4687035D01*
Y5235142D01*
X4693035D01*
Y5247142D01*
X4687035D01*
Y5253142D01*
X4675035D01*
Y5247142D01*
X4669035D01*
Y5235142D01*
X4675035D01*
X4937895Y5317695D02*
Y5307695D01*
X4957895D01*
Y5317695D01*
X4967895D01*
Y5337695D01*
X4957895D01*
Y5347695D01*
X4937895D01*
Y5337695D01*
X4927895D01*
Y5317695D01*
X4937895D01*
X4941895Y5321695D02*
Y5315695D01*
X4953895D01*
Y5321695D01*
X4959895D01*
Y5333695D01*
X4953895D01*
Y5339695D01*
X4941895D01*
Y5333695D01*
X4935895D01*
Y5321695D01*
X4941895D01*
X4495905Y5673149D02*
Y5663149D01*
X4515905D01*
Y5673149D01*
X4525905D01*
Y5693149D01*
X4515905D01*
Y5703149D01*
X4495905D01*
Y5693149D01*
X4485905D01*
Y5673149D01*
X4495905D01*
X4499905Y5677149D02*
Y5671149D01*
X4511905D01*
Y5677149D01*
X4517905D01*
Y5689149D01*
X4511905D01*
Y5695149D01*
X4499905D01*
Y5689149D01*
X4493905D01*
Y5677149D01*
X4499905D01*
X9694528Y4910079D02*
Y4900079D01*
X9714528D01*
Y4910079D01*
X9724528D01*
Y4930079D01*
X9714528D01*
Y4940079D01*
X9694528D01*
Y4930079D01*
X9684528D01*
Y4910079D01*
X9694528D01*
X9698528Y4914079D02*
Y4908079D01*
X9710528D01*
Y4914079D01*
X9716528D01*
Y4926079D01*
X9710528D01*
Y4932079D01*
X9698528D01*
Y4926079D01*
X9692528D01*
Y4914079D01*
X9698528D01*
X9669527Y4951221D02*
Y4941221D01*
X9689527D01*
Y4951221D01*
X9699527D01*
Y4971221D01*
X9689527D01*
Y4981221D01*
X9669527D01*
Y4971221D01*
X9659527D01*
Y4951221D01*
X9669527D01*
X9673527Y4955221D02*
Y4949221D01*
X9685527D01*
Y4955221D01*
X9691527D01*
Y4967221D01*
X9685527D01*
Y4973221D01*
X9673527D01*
Y4967221D01*
X9667527D01*
Y4955221D01*
X9673527D01*
X9221299Y3495905D02*
Y3485905D01*
X9241299D01*
Y3495905D01*
X9251299D01*
Y3515905D01*
X9241299D01*
Y3525905D01*
X9221299D01*
Y3515905D01*
X9211299D01*
Y3495905D01*
X9221299D01*
X9225299Y3499905D02*
Y3493905D01*
X9237299D01*
Y3499905D01*
X9243299D01*
Y3511905D01*
X9237299D01*
Y3517905D01*
X9225299D01*
Y3511905D01*
X9219299D01*
Y3499905D01*
X9225299D01*
X7610079Y3496299D02*
Y3486299D01*
X7630079D01*
Y3496299D01*
X7640079D01*
Y3516299D01*
X7630079D01*
Y3526299D01*
X7610079D01*
Y3516299D01*
X7600079D01*
Y3496299D01*
X7610079D01*
X7614079Y3500299D02*
Y3494299D01*
X7626079D01*
Y3500299D01*
X7632079D01*
Y3512299D01*
X7626079D01*
Y3518299D01*
X7614079D01*
Y3512299D01*
X7608079D01*
Y3500299D01*
X7614079D01*
X6093346Y3497874D02*
Y3487874D01*
X6113346D01*
Y3497874D01*
X6123346D01*
Y3517874D01*
X6113346D01*
Y3527874D01*
X6093346D01*
Y3517874D01*
X6083346D01*
Y3497874D01*
X6093346D01*
X6097346Y3501874D02*
Y3495874D01*
X6109346D01*
Y3501874D01*
X6115346D01*
Y3513874D01*
X6109346D01*
Y3519874D01*
X6097346D01*
Y3513874D01*
X6091346D01*
Y3501874D01*
X6097346D01*
X4407054Y3496621D02*
Y3486621D01*
X4427054D01*
Y3496621D01*
X4437054D01*
Y3516621D01*
X4427054D01*
Y3526621D01*
X4407054D01*
Y3516621D01*
X4397054D01*
Y3496621D01*
X4407054D01*
X4411054Y3500621D02*
Y3494621D01*
X4423054D01*
Y3500621D01*
X4429054D01*
Y3512621D01*
X4423054D01*
Y3518621D01*
X4411054D01*
Y3512621D01*
X4405054D01*
Y3500621D01*
X4411054D01*
X10757126Y3496299D02*
Y3486299D01*
X10777126D01*
Y3496299D01*
X10787126D01*
Y3516299D01*
X10777126D01*
Y3526299D01*
X10757126D01*
Y3516299D01*
X10747126D01*
Y3496299D01*
X10757126D01*
X10761126Y3500299D02*
Y3494299D01*
X10773126D01*
Y3500299D01*
X10779126D01*
Y3512299D01*
X10773126D01*
Y3518299D01*
X10761126D01*
Y3512299D01*
X10755126D01*
Y3500299D01*
X10761126D01*
X8624843Y5395610D02*
Y5385610D01*
X8644843D01*
Y5395610D01*
X8654843D01*
Y5415610D01*
X8644843D01*
Y5425610D01*
X8624843D01*
Y5415610D01*
X8614843D01*
Y5395610D01*
X8624843D01*
X8628843Y5399610D02*
Y5393610D01*
X8640843D01*
Y5399610D01*
X8646843D01*
Y5411610D01*
X8640843D01*
Y5417610D01*
X8628843D01*
Y5411610D01*
X8622843D01*
Y5399610D01*
X8628843D01*
X3952599Y6129764D02*
Y6119764D01*
X3972599D01*
Y6129764D01*
X3982599D01*
Y6149764D01*
X3972599D01*
Y6159764D01*
X3952599D01*
Y6149764D01*
X3942599D01*
Y6129764D01*
X3952599D01*
X3956599Y6133764D02*
Y6127764D01*
X3968599D01*
Y6133764D01*
X3974599D01*
Y6145764D01*
X3968599D01*
Y6151764D01*
X3956599D01*
Y6145764D01*
X3950599D01*
Y6133764D01*
X3956599D01*
X1765591Y6010374D02*
Y6000374D01*
X1785591D01*
Y6010374D01*
X1795591D01*
Y6030374D01*
X1785591D01*
Y6040374D01*
X1765591D01*
Y6030374D01*
X1755591D01*
Y6010374D01*
X1765591D01*
X1769591Y6014374D02*
Y6008374D01*
X1781591D01*
Y6014374D01*
X1787591D01*
Y6026374D01*
X1781591D01*
Y6032374D01*
X1769591D01*
Y6026374D01*
X1763591D01*
Y6014374D01*
X1769591D01*
X7269528Y5009528D02*
Y4999528D01*
X7289528D01*
Y5009528D01*
X7299528D01*
Y5029528D01*
X7289528D01*
Y5039528D01*
X7269528D01*
Y5029528D01*
X7259528D01*
Y5009528D01*
X7269528D01*
X7273528Y5013528D02*
Y5007528D01*
X7285528D01*
Y5013528D01*
X7291528D01*
Y5025528D01*
X7285528D01*
Y5031528D01*
X7273528D01*
Y5025528D01*
X7267528D01*
Y5013528D01*
X7273528D01*
X4646496Y5517512D02*
Y5507512D01*
X4666496D01*
Y5517512D01*
X4676496D01*
Y5537512D01*
X4666496D01*
Y5547512D01*
X4646496D01*
Y5537512D01*
X4636496D01*
Y5517512D01*
X4646496D01*
X4650496Y5521512D02*
Y5515512D01*
X4662496D01*
Y5521512D01*
X4668496D01*
Y5533512D01*
X4662496D01*
Y5539512D01*
X4650496D01*
Y5533512D01*
X4644496D01*
Y5521512D01*
X4650496D01*
X7280354Y4801024D02*
Y4791024D01*
X7300354D01*
Y4801024D01*
X7310354D01*
Y4821024D01*
X7300354D01*
Y4831024D01*
X7280354D01*
Y4821024D01*
X7270354D01*
Y4801024D01*
X7280354D01*
X7284354Y4805024D02*
Y4799024D01*
X7296354D01*
Y4805024D01*
X7302354D01*
Y4817024D01*
X7296354D01*
Y4823024D01*
X7284354D01*
Y4817024D01*
X7278354D01*
Y4805024D01*
X7284354D01*
X8916181Y5720315D02*
Y5710315D01*
X8936181D01*
Y5720315D01*
X8946181D01*
Y5740315D01*
X8936181D01*
Y5750315D01*
X8916181D01*
Y5740315D01*
X8906181D01*
Y5720315D01*
X8916181D01*
X8920181Y5724315D02*
Y5718315D01*
X8932181D01*
Y5724315D01*
X8938181D01*
Y5736315D01*
X8932181D01*
Y5742315D01*
X8920181D01*
Y5736315D01*
X8914181D01*
Y5724315D01*
X8920181D01*
X6901417Y5714409D02*
Y5704409D01*
X6921417D01*
Y5714409D01*
X6931417D01*
Y5734409D01*
X6921417D01*
Y5744409D01*
X6901417D01*
Y5734409D01*
X6891417D01*
Y5714409D01*
X6901417D01*
X6905417Y5718409D02*
Y5712409D01*
X6917417D01*
Y5718409D01*
X6923417D01*
Y5730409D01*
X6917417D01*
Y5736409D01*
X6905417D01*
Y5730409D01*
X6899417D01*
Y5718409D01*
X6905417D01*
X10202008Y6450236D02*
Y6440236D01*
X10222008D01*
Y6450236D01*
X10232008D01*
Y6470236D01*
X10222008D01*
Y6480236D01*
X10202008D01*
Y6470236D01*
X10192008D01*
Y6450236D01*
X10202008D01*
X10206008Y6454236D02*
Y6448236D01*
X10218008D01*
Y6454236D01*
X10224008D01*
Y6466236D01*
X10218008D01*
Y6472236D01*
X10206008D01*
Y6466236D01*
X10200008D01*
Y6454236D01*
X10206008D01*
X7603071Y5089528D02*
Y5079528D01*
X7623071D01*
Y5089528D01*
X7633071D01*
Y5109528D01*
X7623071D01*
Y5119528D01*
X7603071D01*
Y5109528D01*
X7593071D01*
Y5089528D01*
X7603071D01*
X7607071Y5093528D02*
Y5087528D01*
X7619071D01*
Y5093528D01*
X7625071D01*
Y5105528D01*
X7619071D01*
Y5111528D01*
X7607071D01*
Y5105528D01*
X7601071D01*
Y5093528D01*
X7607071D01*
X7639606Y5208504D02*
Y5198504D01*
X7659606D01*
Y5208504D01*
X7669606D01*
Y5228504D01*
X7659606D01*
Y5238504D01*
X7639606D01*
Y5228504D01*
X7629606D01*
Y5208504D01*
X7639606D01*
X7643606Y5212504D02*
Y5206504D01*
X7655606D01*
Y5212504D01*
X7661606D01*
Y5224504D01*
X7655606D01*
Y5230504D01*
X7643606D01*
Y5224504D01*
X7637606D01*
Y5212504D01*
X7643606D01*
X7273386Y5425039D02*
Y5415039D01*
X7293386D01*
Y5425039D01*
X7303386D01*
Y5445039D01*
X7293386D01*
Y5455039D01*
X7273386D01*
Y5445039D01*
X7263386D01*
Y5425039D01*
X7273386D01*
X7277386Y5429039D02*
Y5423039D01*
X7289386D01*
Y5429039D01*
X7295386D01*
Y5441039D01*
X7289386D01*
Y5447039D01*
X7277386D01*
Y5441039D01*
X7271386D01*
Y5429039D01*
X7277386D01*
X7271496Y5264882D02*
Y5254882D01*
X7291496D01*
Y5264882D01*
X7301496D01*
Y5284882D01*
X7291496D01*
Y5294882D01*
X7271496D01*
Y5284882D01*
X7261496D01*
Y5264882D01*
X7271496D01*
X7275496Y5268882D02*
Y5262882D01*
X7287496D01*
Y5268882D01*
X7293496D01*
Y5280882D01*
X7287496D01*
Y5286882D01*
X7275496D01*
Y5280882D01*
X7269496D01*
Y5268882D01*
X7275496D01*
X8289213Y4763622D02*
Y4753622D01*
X8309213D01*
Y4763622D01*
X8319213D01*
Y4783622D01*
X8309213D01*
Y4793622D01*
X8289213D01*
Y4783622D01*
X8279213D01*
Y4763622D01*
X8289213D01*
X8293213Y4767622D02*
Y4761622D01*
X8305213D01*
Y4767622D01*
X8311213D01*
Y4779622D01*
X8305213D01*
Y4785622D01*
X8293213D01*
Y4779622D01*
X8287213D01*
Y4767622D01*
X8293213D01*
X8477205Y5022480D02*
Y5012480D01*
X8497205D01*
Y5022480D01*
X8507205D01*
Y5042480D01*
X8497205D01*
Y5052480D01*
X8477205D01*
Y5042480D01*
X8467205D01*
Y5022480D01*
X8477205D01*
X8481205Y5026480D02*
Y5020480D01*
X8493205D01*
Y5026480D01*
X8499205D01*
Y5038480D01*
X8493205D01*
Y5044480D01*
X8481205D01*
Y5038480D01*
X8475205D01*
Y5026480D01*
X8481205D01*
X8023465Y5070709D02*
Y5060709D01*
X8043465D01*
Y5070709D01*
X8053465D01*
Y5090709D01*
X8043465D01*
Y5100709D01*
X8023465D01*
Y5090709D01*
X8013465D01*
Y5070709D01*
X8023465D01*
X8027465Y5074709D02*
Y5068709D01*
X8039465D01*
Y5074709D01*
X8045465D01*
Y5086709D01*
X8039465D01*
Y5092709D01*
X8027465D01*
Y5086709D01*
X8021465D01*
Y5074709D01*
X8027465D01*
X8273465Y5191772D02*
Y5181772D01*
X8293465D01*
Y5191772D01*
X8303465D01*
Y5211772D01*
X8293465D01*
Y5221772D01*
X8273465D01*
Y5211772D01*
X8263465D01*
Y5191772D01*
X8273465D01*
X8277465Y5195772D02*
Y5189772D01*
X8289465D01*
Y5195772D01*
X8295465D01*
Y5207772D01*
X8289465D01*
Y5213772D01*
X8277465D01*
Y5207772D01*
X8271465D01*
Y5195772D01*
X8277465D01*
X5844331Y3293150D02*
Y3283150D01*
X5864331D01*
Y3293150D01*
X5874331D01*
Y3313150D01*
X5864331D01*
Y3323150D01*
X5844331D01*
Y3313150D01*
X5834331D01*
Y3293150D01*
X5844331D01*
X5848331Y3297150D02*
Y3291150D01*
X5860331D01*
Y3297150D01*
X5866331D01*
Y3309150D01*
X5860331D01*
Y3315150D01*
X5848331D01*
Y3309150D01*
X5842331D01*
Y3297150D01*
X5848331D01*
X5891772Y3336260D02*
Y3326260D01*
X5911772D01*
Y3336260D01*
X5921772D01*
Y3356260D01*
X5911772D01*
Y3366260D01*
X5891772D01*
Y3356260D01*
X5881772D01*
Y3336260D01*
X5891772D01*
X5895772Y3340260D02*
Y3334260D01*
X5907772D01*
Y3340260D01*
X5913772D01*
Y3352260D01*
X5907772D01*
Y3358260D01*
X5895772D01*
Y3352260D01*
X5889772D01*
Y3340260D01*
X5895772D01*
X5391575Y3178976D02*
Y3168976D01*
X5411575D01*
Y3178976D01*
X5421575D01*
Y3198976D01*
X5411575D01*
Y3208976D01*
X5391575D01*
Y3198976D01*
X5381575D01*
Y3178976D01*
X5391575D01*
X5395575Y3182976D02*
Y3176976D01*
X5407575D01*
Y3182976D01*
X5413575D01*
Y3194976D01*
X5407575D01*
Y3200976D01*
X5395575D01*
Y3194976D01*
X5389575D01*
Y3182976D01*
X5395575D01*
X6474252Y3190787D02*
Y3180787D01*
X6494252D01*
Y3190787D01*
X6504252D01*
Y3210787D01*
X6494252D01*
Y3220787D01*
X6474252D01*
Y3210787D01*
X6464252D01*
Y3190787D01*
X6474252D01*
X6478252Y3194787D02*
Y3188787D01*
X6490252D01*
Y3194787D01*
X6496252D01*
Y3206787D01*
X6490252D01*
Y3212787D01*
X6478252D01*
Y3206787D01*
X6472252D01*
Y3194787D01*
X6478252D01*
X6518543Y3227205D02*
Y3217205D01*
X6538543D01*
Y3227205D01*
X6548543D01*
Y3247205D01*
X6538543D01*
Y3257205D01*
X6518543D01*
Y3247205D01*
X6508543D01*
Y3227205D01*
X6518543D01*
X6522543Y3231205D02*
Y3225205D01*
X6534543D01*
Y3231205D01*
X6540543D01*
Y3243205D01*
X6534543D01*
Y3249205D01*
X6522543D01*
Y3243205D01*
X6516543D01*
Y3231205D01*
X6522543D01*
X6564803Y3261653D02*
Y3251653D01*
X6584803D01*
Y3261653D01*
X6594803D01*
Y3281653D01*
X6584803D01*
Y3291653D01*
X6564803D01*
Y3281653D01*
X6554803D01*
Y3261653D01*
X6564803D01*
X6568803Y3265653D02*
Y3259653D01*
X6580803D01*
Y3265653D01*
X6586803D01*
Y3277653D01*
X6580803D01*
Y3283653D01*
X6568803D01*
Y3277653D01*
X6562803D01*
Y3265653D01*
X6568803D01*
X6612047Y3293150D02*
Y3283150D01*
X6632047D01*
Y3293150D01*
X6642047D01*
Y3313150D01*
X6632047D01*
Y3323150D01*
X6612047D01*
Y3313150D01*
X6602047D01*
Y3293150D01*
X6612047D01*
X6616047Y3297150D02*
Y3291150D01*
X6628047D01*
Y3297150D01*
X6634047D01*
Y3309150D01*
X6628047D01*
Y3315150D01*
X6616047D01*
Y3309150D01*
X6610047D01*
Y3297150D01*
X6616047D01*
X6663228Y3328583D02*
Y3318583D01*
X6683228D01*
Y3328583D01*
X6693228D01*
Y3348583D01*
X6683228D01*
Y3358583D01*
X6663228D01*
Y3348583D01*
X6653228D01*
Y3328583D01*
X6663228D01*
X6667228Y3332583D02*
Y3326583D01*
X6679228D01*
Y3332583D01*
X6685228D01*
Y3344583D01*
X6679228D01*
Y3350583D01*
X6667228D01*
Y3344583D01*
X6661228D01*
Y3332583D01*
X6667228D01*
X7395512Y3119921D02*
Y3109921D01*
X7415512D01*
Y3119921D01*
X7425512D01*
Y3139921D01*
X7415512D01*
Y3149921D01*
X7395512D01*
Y3139921D01*
X7385512D01*
Y3119921D01*
X7395512D01*
X7399512Y3123921D02*
Y3117921D01*
X7411512D01*
Y3123921D01*
X7417512D01*
Y3135921D01*
X7411512D01*
Y3141921D01*
X7399512D01*
Y3135921D01*
X7393512D01*
Y3123921D01*
X7399512D01*
X7344331Y3119921D02*
Y3109921D01*
X7364331D01*
Y3119921D01*
X7374331D01*
Y3139921D01*
X7364331D01*
Y3149921D01*
X7344331D01*
Y3139921D01*
X7334331D01*
Y3119921D01*
X7344331D01*
X7348331Y3123921D02*
Y3117921D01*
X7360331D01*
Y3123921D01*
X7366331D01*
Y3135921D01*
X7360331D01*
Y3141921D01*
X7348331D01*
Y3135921D01*
X7342331D01*
Y3123921D01*
X7348331D01*
X7289213Y3119921D02*
Y3109921D01*
X7309213D01*
Y3119921D01*
X7319213D01*
Y3139921D01*
X7309213D01*
Y3149921D01*
X7289213D01*
Y3139921D01*
X7279213D01*
Y3119921D01*
X7289213D01*
X7293213Y3123921D02*
Y3117921D01*
X7305213D01*
Y3123921D01*
X7311213D01*
Y3135921D01*
X7305213D01*
Y3141921D01*
X7293213D01*
Y3135921D01*
X7287213D01*
Y3123921D01*
X7293213D01*
X5423071Y3549055D02*
Y3539055D01*
X5443071D01*
Y3549055D01*
X5453071D01*
Y3569055D01*
X5443071D01*
Y3579055D01*
X5423071D01*
Y3569055D01*
X5413071D01*
Y3549055D01*
X5423071D01*
X5427071Y3553055D02*
Y3547055D01*
X5439071D01*
Y3553055D01*
X5445071D01*
Y3565055D01*
X5439071D01*
Y3571055D01*
X5427071D01*
Y3565055D01*
X5421071D01*
Y3553055D01*
X5427071D01*
X4279661Y6452307D02*
Y6442307D01*
X4299661D01*
Y6452307D01*
X4309661D01*
Y6472307D01*
X4299661D01*
Y6482307D01*
X4279661D01*
Y6472307D01*
X4269661D01*
Y6452307D01*
X4279661D01*
X4283661Y6456307D02*
Y6450307D01*
X4295661D01*
Y6456307D01*
X4301661D01*
Y6468307D01*
X4295661D01*
Y6474307D01*
X4283661D01*
Y6468307D01*
X4277661D01*
Y6456307D01*
X4283661D01*
X3871890Y6517559D02*
Y6507559D01*
X3891890D01*
Y6517559D01*
X3901890D01*
Y6537559D01*
X3891890D01*
Y6547559D01*
X3871890D01*
Y6537559D01*
X3861890D01*
Y6517559D01*
X3871890D01*
X3875890Y6521559D02*
Y6515559D01*
X3887890D01*
Y6521559D01*
X3893890D01*
Y6533559D01*
X3887890D01*
Y6539559D01*
X3875890D01*
Y6533559D01*
X3869890D01*
Y6521559D01*
X3875890D01*
X4102220Y6291165D02*
Y6281165D01*
X4122220D01*
Y6291165D01*
X4132220D01*
Y6311165D01*
X4122220D01*
Y6321165D01*
X4102220D01*
Y6311165D01*
X4092220D01*
Y6291165D01*
X4102220D01*
X4106220Y6295165D02*
Y6289165D01*
X4118220D01*
Y6295165D01*
X4124220D01*
Y6307165D01*
X4118220D01*
Y6313165D01*
X4106220D01*
Y6307165D01*
X4100220D01*
Y6295165D01*
X4106220D01*
X4307054Y6197677D02*
Y6187677D01*
X4327054D01*
Y6197677D01*
X4337054D01*
Y6217677D01*
X4327054D01*
Y6227677D01*
X4307054D01*
Y6217677D01*
X4297054D01*
Y6197677D01*
X4307054D01*
X4311054Y6201677D02*
Y6195677D01*
X4323054D01*
Y6201677D01*
X4329054D01*
Y6213677D01*
X4323054D01*
Y6219677D01*
X4311054D01*
Y6213677D01*
X4305054D01*
Y6201677D01*
X4311054D01*
X4474471Y6155354D02*
Y6145354D01*
X4494471D01*
Y6155354D01*
X4504471D01*
Y6175354D01*
X4494471D01*
Y6185354D01*
X4474471D01*
Y6175354D01*
X4464471D01*
Y6155354D01*
X4474471D01*
X4478471Y6159354D02*
Y6153354D01*
X4490471D01*
Y6159354D01*
X4496471D01*
Y6171354D01*
X4490471D01*
Y6177354D01*
X4478471D01*
Y6171354D01*
X4472471D01*
Y6159354D01*
X4478471D01*
X4356643Y5871249D02*
Y5861249D01*
X4376643D01*
Y5871249D01*
X4386643D01*
Y5891249D01*
X4376643D01*
Y5901249D01*
X4356643D01*
Y5891249D01*
X4346643D01*
Y5871249D01*
X4356643D01*
X4360643Y5875249D02*
Y5869249D01*
X4372643D01*
Y5875249D01*
X4378643D01*
Y5887249D01*
X4372643D01*
Y5893249D01*
X4360643D01*
Y5887249D01*
X4354643D01*
Y5875249D01*
X4360643D01*
X4431167Y5970315D02*
Y5960315D01*
X4451167D01*
Y5970315D01*
X4461167D01*
Y5990315D01*
X4451167D01*
Y6000315D01*
X4431167D01*
Y5990315D01*
X4421167D01*
Y5970315D01*
X4431167D01*
X4435167Y5974315D02*
Y5968315D01*
X4447167D01*
Y5974315D01*
X4453167D01*
Y5986315D01*
X4447167D01*
Y5992315D01*
X4435167D01*
Y5986315D01*
X4429167D01*
Y5974315D01*
X4435167D01*
X4049055Y5812835D02*
Y5802835D01*
X4069055D01*
Y5812835D01*
X4079055D01*
Y5832835D01*
X4069055D01*
Y5842835D01*
X4049055D01*
Y5832835D01*
X4039055D01*
Y5812835D01*
X4049055D01*
X4053055Y5816835D02*
Y5810835D01*
X4065055D01*
Y5816835D01*
X4071055D01*
Y5828835D01*
X4065055D01*
Y5834835D01*
X4053055D01*
Y5828835D01*
X4047055D01*
Y5816835D01*
X4053055D01*
X4195362Y5678976D02*
Y5668976D01*
X4215362D01*
Y5678976D01*
X4225362D01*
Y5698976D01*
X4215362D01*
Y5708976D01*
X4195362D01*
Y5698976D01*
X4185362D01*
Y5678976D01*
X4195362D01*
X4199362Y5682976D02*
Y5676976D01*
X4211362D01*
Y5682976D01*
X4217362D01*
Y5694976D01*
X4211362D01*
Y5700976D01*
X4199362D01*
Y5694976D01*
X4193362D01*
Y5682976D01*
X4199362D01*
X4019336Y5576614D02*
Y5566614D01*
X4039336D01*
Y5576614D01*
X4049336D01*
Y5596614D01*
X4039336D01*
Y5606614D01*
X4019336D01*
Y5596614D01*
X4009336D01*
Y5576614D01*
X4019336D01*
X4023336Y5580614D02*
Y5574614D01*
X4035336D01*
Y5580614D01*
X4041336D01*
Y5592614D01*
X4035336D01*
Y5598614D01*
X4023336D01*
Y5592614D01*
X4017336D01*
Y5580614D01*
X4023336D01*
X3907054Y5675039D02*
Y5665039D01*
X3927054D01*
Y5675039D01*
X3937054D01*
Y5695039D01*
X3927054D01*
Y5705039D01*
X3907054D01*
Y5695039D01*
X3897054D01*
Y5675039D01*
X3907054D01*
X3911054Y5679039D02*
Y5673039D01*
X3923054D01*
Y5679039D01*
X3929054D01*
Y5691039D01*
X3923054D01*
Y5697039D01*
X3911054D01*
Y5691039D01*
X3905054D01*
Y5679039D01*
X3911054D01*
X3742463Y5391575D02*
Y5381575D01*
X3762463D01*
Y5391575D01*
X3772463D01*
Y5411575D01*
X3762463D01*
Y5421575D01*
X3742463D01*
Y5411575D01*
X3732463D01*
Y5391575D01*
X3742463D01*
X3746463Y5395575D02*
Y5389575D01*
X3758463D01*
Y5395575D01*
X3764463D01*
Y5407575D01*
X3758463D01*
Y5413575D01*
X3746463D01*
Y5407575D01*
X3740463D01*
Y5395575D01*
X3746463D01*
X3081772Y5513071D02*
Y5503071D01*
X3101772D01*
Y5513071D01*
X3111772D01*
Y5533071D01*
X3101772D01*
Y5543071D01*
X3081772D01*
Y5533071D01*
X3071772D01*
Y5513071D01*
X3081772D01*
X3085772Y5517071D02*
Y5511071D01*
X3097772D01*
Y5517071D01*
X3103772D01*
Y5529071D01*
X3097772D01*
Y5535071D01*
X3085772D01*
Y5529071D01*
X3079772D01*
Y5517071D01*
X3085772D01*
X3403634Y5420854D02*
Y5410854D01*
X3423634D01*
Y5420854D01*
X3433634D01*
Y5440854D01*
X3423634D01*
Y5450854D01*
X3403634D01*
Y5440854D01*
X3393634D01*
Y5420854D01*
X3403634D01*
X3407634Y5424854D02*
Y5418854D01*
X3419634D01*
Y5424854D01*
X3425634D01*
Y5436854D01*
X3419634D01*
Y5442854D01*
X3407634D01*
Y5436854D01*
X3401634D01*
Y5424854D01*
X3407634D01*
X2836457Y5135669D02*
Y5125669D01*
X2856457D01*
Y5135669D01*
X2866457D01*
Y5155669D01*
X2856457D01*
Y5165669D01*
X2836457D01*
Y5155669D01*
X2826457D01*
Y5135669D01*
X2836457D01*
X2840457Y5139669D02*
Y5133669D01*
X2852457D01*
Y5139669D01*
X2858457D01*
Y5151669D01*
X2852457D01*
Y5157669D01*
X2840457D01*
Y5151669D01*
X2834457D01*
Y5139669D01*
X2840457D01*
X3434882Y5135669D02*
Y5125669D01*
X3454882D01*
Y5135669D01*
X3464882D01*
Y5155669D01*
X3454882D01*
Y5165669D01*
X3434882D01*
Y5155669D01*
X3424882D01*
Y5135669D01*
X3434882D01*
X3438882Y5139669D02*
Y5133669D01*
X3450882D01*
Y5139669D01*
X3456882D01*
Y5151669D01*
X3450882D01*
Y5157669D01*
X3438882D01*
Y5151669D01*
X3432882D01*
Y5139669D01*
X3438882D01*
X3487295Y5420366D02*
Y5410366D01*
X3507295D01*
Y5420366D01*
X3517295D01*
Y5440366D01*
X3507295D01*
Y5450366D01*
X3487295D01*
Y5440366D01*
X3477295D01*
Y5420366D01*
X3487295D01*
X3491295Y5424366D02*
Y5418366D01*
X3503295D01*
Y5424366D01*
X3509295D01*
Y5436366D01*
X3503295D01*
Y5442366D01*
X3491295D01*
Y5436366D01*
X3485295D01*
Y5424366D01*
X3491295D01*
X8182913Y5127795D02*
Y5117795D01*
X8202913D01*
Y5127795D01*
X8212913D01*
Y5147795D01*
X8202913D01*
Y5157795D01*
X8182913D01*
Y5147795D01*
X8172913D01*
Y5127795D01*
X8182913D01*
X8186913Y5131795D02*
Y5125795D01*
X8198913D01*
Y5131795D01*
X8204913D01*
Y5143795D01*
X8198913D01*
Y5149795D01*
X8186913D01*
Y5143795D01*
X8180913D01*
Y5131795D01*
X8186913D01*
X6824646Y4962441D02*
Y4952441D01*
X6844646D01*
Y4962441D01*
X6854646D01*
Y4982441D01*
X6844646D01*
Y4992441D01*
X6824646D01*
Y4982441D01*
X6814646D01*
Y4962441D01*
X6824646D01*
X6828646Y4966441D02*
Y4960441D01*
X6840646D01*
Y4966441D01*
X6846646D01*
Y4978441D01*
X6840646D01*
Y4984441D01*
X6828646D01*
Y4978441D01*
X6822646D01*
Y4966441D01*
X6828646D01*
X6757717Y4954567D02*
Y4944567D01*
X6777717D01*
Y4954567D01*
X6787717D01*
Y4974567D01*
X6777717D01*
Y4984567D01*
X6757717D01*
Y4974567D01*
X6747717D01*
Y4954567D01*
X6757717D01*
X6761717Y4958567D02*
Y4952567D01*
X6773717D01*
Y4958567D01*
X6779717D01*
Y4970567D01*
X6773717D01*
Y4976567D01*
X6761717D01*
Y4970567D01*
X6755717D01*
Y4958567D01*
X6761717D01*
X6942742Y4974242D02*
Y4964242D01*
X6962742D01*
Y4974242D01*
X6972742D01*
Y4994242D01*
X6962742D01*
Y5004242D01*
X6942742D01*
Y4994242D01*
X6932742D01*
Y4974242D01*
X6942742D01*
X6946742Y4978242D02*
Y4972242D01*
X6958742D01*
Y4978242D01*
X6964742D01*
Y4990242D01*
X6958742D01*
Y4996242D01*
X6946742D01*
Y4990242D01*
X6940742D01*
Y4978242D01*
X6946742D01*
X6632874Y4876968D02*
Y4866968D01*
X6652874D01*
Y4876968D01*
X6662874D01*
Y4896968D01*
X6652874D01*
Y4906968D01*
X6632874D01*
Y4896968D01*
X6622874D01*
Y4876968D01*
X6632874D01*
X6636874Y4880968D02*
Y4874968D01*
X6648874D01*
Y4880968D01*
X6654874D01*
Y4892968D01*
X6648874D01*
Y4898968D01*
X6636874D01*
Y4892968D01*
X6630874D01*
Y4880968D01*
X6636874D01*
X6584488Y4911260D02*
Y4901260D01*
X6604488D01*
Y4911260D01*
X6614488D01*
Y4931260D01*
X6604488D01*
Y4941260D01*
X6584488D01*
Y4931260D01*
X6574488D01*
Y4911260D01*
X6584488D01*
X6588488Y4915260D02*
Y4909260D01*
X6600488D01*
Y4915260D01*
X6606488D01*
Y4927260D01*
X6600488D01*
Y4933260D01*
X6588488D01*
Y4927260D01*
X6582488D01*
Y4915260D01*
X6588488D01*
X9460472Y4419134D02*
Y4409134D01*
X9480472D01*
Y4419134D01*
X9490472D01*
Y4439134D01*
X9480472D01*
Y4449134D01*
X9460472D01*
Y4439134D01*
X9450472D01*
Y4419134D01*
X9460472D01*
X9464472Y4423134D02*
Y4417134D01*
X9476472D01*
Y4423134D01*
X9482472D01*
Y4435134D01*
X9476472D01*
Y4441134D01*
X9464472D01*
Y4435134D01*
X9458472D01*
Y4423134D01*
X9464472D01*
X9460472Y4675039D02*
Y4665039D01*
X9480472D01*
Y4675039D01*
X9490472D01*
Y4695039D01*
X9480472D01*
Y4705039D01*
X9460472D01*
Y4695039D01*
X9450472D01*
Y4675039D01*
X9460472D01*
X9464472Y4679039D02*
Y4673039D01*
X9476472D01*
Y4679039D01*
X9482472D01*
Y4691039D01*
X9476472D01*
Y4697039D01*
X9464472D01*
Y4691039D01*
X9458472D01*
Y4679039D01*
X9464472D01*
X7785276Y4877953D02*
Y4867953D01*
X7805276D01*
Y4877953D01*
X7815276D01*
Y4897953D01*
X7805276D01*
Y4907953D01*
X7785276D01*
Y4897953D01*
X7775276D01*
Y4877953D01*
X7785276D01*
X7789276Y4881953D02*
Y4875953D01*
X7801276D01*
Y4881953D01*
X7807276D01*
Y4893953D01*
X7801276D01*
Y4899953D01*
X7789276D01*
Y4893953D01*
X7783276D01*
Y4881953D01*
X7789276D01*
X7848268Y4836457D02*
Y4826457D01*
X7868268D01*
Y4836457D01*
X7878268D01*
Y4856457D01*
X7868268D01*
Y4866457D01*
X7848268D01*
Y4856457D01*
X7838268D01*
Y4836457D01*
X7848268D01*
X7852268Y4840457D02*
Y4834457D01*
X7864268D01*
Y4840457D01*
X7870268D01*
Y4852457D01*
X7864268D01*
Y4858457D01*
X7852268D01*
Y4852457D01*
X7846268D01*
Y4840457D01*
X7852268D01*
X6316772Y4714409D02*
Y4704409D01*
X6336772D01*
Y4714409D01*
X6346772D01*
Y4734409D01*
X6336772D01*
Y4744409D01*
X6316772D01*
Y4734409D01*
X6306772D01*
Y4714409D01*
X6316772D01*
X6320772Y4718409D02*
Y4712409D01*
X6332772D01*
Y4718409D01*
X6338772D01*
Y4730409D01*
X6332772D01*
Y4736409D01*
X6320772D01*
Y4730409D01*
X6314772D01*
Y4718409D01*
X6320772D01*
X1299842Y3887638D02*
Y3877638D01*
X1319842D01*
Y3887638D01*
X1329842D01*
Y3907638D01*
X1319842D01*
Y3917638D01*
X1299842D01*
Y3907638D01*
X1289842D01*
Y3887638D01*
X1299842D01*
X1303842Y3891638D02*
Y3885638D01*
X1315842D01*
Y3891638D01*
X1321842D01*
Y3903638D01*
X1315842D01*
Y3909638D01*
X1303842D01*
Y3903638D01*
X1297842D01*
Y3891638D01*
X1303842D01*
X1299843Y2005748D02*
Y1995748D01*
X1319843D01*
Y2005748D01*
X1329843D01*
Y2025748D01*
X1319843D01*
Y2035748D01*
X1299843D01*
Y2025748D01*
X1289843D01*
Y2005748D01*
X1299843D01*
X1303843Y2009748D02*
Y2003748D01*
X1315843D01*
Y2009748D01*
X1321843D01*
Y2021748D01*
X1315843D01*
Y2027748D01*
X1303843D01*
Y2021748D01*
X1297843D01*
Y2009748D01*
X1303843D01*
X1381838Y2132021D02*
Y2122021D01*
X1401838D01*
Y2132021D01*
X1411838D01*
Y2152021D01*
X1401838D01*
Y2162021D01*
X1381838D01*
Y2152021D01*
X1371838D01*
Y2132021D01*
X1381838D01*
X1385838Y2136021D02*
Y2130021D01*
X1397838D01*
Y2136021D01*
X1403838D01*
Y2148021D01*
X1397838D01*
Y2154021D01*
X1385838D01*
Y2148021D01*
X1379838D01*
Y2136021D01*
X1385838D01*
X1537244Y3993937D02*
Y3983937D01*
X1557244D01*
Y3993937D01*
X1567244D01*
Y4013937D01*
X1557244D01*
Y4023937D01*
X1537244D01*
Y4013937D01*
X1527244D01*
Y3993937D01*
X1537244D01*
X1541244Y3997937D02*
Y3991937D01*
X1553244D01*
Y3997937D01*
X1559244D01*
Y4009937D01*
X1553244D01*
Y4015937D01*
X1541244D01*
Y4009937D01*
X1535244D01*
Y3997937D01*
X1541244D01*
X1382126Y4004173D02*
Y3994173D01*
X1402126D01*
Y4004173D01*
X1412126D01*
Y4024173D01*
X1402126D01*
Y4034173D01*
X1382126D01*
Y4024173D01*
X1372126D01*
Y4004173D01*
X1382126D01*
X1386126Y4008173D02*
Y4002173D01*
X1398126D01*
Y4008173D01*
X1404126D01*
Y4020173D01*
X1398126D01*
Y4026173D01*
X1386126D01*
Y4020173D01*
X1380126D01*
Y4008173D01*
X1386126D01*
X1537244Y4042173D02*
Y4032173D01*
X1557244D01*
Y4042173D01*
X1567244D01*
Y4062173D01*
X1557244D01*
Y4072173D01*
X1537244D01*
Y4062173D01*
X1527244D01*
Y4042173D01*
X1537244D01*
X1541244Y4046173D02*
Y4040173D01*
X1553244D01*
Y4046173D01*
X1559244D01*
Y4058173D01*
X1553244D01*
Y4064173D01*
X1541244D01*
Y4058173D01*
X1535244D01*
Y4046173D01*
X1541244D01*
X4639606Y5390748D02*
Y5380748D01*
X4659606D01*
Y5390748D01*
X4669606D01*
Y5410748D01*
X4659606D01*
Y5420748D01*
X4639606D01*
Y5410748D01*
X4629606D01*
Y5390748D01*
X4639606D01*
X4643606Y5394748D02*
Y5388748D01*
X4655606D01*
Y5394748D01*
X4661606D01*
Y5406748D01*
X4655606D01*
Y5412748D01*
X4643606D01*
Y5406748D01*
X4637606D01*
Y5394748D01*
X4643606D01*
X4639606Y5360079D02*
Y5350079D01*
X4659606D01*
Y5360079D01*
X4669606D01*
Y5380079D01*
X4659606D01*
Y5390079D01*
X4639606D01*
Y5380079D01*
X4629606D01*
Y5360079D01*
X4639606D01*
X4643606Y5364079D02*
Y5358079D01*
X4655606D01*
Y5364079D01*
X4661606D01*
Y5376079D01*
X4655606D01*
Y5382079D01*
X4643606D01*
Y5376079D01*
X4637606D01*
Y5364079D01*
X4643606D01*
X4295219Y4801024D02*
Y4791024D01*
X4315219D01*
Y4801024D01*
X4325219D01*
Y4821024D01*
X4315219D01*
Y4831024D01*
X4295219D01*
Y4821024D01*
X4285219D01*
Y4801024D01*
X4295219D01*
X4299219Y4805024D02*
Y4799024D01*
X4311219D01*
Y4805024D01*
X4317219D01*
Y4817024D01*
X4311219D01*
Y4823024D01*
X4299219D01*
Y4817024D01*
X4293219D01*
Y4805024D01*
X4299219D01*
X4275046Y4895512D02*
Y4885512D01*
X4295046D01*
Y4895512D01*
X4305046D01*
Y4915512D01*
X4295046D01*
Y4925512D01*
X4275046D01*
Y4915512D01*
X4265046D01*
Y4895512D01*
X4275046D01*
X4279046Y4899512D02*
Y4893512D01*
X4291046D01*
Y4899512D01*
X4297046D01*
Y4911512D01*
X4291046D01*
Y4917512D01*
X4279046D01*
Y4911512D01*
X4273046D01*
Y4899512D01*
X4279046D01*
X3096299Y5025388D02*
Y5015388D01*
X3116299D01*
Y5025388D01*
X3126299D01*
Y5045388D01*
X3116299D01*
Y5055388D01*
X3096299D01*
Y5045388D01*
X3086299D01*
Y5025388D01*
X3096299D01*
X3100299Y5029388D02*
Y5023388D01*
X3112299D01*
Y5029388D01*
X3118299D01*
Y5041388D01*
X3112299D01*
Y5047388D01*
X3100299D01*
Y5041388D01*
X3094299D01*
Y5029388D01*
X3100299D01*
X3890243Y5290197D02*
Y5280197D01*
X3910243D01*
Y5290197D01*
X3920243D01*
Y5310197D01*
X3910243D01*
Y5320197D01*
X3890243D01*
Y5310197D01*
X3880243D01*
Y5290197D01*
X3890243D01*
X3894243Y5294197D02*
Y5288197D01*
X3906243D01*
Y5294197D01*
X3912243D01*
Y5306197D01*
X3906243D01*
Y5312197D01*
X3894243D01*
Y5306197D01*
X3888243D01*
Y5294197D01*
X3894243D01*
X3986063Y5265591D02*
Y5255591D01*
X4006063D01*
Y5265591D01*
X4016063D01*
Y5285591D01*
X4006063D01*
Y5295591D01*
X3986063D01*
Y5285591D01*
X3976063D01*
Y5265591D01*
X3986063D01*
X3990063Y5269591D02*
Y5263591D01*
X4002063D01*
Y5269591D01*
X4008063D01*
Y5281591D01*
X4002063D01*
Y5287591D01*
X3990063D01*
Y5281591D01*
X3984063D01*
Y5269591D01*
X3990063D01*
X3153387Y5025433D02*
Y5015433D01*
X3173387D01*
Y5025433D01*
X3183387D01*
Y5045433D01*
X3173387D01*
Y5055433D01*
X3153387D01*
Y5045433D01*
X3143387D01*
Y5025433D01*
X3153387D01*
X3157387Y5029433D02*
Y5023433D01*
X3169387D01*
Y5029433D01*
X3175387D01*
Y5041433D01*
X3169387D01*
Y5047433D01*
X3157387D01*
Y5041433D01*
X3151387D01*
Y5029433D01*
X3157387D01*
X3942756Y5287032D02*
Y5277032D01*
X3962756D01*
Y5287032D01*
X3972756D01*
Y5307032D01*
X3962756D01*
Y5317032D01*
X3942756D01*
Y5307032D01*
X3932756D01*
Y5287032D01*
X3942756D01*
X3946756Y5291032D02*
Y5285032D01*
X3958756D01*
Y5291032D01*
X3964756D01*
Y5303032D01*
X3958756D01*
Y5309032D01*
X3946756D01*
Y5303032D01*
X3940756D01*
Y5291032D01*
X3946756D01*
X4493937Y4714409D02*
Y4704409D01*
X4513937D01*
Y4714409D01*
X4523937D01*
Y4734409D01*
X4513937D01*
Y4744409D01*
X4493937D01*
Y4734409D01*
X4483937D01*
Y4714409D01*
X4493937D01*
X4497937Y4718409D02*
Y4712409D01*
X4509937D01*
Y4718409D01*
X4515937D01*
Y4730409D01*
X4509937D01*
Y4736409D01*
X4497937D01*
Y4730409D01*
X4491937D01*
Y4718409D01*
X4497937D01*
X4525433Y4745905D02*
Y4735905D01*
X4545433D01*
Y4745905D01*
X4555433D01*
Y4765905D01*
X4545433D01*
Y4775905D01*
X4525433D01*
Y4765905D01*
X4515433D01*
Y4745905D01*
X4525433D01*
X4529433Y4749905D02*
Y4743905D01*
X4541433D01*
Y4749905D01*
X4547433D01*
Y4761905D01*
X4541433D01*
Y4767905D01*
X4529433D01*
Y4761905D01*
X4523433D01*
Y4749905D01*
X4529433D01*
X4515591Y4809882D02*
Y4799882D01*
X4535591D01*
Y4809882D01*
X4545591D01*
Y4829882D01*
X4535591D01*
Y4839882D01*
X4515591D01*
Y4829882D01*
X4505591D01*
Y4809882D01*
X4515591D01*
X4519591Y4813882D02*
Y4807882D01*
X4531591D01*
Y4813882D01*
X4537591D01*
Y4825882D01*
X4531591D01*
Y4831882D01*
X4519591D01*
Y4825882D01*
X4513591D01*
Y4813882D01*
X4519591D01*
X4495039Y4789213D02*
Y4779213D01*
X4515039D01*
Y4789213D01*
X4525039D01*
Y4809213D01*
X4515039D01*
Y4819213D01*
X4495039D01*
Y4809213D01*
X4485039D01*
Y4789213D01*
X4495039D01*
X4499039Y4793213D02*
Y4787213D01*
X4511039D01*
Y4793213D01*
X4517039D01*
Y4805213D01*
X4511039D01*
Y4811213D01*
X4499039D01*
Y4805213D01*
X4493039D01*
Y4793213D01*
X4499039D01*
X4536482Y4830787D02*
Y4820787D01*
X4556482D01*
Y4830787D01*
X4566482D01*
Y4850787D01*
X4556482D01*
Y4860787D01*
X4536482D01*
Y4850787D01*
X4526482D01*
Y4830787D01*
X4536482D01*
X4540482Y4834787D02*
Y4828787D01*
X4552482D01*
Y4834787D01*
X4558482D01*
Y4846787D01*
X4552482D01*
Y4852787D01*
X4540482D01*
Y4846787D01*
X4534482D01*
Y4834787D01*
X4540482D01*
X4558898Y4851221D02*
Y4841221D01*
X4578898D01*
Y4851221D01*
X4588898D01*
Y4871221D01*
X4578898D01*
Y4881221D01*
X4558898D01*
Y4871221D01*
X4548898D01*
Y4851221D01*
X4558898D01*
X4562898Y4855221D02*
Y4849221D01*
X4574898D01*
Y4855221D01*
X4580898D01*
Y4867221D01*
X4574898D01*
Y4873221D01*
X4562898D01*
Y4867221D01*
X4556898D01*
Y4855221D01*
X4562898D01*
X4579567Y4871890D02*
Y4861890D01*
X4599567D01*
Y4871890D01*
X4609567D01*
Y4891890D01*
X4599567D01*
Y4901890D01*
X4579567D01*
Y4891890D01*
X4569567D01*
Y4871890D01*
X4579567D01*
X4583567Y4875890D02*
Y4869890D01*
X4595567D01*
Y4875890D01*
X4601567D01*
Y4887890D01*
X4595567D01*
Y4893890D01*
X4583567D01*
Y4887890D01*
X4577567D01*
Y4875890D01*
X4583567D01*
X4473126Y4678976D02*
Y4668976D01*
X4493126D01*
Y4678976D01*
X4503126D01*
Y4698976D01*
X4493126D01*
Y4708976D01*
X4473126D01*
Y4698976D01*
X4463126D01*
Y4678976D01*
X4473126D01*
X4477126Y4682976D02*
Y4676976D01*
X4489126D01*
Y4682976D01*
X4495126D01*
Y4694976D01*
X4489126D01*
Y4700976D01*
X4477126D01*
Y4694976D01*
X4471126D01*
Y4682976D01*
X4477126D01*
X3938819Y6200630D02*
Y6190630D01*
X3958819D01*
Y6200630D01*
X3968819D01*
Y6220630D01*
X3958819D01*
Y6230630D01*
X3938819D01*
Y6220630D01*
X3928819D01*
Y6200630D01*
X3938819D01*
X3942819Y6204630D02*
Y6198630D01*
X3954819D01*
Y6204630D01*
X3960819D01*
Y6216630D01*
X3954819D01*
Y6222630D01*
X3942819D01*
Y6216630D01*
X3936819D01*
Y6204630D01*
X3942819D01*
X3975189Y5537244D02*
Y5527244D01*
X3995189D01*
Y5537244D01*
X4005189D01*
Y5557244D01*
X3995189D01*
Y5567244D01*
X3975189D01*
Y5557244D01*
X3965189D01*
Y5537244D01*
X3975189D01*
X3979189Y5541244D02*
Y5535244D01*
X3991189D01*
Y5541244D01*
X3997189D01*
Y5553244D01*
X3991189D01*
Y5559244D01*
X3979189D01*
Y5553244D01*
X3973189D01*
Y5541244D01*
X3979189D01*
X4167165Y5037244D02*
Y5027244D01*
X4187165D01*
Y5037244D01*
X4197165D01*
Y5057244D01*
X4187165D01*
Y5067244D01*
X4167165D01*
Y5057244D01*
X4157165D01*
Y5037244D01*
X4167165D01*
X4171165Y5041244D02*
Y5035244D01*
X4183165D01*
Y5041244D01*
X4189165D01*
Y5053244D01*
X4183165D01*
Y5059244D01*
X4171165D01*
Y5053244D01*
X4165165D01*
Y5041244D01*
X4171165D01*
X5112047Y6734094D02*
Y6724094D01*
X5132047D01*
Y6734094D01*
X5142047D01*
Y6754094D01*
X5132047D01*
Y6764094D01*
X5112047D01*
Y6754094D01*
X5102047D01*
Y6734094D01*
X5112047D01*
X5116047Y6738094D02*
Y6732094D01*
X5128047D01*
Y6738094D01*
X5134047D01*
Y6750094D01*
X5128047D01*
Y6756094D01*
X5116047D01*
Y6750094D01*
X5110047D01*
Y6738094D01*
X5116047D01*
X4705458Y6427008D02*
Y6417008D01*
X4725458D01*
Y6427008D01*
X4735458D01*
Y6447008D01*
X4725458D01*
Y6457008D01*
X4705458D01*
Y6447008D01*
X4695458D01*
Y6427008D01*
X4705458D01*
X4709458Y6431008D02*
Y6425008D01*
X4721458D01*
Y6431008D01*
X4727458D01*
Y6443008D01*
X4721458D01*
Y6449008D01*
X4709458D01*
Y6443008D01*
X4703458D01*
Y6431008D01*
X4709458D01*
X4785276Y6458504D02*
Y6448504D01*
X4805276D01*
Y6458504D01*
X4815276D01*
Y6478504D01*
X4805276D01*
Y6488504D01*
X4785276D01*
Y6478504D01*
X4775276D01*
Y6458504D01*
X4785276D01*
X4789276Y6462504D02*
Y6456504D01*
X4801276D01*
Y6462504D01*
X4807276D01*
Y6474504D01*
X4801276D01*
Y6480504D01*
X4789276D01*
Y6474504D01*
X4783276D01*
Y6462504D01*
X4789276D01*
X4482126Y5726221D02*
Y5716221D01*
X4502126D01*
Y5726221D01*
X4512126D01*
Y5746221D01*
X4502126D01*
Y5756221D01*
X4482126D01*
Y5746221D01*
X4472126D01*
Y5726221D01*
X4482126D01*
X4486126Y5730221D02*
Y5724221D01*
X4498126D01*
Y5730221D01*
X4504126D01*
Y5742221D01*
X4498126D01*
Y5748221D01*
X4486126D01*
Y5742221D01*
X4480126D01*
Y5730221D01*
X4486126D01*
X4619921Y5923071D02*
Y5913071D01*
X4639921D01*
Y5923071D01*
X4649921D01*
Y5943071D01*
X4639921D01*
Y5953071D01*
X4619921D01*
Y5943071D01*
X4609921D01*
Y5923071D01*
X4619921D01*
X4623921Y5927071D02*
Y5921071D01*
X4635921D01*
Y5927071D01*
X4641921D01*
Y5939071D01*
X4635921D01*
Y5945071D01*
X4623921D01*
Y5939071D01*
X4617921D01*
Y5927071D01*
X4623921D01*
X4568740Y5852205D02*
Y5842205D01*
X4588740D01*
Y5852205D01*
X4598740D01*
Y5872205D01*
X4588740D01*
Y5882205D01*
X4568740D01*
Y5872205D01*
X4558740D01*
Y5852205D01*
X4568740D01*
X4572740Y5856205D02*
Y5850205D01*
X4584740D01*
Y5856205D01*
X4590740D01*
Y5868205D01*
X4584740D01*
Y5874205D01*
X4572740D01*
Y5868205D01*
X4566740D01*
Y5856205D01*
X4572740D01*
X4253779Y5820709D02*
Y5810709D01*
X4273779D01*
Y5820709D01*
X4283779D01*
Y5840709D01*
X4273779D01*
Y5850709D01*
X4253779D01*
Y5840709D01*
X4243779D01*
Y5820709D01*
X4253779D01*
X4257779Y5824709D02*
Y5818709D01*
X4269779D01*
Y5824709D01*
X4275779D01*
Y5836709D01*
X4269779D01*
Y5842709D01*
X4257779D01*
Y5836709D01*
X4251779D01*
Y5824709D01*
X4257779D01*
X4513622Y6627795D02*
Y6617795D01*
X4533622D01*
Y6627795D01*
X4543622D01*
Y6647795D01*
X4533622D01*
Y6657795D01*
X4513622D01*
Y6647795D01*
X4503622D01*
Y6627795D01*
X4513622D01*
X4517622Y6631795D02*
Y6625795D01*
X4529622D01*
Y6631795D01*
X4535622D01*
Y6643795D01*
X4529622D01*
Y6649795D01*
X4517622D01*
Y6643795D01*
X4511622D01*
Y6631795D01*
X4517622D01*
X4044134Y6136432D02*
Y6126432D01*
X4064134D01*
Y6136432D01*
X4074134D01*
Y6156432D01*
X4064134D01*
Y6166432D01*
X4044134D01*
Y6156432D01*
X4034134D01*
Y6136432D01*
X4044134D01*
X4048134Y6140432D02*
Y6134432D01*
X4060134D01*
Y6140432D01*
X4066134D01*
Y6152432D01*
X4060134D01*
Y6158432D01*
X4048134D01*
Y6152432D01*
X4042134D01*
Y6140432D01*
X4048134D01*
X3986063Y6194503D02*
Y6184503D01*
X4006063D01*
Y6194503D01*
X4016063D01*
Y6214503D01*
X4006063D01*
Y6224503D01*
X3986063D01*
Y6214503D01*
X3976063D01*
Y6194503D01*
X3986063D01*
X3990063Y6198503D02*
Y6192503D01*
X4002063D01*
Y6198503D01*
X4008063D01*
Y6210503D01*
X4002063D01*
Y6216503D01*
X3990063D01*
Y6210503D01*
X3984063D01*
Y6198503D01*
X3990063D01*
X4102220Y6588425D02*
Y6578425D01*
X4122220D01*
Y6588425D01*
X4132220D01*
Y6608425D01*
X4122220D01*
Y6618425D01*
X4102220D01*
Y6608425D01*
X4092220D01*
Y6588425D01*
X4102220D01*
X4106220Y6592425D02*
Y6586425D01*
X4118220D01*
Y6592425D01*
X4124220D01*
Y6604425D01*
X4118220D01*
Y6610425D01*
X4106220D01*
Y6604425D01*
X4100220D01*
Y6592425D01*
X4106220D01*
X4202598Y6450630D02*
Y6440630D01*
X4222598D01*
Y6450630D01*
X4232598D01*
Y6470630D01*
X4222598D01*
Y6480630D01*
X4202598D01*
Y6470630D01*
X4192598D01*
Y6450630D01*
X4202598D01*
X4206598Y6454630D02*
Y6448630D01*
X4218598D01*
Y6454630D01*
X4224598D01*
Y6466630D01*
X4218598D01*
Y6472630D01*
X4206598D01*
Y6466630D01*
X4200598D01*
Y6454630D01*
X4206598D01*
X4261654Y5765591D02*
Y5755591D01*
X4281654D01*
Y5765591D01*
X4291654D01*
Y5785591D01*
X4281654D01*
Y5795591D01*
X4261654D01*
Y5785591D01*
X4251654D01*
Y5765591D01*
X4261654D01*
X4265654Y5769591D02*
Y5763591D01*
X4277654D01*
Y5769591D01*
X4283654D01*
Y5781591D01*
X4277654D01*
Y5787591D01*
X4265654D01*
Y5781591D01*
X4259654D01*
Y5769591D01*
X4265654D01*
X4474471Y4768762D02*
Y4758762D01*
X4494471D01*
Y4768762D01*
X4504471D01*
Y4788762D01*
X4494471D01*
Y4798762D01*
X4474471D01*
Y4788762D01*
X4464471D01*
Y4768762D01*
X4474471D01*
X4478471Y4772762D02*
Y4766762D01*
X4490471D01*
Y4772762D01*
X4496471D01*
Y4784762D01*
X4490471D01*
Y4790762D01*
X4478471D01*
Y4784762D01*
X4472471D01*
Y4772762D01*
X4478471D01*
X4474252Y4768543D02*
Y4758543D01*
X4494252D01*
Y4768543D01*
X4504252D01*
Y4788543D01*
X4494252D01*
Y4798543D01*
X4474252D01*
Y4788543D01*
X4464252D01*
Y4768543D01*
X4474252D01*
X4478252Y4772543D02*
Y4766543D01*
X4490252D01*
Y4772543D01*
X4496252D01*
Y4784543D01*
X4490252D01*
Y4790543D01*
X4478252D01*
Y4784543D01*
X4472252D01*
Y4772543D01*
X4478252D01*
X4407054Y3867684D02*
Y3857684D01*
X4427054D01*
Y3867684D01*
X4437054D01*
Y3887684D01*
X4427054D01*
Y3897684D01*
X4407054D01*
Y3887684D01*
X4397054D01*
Y3867684D01*
X4407054D01*
X4411054Y3871684D02*
Y3865684D01*
X4423054D01*
Y3871684D01*
X4429054D01*
Y3883684D01*
X4423054D01*
Y3889684D01*
X4411054D01*
Y3883684D01*
X4405054D01*
Y3871684D01*
X4411054D01*
X3121890Y4523465D02*
Y4513465D01*
X3141890D01*
Y4523465D01*
X3151890D01*
Y4543465D01*
X3141890D01*
Y4553465D01*
X3121890D01*
Y4543465D01*
X3111890D01*
Y4523465D01*
X3121890D01*
X3125890Y4527465D02*
Y4521465D01*
X3137890D01*
Y4527465D01*
X3143890D01*
Y4539465D01*
X3137890D01*
Y4545465D01*
X3125890D01*
Y4539465D01*
X3119890D01*
Y4527465D01*
X3125890D01*
X9499559Y5611346D02*
Y5601346D01*
X9519559D01*
Y5611346D01*
X9529559D01*
Y5631346D01*
X9519559D01*
Y5641346D01*
X9499559D01*
Y5631346D01*
X9489559D01*
Y5611346D01*
X9499559D01*
X9503559Y5615346D02*
Y5609346D01*
X9515559D01*
Y5615346D01*
X9521559D01*
Y5627346D01*
X9515559D01*
Y5633346D01*
X9503559D01*
Y5627346D01*
X9497559D01*
Y5615346D01*
X9503559D01*
X9643149Y5171496D02*
Y5161496D01*
X9663149D01*
Y5171496D01*
X9673149D01*
Y5191496D01*
X9663149D01*
Y5201496D01*
X9643149D01*
Y5191496D01*
X9633149D01*
Y5171496D01*
X9643149D01*
X9647149Y5175496D02*
Y5169496D01*
X9659149D01*
Y5175496D01*
X9665149D01*
Y5187496D01*
X9659149D01*
Y5193496D01*
X9647149D01*
Y5187496D01*
X9641149D01*
Y5175496D01*
X9647149D01*
X9498858Y4837441D02*
Y4827441D01*
X9518858D01*
Y4837441D01*
X9528858D01*
Y4857441D01*
X9518858D01*
Y4867441D01*
X9498858D01*
Y4857441D01*
X9488858D01*
Y4837441D01*
X9498858D01*
X9502858Y4841441D02*
Y4835441D01*
X9514858D01*
Y4841441D01*
X9520858D01*
Y4853441D01*
X9514858D01*
Y4859441D01*
X9502858D01*
Y4853441D01*
X9496858D01*
Y4841441D01*
X9502858D01*
X9669890Y4335701D02*
Y4325701D01*
X9689890D01*
Y4335701D01*
X9699890D01*
Y4355701D01*
X9689890D01*
Y4365701D01*
X9669890D01*
Y4355701D01*
X9659890D01*
Y4335701D01*
X9669890D01*
X9673890Y4339701D02*
Y4333701D01*
X9685890D01*
Y4339701D01*
X9691890D01*
Y4351701D01*
X9685890D01*
Y4357701D01*
X9673890D01*
Y4351701D01*
X9667890D01*
Y4339701D01*
X9673890D01*
X9669527Y5485670D02*
Y5475670D01*
X9689527D01*
Y5485670D01*
X9699527D01*
Y5505670D01*
X9689527D01*
Y5515670D01*
X9669527D01*
Y5505670D01*
X9659527D01*
Y5485670D01*
X9669527D01*
X9673527Y5489670D02*
Y5483670D01*
X9685527D01*
Y5489670D01*
X9691527D01*
Y5501670D01*
X9685527D01*
Y5507670D01*
X9673527D01*
Y5501670D01*
X9667527D01*
Y5489670D01*
X9673527D01*
X9694528Y5525630D02*
Y5515630D01*
X9714528D01*
Y5525630D01*
X9724528D01*
Y5545630D01*
X9714528D01*
Y5555630D01*
X9694528D01*
Y5545630D01*
X9684528D01*
Y5525630D01*
X9694528D01*
X9698528Y5529630D02*
Y5523630D01*
X9710528D01*
Y5529630D01*
X9716528D01*
Y5541630D01*
X9710528D01*
Y5547630D01*
X9698528D01*
Y5541630D01*
X9692528D01*
Y5529630D01*
X9698528D01*
X10054764Y5289016D02*
Y5279016D01*
X10074764D01*
Y5289016D01*
X10084764D01*
Y5309016D01*
X10074764D01*
Y5319016D01*
X10054764D01*
Y5309016D01*
X10044764D01*
Y5289016D01*
X10054764D01*
X10058764Y5293016D02*
Y5287016D01*
X10070764D01*
Y5293016D01*
X10076764D01*
Y5305016D01*
X10070764D01*
Y5311016D01*
X10058764D01*
Y5305016D01*
X10052764D01*
Y5293016D01*
X10058764D01*
X9904370Y5208504D02*
Y5198504D01*
X9924370D01*
Y5208504D01*
X9934370D01*
Y5228504D01*
X9924370D01*
Y5238504D01*
X9904370D01*
Y5228504D01*
X9894370D01*
Y5208504D01*
X9904370D01*
X9908370Y5212504D02*
Y5206504D01*
X9920370D01*
Y5212504D01*
X9926370D01*
Y5224504D01*
X9920370D01*
Y5230504D01*
X9908370D01*
Y5224504D01*
X9902370D01*
Y5212504D01*
X9908370D01*
X9903386Y4407323D02*
Y4397323D01*
X9923386D01*
Y4407323D01*
X9933386D01*
Y4427323D01*
X9923386D01*
Y4437323D01*
X9903386D01*
Y4427323D01*
X9893386D01*
Y4407323D01*
X9903386D01*
X9907386Y4411323D02*
Y4405323D01*
X9919386D01*
Y4411323D01*
X9925386D01*
Y4423323D01*
X9919386D01*
Y4429323D01*
X9907386D01*
Y4423323D01*
X9901386D01*
Y4411323D01*
X9907386D01*
X9927992Y4432913D02*
Y4422913D01*
X9947992D01*
Y4432913D01*
X9957992D01*
Y4452913D01*
X9947992D01*
Y4462913D01*
X9927992D01*
Y4452913D01*
X9917992D01*
Y4432913D01*
X9927992D01*
X9931992Y4436913D02*
Y4430913D01*
X9943992D01*
Y4436913D01*
X9949992D01*
Y4448913D01*
X9943992D01*
Y4454913D01*
X9931992D01*
Y4448913D01*
X9925992D01*
Y4436913D01*
X9931992D01*
X9986063Y4490984D02*
Y4480984D01*
X10006063D01*
Y4490984D01*
X10016063D01*
Y4510984D01*
X10006063D01*
Y4520984D01*
X9986063D01*
Y4510984D01*
X9976063D01*
Y4490984D01*
X9986063D01*
X9990063Y4494984D02*
Y4488984D01*
X10002063D01*
Y4494984D01*
X10008063D01*
Y4506984D01*
X10002063D01*
Y4512984D01*
X9990063D01*
Y4506984D01*
X9984063D01*
Y4494984D01*
X9990063D01*
X9954567Y4460472D02*
Y4450472D01*
X9974567D01*
Y4460472D01*
X9984567D01*
Y4480472D01*
X9974567D01*
Y4490472D01*
X9954567D01*
Y4480472D01*
X9944567D01*
Y4460472D01*
X9954567D01*
X9958567Y4464472D02*
Y4458472D01*
X9970567D01*
Y4464472D01*
X9976567D01*
Y4476472D01*
X9970567D01*
Y4482472D01*
X9958567D01*
Y4476472D01*
X9952567D01*
Y4464472D01*
X9958567D01*
X10386654Y5136654D02*
Y5126654D01*
X10406654D01*
Y5136654D01*
X10416654D01*
Y5156654D01*
X10406654D01*
Y5166654D01*
X10386654D01*
Y5156654D01*
X10376654D01*
Y5136654D01*
X10386654D01*
X10390654Y5140654D02*
Y5134654D01*
X10402654D01*
Y5140654D01*
X10408654D01*
Y5152654D01*
X10402654D01*
Y5158654D01*
X10390654D01*
Y5152654D01*
X10384654D01*
Y5140654D01*
X10390654D01*
X10394528Y4312835D02*
Y4302835D01*
X10414528D01*
Y4312835D01*
X10424528D01*
Y4332835D01*
X10414528D01*
Y4342835D01*
X10394528D01*
Y4332835D01*
X10384528D01*
Y4312835D01*
X10394528D01*
X10398528Y4316835D02*
Y4310835D01*
X10410528D01*
Y4316835D01*
X10416528D01*
Y4328835D01*
X10410528D01*
Y4334835D01*
X10398528D01*
Y4328835D01*
X10392528D01*
Y4316835D01*
X10398528D01*
X10064606Y4485276D02*
Y4475276D01*
X10084606D01*
Y4485276D01*
X10094606D01*
Y4505276D01*
X10084606D01*
Y4515276D01*
X10064606D01*
Y4505276D01*
X10054606D01*
Y4485276D01*
X10064606D01*
X10068606Y4489276D02*
Y4483276D01*
X10080606D01*
Y4489276D01*
X10086606D01*
Y4501276D01*
X10080606D01*
Y4507276D01*
X10068606D01*
Y4501276D01*
X10062606D01*
Y4489276D01*
X10068606D01*
X9385669Y7677992D02*
Y7667992D01*
X9405669D01*
Y7677992D01*
X9415669D01*
Y7697992D01*
X9405669D01*
Y7707992D01*
X9385669D01*
Y7697992D01*
X9375669D01*
Y7677992D01*
X9385669D01*
X9389669Y7681992D02*
Y7675992D01*
X9401669D01*
Y7681992D01*
X9407669D01*
Y7693992D01*
X9401669D01*
Y7699992D01*
X9389669D01*
Y7693992D01*
X9383669D01*
Y7681992D01*
X9389669D01*
X9658307Y7682913D02*
Y7672913D01*
X9678307D01*
Y7682913D01*
X9688307D01*
Y7702913D01*
X9678307D01*
Y7712913D01*
X9658307D01*
Y7702913D01*
X9648307D01*
Y7682913D01*
X9658307D01*
X9662307Y7686913D02*
Y7680913D01*
X9674307D01*
Y7686913D01*
X9680307D01*
Y7698913D01*
X9674307D01*
Y7704913D01*
X9662307D01*
Y7698913D01*
X9656307D01*
Y7686913D01*
X9662307D01*
X9933314Y7686266D02*
Y7676266D01*
X9953314D01*
Y7686266D01*
X9963314D01*
Y7706266D01*
X9953314D01*
Y7716266D01*
X9933314D01*
Y7706266D01*
X9923314D01*
Y7686266D01*
X9933314D01*
X9937314Y7690266D02*
Y7684266D01*
X9949314D01*
Y7690266D01*
X9955314D01*
Y7702266D01*
X9949314D01*
Y7708266D01*
X9937314D01*
Y7702266D01*
X9931314D01*
Y7690266D01*
X9937314D01*
X10203583Y7688819D02*
Y7678819D01*
X10223583D01*
Y7688819D01*
X10233583D01*
Y7708819D01*
X10223583D01*
Y7718819D01*
X10203583D01*
Y7708819D01*
X10193583D01*
Y7688819D01*
X10203583D01*
X10207583Y7692819D02*
Y7686819D01*
X10219583D01*
Y7692819D01*
X10225583D01*
Y7704819D01*
X10219583D01*
Y7710819D01*
X10207583D01*
Y7704819D01*
X10201583D01*
Y7692819D01*
X10207583D01*
X10474252Y7687835D02*
Y7677835D01*
X10494252D01*
Y7687835D01*
X10504252D01*
Y7707835D01*
X10494252D01*
Y7717835D01*
X10474252D01*
Y7707835D01*
X10464252D01*
Y7687835D01*
X10474252D01*
X10478252Y7691835D02*
Y7685835D01*
X10490252D01*
Y7691835D01*
X10496252D01*
Y7703835D01*
X10490252D01*
Y7709835D01*
X10478252D01*
Y7703835D01*
X10472252D01*
Y7691835D01*
X10478252D01*
X8971299Y3335472D02*
Y3325472D01*
X8991299D01*
Y3335472D01*
X9001299D01*
Y3355472D01*
X8991299D01*
Y3365472D01*
X8971299D01*
Y3355472D01*
X8961299D01*
Y3335472D01*
X8971299D01*
X8975299Y3339472D02*
Y3333472D01*
X8987299D01*
Y3339472D01*
X8993299D01*
Y3351472D01*
X8987299D01*
Y3357472D01*
X8975299D01*
Y3351472D01*
X8969299D01*
Y3339472D01*
X8975299D01*
X9776417Y3347284D02*
Y3337284D01*
X9796417D01*
Y3347284D01*
X9806417D01*
Y3367284D01*
X9796417D01*
Y3377284D01*
X9776417D01*
Y3367284D01*
X9766417D01*
Y3347284D01*
X9776417D01*
X9780417Y3351284D02*
Y3345284D01*
X9792417D01*
Y3351284D01*
X9798417D01*
Y3363284D01*
X9792417D01*
Y3369284D01*
X9780417D01*
Y3363284D01*
X9774417D01*
Y3351284D01*
X9780417D01*
X9692756Y3287244D02*
Y3277244D01*
X9712756D01*
Y3287244D01*
X9722756D01*
Y3307244D01*
X9712756D01*
Y3317244D01*
X9692756D01*
Y3307244D01*
X9682756D01*
Y3287244D01*
X9692756D01*
X9696756Y3291244D02*
Y3285244D01*
X9708756D01*
Y3291244D01*
X9714756D01*
Y3303244D01*
X9708756D01*
Y3309244D01*
X9696756D01*
Y3303244D01*
X9690756D01*
Y3291244D01*
X9696756D01*
X9738031Y3317756D02*
Y3307756D01*
X9758031D01*
Y3317756D01*
X9768031D01*
Y3337756D01*
X9758031D01*
Y3347756D01*
X9738031D01*
Y3337756D01*
X9728031D01*
Y3317756D01*
X9738031D01*
X9742031Y3321756D02*
Y3315756D01*
X9754031D01*
Y3321756D01*
X9760031D01*
Y3333756D01*
X9754031D01*
Y3339756D01*
X9742031D01*
Y3333756D01*
X9736031D01*
Y3321756D01*
X9742031D01*
X9836457Y2859095D02*
Y2849095D01*
X9856457D01*
Y2859095D01*
X9866457D01*
Y2879095D01*
X9856457D01*
Y2889095D01*
X9836457D01*
Y2879095D01*
X9826457D01*
Y2859095D01*
X9836457D01*
X9840457Y2863095D02*
Y2857095D01*
X9852457D01*
Y2863095D01*
X9858457D01*
Y2875095D01*
X9852457D01*
Y2881095D01*
X9840457D01*
Y2875095D01*
X9834457D01*
Y2863095D01*
X9840457D01*
X9866969Y2866968D02*
Y2856968D01*
X9886969D01*
Y2866968D01*
X9896969D01*
Y2886968D01*
X9886969D01*
Y2896968D01*
X9866969D01*
Y2886968D01*
X9856969D01*
Y2866968D01*
X9866969D01*
X9870969Y2870968D02*
Y2864968D01*
X9882969D01*
Y2870968D01*
X9888969D01*
Y2882968D01*
X9882969D01*
Y2888968D01*
X9870969D01*
Y2882968D01*
X9864969D01*
Y2870968D01*
X9870969D01*
X10082520Y2844331D02*
Y2834331D01*
X10102520D01*
Y2844331D01*
X10112520D01*
Y2864331D01*
X10102520D01*
Y2874331D01*
X10082520D01*
Y2864331D01*
X10072520D01*
Y2844331D01*
X10082520D01*
X10086520Y2848331D02*
Y2842331D01*
X10098520D01*
Y2848331D01*
X10104520D01*
Y2860331D01*
X10098520D01*
Y2866331D01*
X10086520D01*
Y2860331D01*
X10080520D01*
Y2848331D01*
X10086520D01*
X9601220Y3227205D02*
Y3217205D01*
X9621220D01*
Y3227205D01*
X9631220D01*
Y3247205D01*
X9621220D01*
Y3257205D01*
X9601220D01*
Y3247205D01*
X9591220D01*
Y3227205D01*
X9601220D01*
X9605220Y3231205D02*
Y3225205D01*
X9617220D01*
Y3231205D01*
X9623220D01*
Y3243205D01*
X9617220D01*
Y3249205D01*
X9605220D01*
Y3243205D01*
X9599220D01*
Y3231205D01*
X9605220D01*
X9647480Y3258701D02*
Y3248701D01*
X9667480D01*
Y3258701D01*
X9677480D01*
Y3278701D01*
X9667480D01*
Y3288701D01*
X9647480D01*
Y3278701D01*
X9637480D01*
Y3258701D01*
X9647480D01*
X9651480Y3262701D02*
Y3256701D01*
X9663480D01*
Y3262701D01*
X9669480D01*
Y3274701D01*
X9663480D01*
Y3280701D01*
X9651480D01*
Y3274701D01*
X9645480D01*
Y3262701D01*
X9651480D01*
X10507126Y3329173D02*
Y3319173D01*
X10527126D01*
Y3329173D01*
X10537126D01*
Y3349173D01*
X10527126D01*
Y3359173D01*
X10507126D01*
Y3349173D01*
X10497126D01*
Y3329173D01*
X10507126D01*
X10511126Y3333173D02*
Y3327173D01*
X10523126D01*
Y3333173D01*
X10529126D01*
Y3345173D01*
X10523126D01*
Y3351173D01*
X10511126D01*
Y3345173D01*
X10505126D01*
Y3333173D01*
X10511126D01*
X10557126Y3329370D02*
Y3319370D01*
X10577126D01*
Y3329370D01*
X10587126D01*
Y3349370D01*
X10577126D01*
Y3359370D01*
X10557126D01*
Y3349370D01*
X10547126D01*
Y3329370D01*
X10557126D01*
X10561126Y3333370D02*
Y3327370D01*
X10573126D01*
Y3333370D01*
X10579126D01*
Y3345370D01*
X10573126D01*
Y3351370D01*
X10561126D01*
Y3345370D01*
X10555126D01*
Y3333370D01*
X10561126D01*
X10607126Y3329567D02*
Y3319567D01*
X10627126D01*
Y3329567D01*
X10637126D01*
Y3349567D01*
X10627126D01*
Y3359567D01*
X10607126D01*
Y3349567D01*
X10597126D01*
Y3329567D01*
X10607126D01*
X10611126Y3333567D02*
Y3327567D01*
X10623126D01*
Y3333567D01*
X10629126D01*
Y3345567D01*
X10623126D01*
Y3351567D01*
X10611126D01*
Y3345567D01*
X10605126D01*
Y3333567D01*
X10611126D01*
X10657126Y3330354D02*
Y3320354D01*
X10677126D01*
Y3330354D01*
X10687126D01*
Y3350354D01*
X10677126D01*
Y3360354D01*
X10657126D01*
Y3350354D01*
X10647126D01*
Y3330354D01*
X10657126D01*
X10661126Y3334354D02*
Y3328354D01*
X10673126D01*
Y3334354D01*
X10679126D01*
Y3346354D01*
X10673126D01*
Y3352354D01*
X10661126D01*
Y3346354D01*
X10655126D01*
Y3334354D01*
X10661126D01*
X10707126Y3329961D02*
Y3319961D01*
X10727126D01*
Y3329961D01*
X10737126D01*
Y3349961D01*
X10727126D01*
Y3359961D01*
X10707126D01*
Y3349961D01*
X10697126D01*
Y3329961D01*
X10707126D01*
X10711126Y3333961D02*
Y3327961D01*
X10723126D01*
Y3333961D01*
X10729126D01*
Y3345961D01*
X10723126D01*
Y3351961D01*
X10711126D01*
Y3345961D01*
X10705126D01*
Y3333961D01*
X10711126D01*
X4443740Y4438819D02*
Y4428819D01*
X4463740D01*
Y4438819D01*
X4473740D01*
Y4458819D01*
X4463740D01*
Y4468819D01*
X4443740D01*
Y4458819D01*
X4433740D01*
Y4438819D01*
X4443740D01*
X4447740Y4442819D02*
Y4436819D01*
X4459740D01*
Y4442819D01*
X4465740D01*
Y4454819D01*
X4459740D01*
Y4460819D01*
X4447740D01*
Y4454819D01*
X4441740D01*
Y4442819D01*
X4447740D01*
X4008897Y4894767D02*
Y4884767D01*
X4028897D01*
Y4894767D01*
X4038897D01*
Y4914767D01*
X4028897D01*
Y4924767D01*
X4008897D01*
Y4914767D01*
X3998897D01*
Y4894767D01*
X4008897D01*
X4012897Y4898767D02*
Y4892767D01*
X4024897D01*
Y4898767D01*
X4030897D01*
Y4910767D01*
X4024897D01*
Y4916767D01*
X4012897D01*
Y4910767D01*
X4006897D01*
Y4898767D01*
X4012897D01*
X3986063Y4876968D02*
Y4866968D01*
X4006063D01*
Y4876968D01*
X4016063D01*
Y4896968D01*
X4006063D01*
Y4906968D01*
X3986063D01*
Y4896968D01*
X3976063D01*
Y4876968D01*
X3986063D01*
X3990063Y4880968D02*
Y4874968D01*
X4002063D01*
Y4880968D01*
X4008063D01*
Y4892968D01*
X4002063D01*
Y4898968D01*
X3990063D01*
Y4892968D01*
X3984063D01*
Y4880968D01*
X3990063D01*
X3986063Y4639606D02*
Y4629606D01*
X4006063D01*
Y4639606D01*
X4016063D01*
Y4659606D01*
X4006063D01*
Y4669606D01*
X3986063D01*
Y4659606D01*
X3976063D01*
Y4639606D01*
X3986063D01*
X3990063Y4643606D02*
Y4637606D01*
X4002063D01*
Y4643606D01*
X4008063D01*
Y4655606D01*
X4002063D01*
Y4661606D01*
X3990063D01*
Y4655606D01*
X3984063D01*
Y4643606D01*
X3990063D01*
X4986396Y5427659D02*
Y5417659D01*
X5006396D01*
Y5427659D01*
X5016396D01*
Y5447659D01*
X5006396D01*
Y5457659D01*
X4986396D01*
Y5447659D01*
X4976396D01*
Y5427659D01*
X4986396D01*
X4990396Y5431659D02*
Y5425659D01*
X5002396D01*
Y5431659D01*
X5008396D01*
Y5443659D01*
X5002396D01*
Y5449659D01*
X4990396D01*
Y5443659D01*
X4984396D01*
Y5431659D01*
X4990396D01*
X4946385Y5468346D02*
Y5458346D01*
X4966385D01*
Y5468346D01*
X4976385D01*
Y5488346D01*
X4966385D01*
Y5498346D01*
X4946385D01*
Y5488346D01*
X4936385D01*
Y5468346D01*
X4946385D01*
X4950385Y5472346D02*
Y5466346D01*
X4962385D01*
Y5472346D01*
X4968385D01*
Y5484346D01*
X4962385D01*
Y5490346D01*
X4950385D01*
Y5484346D01*
X4944385D01*
Y5472346D01*
X4950385D01*
X4310365Y5842362D02*
Y5832362D01*
X4330365D01*
Y5842362D01*
X4340365D01*
Y5862362D01*
X4330365D01*
Y5872362D01*
X4310365D01*
Y5862362D01*
X4300365D01*
Y5842362D01*
X4310365D01*
X4314365Y5846362D02*
Y5840362D01*
X4326365D01*
Y5846362D01*
X4332365D01*
Y5858362D01*
X4326365D01*
Y5864362D01*
X4314365D01*
Y5858362D01*
X4308365D01*
Y5846362D01*
X4314365D01*
X1486063Y6200630D02*
Y6190630D01*
X1506063D01*
Y6200630D01*
X1516063D01*
Y6220630D01*
X1506063D01*
Y6230630D01*
X1486063D01*
Y6220630D01*
X1476063D01*
Y6200630D01*
X1486063D01*
X1490063Y6204630D02*
Y6198630D01*
X1502063D01*
Y6204630D01*
X1508063D01*
Y6216630D01*
X1502063D01*
Y6222630D01*
X1490063D01*
Y6216630D01*
X1484063D01*
Y6204630D01*
X1490063D01*
X1485079Y6251811D02*
Y6241811D01*
X1505079D01*
Y6251811D01*
X1515079D01*
Y6271811D01*
X1505079D01*
Y6281811D01*
X1485079D01*
Y6271811D01*
X1475079D01*
Y6251811D01*
X1485079D01*
X1489079Y6255811D02*
Y6249811D01*
X1501079D01*
Y6255811D01*
X1507079D01*
Y6267811D01*
X1501079D01*
Y6273811D01*
X1489079D01*
Y6267811D01*
X1483079D01*
Y6255811D01*
X1489079D01*
X1484685Y6300630D02*
Y6290630D01*
X1504685D01*
Y6300630D01*
X1514685D01*
Y6320630D01*
X1504685D01*
Y6330630D01*
X1484685D01*
Y6320630D01*
X1474685D01*
Y6300630D01*
X1484685D01*
X1488685Y6304630D02*
Y6298630D01*
X1500685D01*
Y6304630D01*
X1506685D01*
Y6316630D01*
X1500685D01*
Y6322630D01*
X1488685D01*
Y6316630D01*
X1482685D01*
Y6304630D01*
X1488685D01*
X1481535Y6350630D02*
Y6340630D01*
X1501535D01*
Y6350630D01*
X1511535D01*
Y6370630D01*
X1501535D01*
Y6380630D01*
X1481535D01*
Y6370630D01*
X1471535D01*
Y6350630D01*
X1481535D01*
X1485535Y6354630D02*
Y6348630D01*
X1497535D01*
Y6354630D01*
X1503535D01*
Y6366630D01*
X1497535D01*
Y6372630D01*
X1485535D01*
Y6366630D01*
X1479535D01*
Y6354630D01*
X1485535D01*
X1481142Y6400433D02*
Y6390433D01*
X1501142D01*
Y6400433D01*
X1511142D01*
Y6420433D01*
X1501142D01*
Y6430433D01*
X1481142D01*
Y6420433D01*
X1471142D01*
Y6400433D01*
X1481142D01*
X1485142Y6404433D02*
Y6398433D01*
X1497142D01*
Y6404433D01*
X1503142D01*
Y6416433D01*
X1497142D01*
Y6422433D01*
X1485142D01*
Y6416433D01*
X1479142D01*
Y6404433D01*
X1485142D01*
X1480158Y6450630D02*
Y6440630D01*
X1500158D01*
Y6450630D01*
X1510158D01*
Y6470630D01*
X1500158D01*
Y6480630D01*
X1480158D01*
Y6470630D01*
X1470158D01*
Y6450630D01*
X1480158D01*
X1484158Y6454630D02*
Y6448630D01*
X1496158D01*
Y6454630D01*
X1502158D01*
Y6466630D01*
X1496158D01*
Y6472630D01*
X1484158D01*
Y6466630D01*
X1478158D01*
Y6454630D01*
X1484158D01*
X1479173Y6500827D02*
Y6490827D01*
X1499173D01*
Y6500827D01*
X1509173D01*
Y6520827D01*
X1499173D01*
Y6530827D01*
X1479173D01*
Y6520827D01*
X1469173D01*
Y6500827D01*
X1479173D01*
X1483173Y6504827D02*
Y6498827D01*
X1495173D01*
Y6504827D01*
X1501173D01*
Y6516827D01*
X1495173D01*
Y6522827D01*
X1483173D01*
Y6516827D01*
X1477173D01*
Y6504827D01*
X1483173D01*
X1479173Y6550039D02*
Y6540039D01*
X1499173D01*
Y6550039D01*
X1509173D01*
Y6570039D01*
X1499173D01*
Y6580039D01*
X1479173D01*
Y6570039D01*
X1469173D01*
Y6550039D01*
X1479173D01*
X1483173Y6554039D02*
Y6548039D01*
X1495173D01*
Y6554039D01*
X1501173D01*
Y6566039D01*
X1495173D01*
Y6572039D01*
X1483173D01*
Y6566039D01*
X1477173D01*
Y6554039D01*
X1483173D01*
X1480158Y6647480D02*
Y6637480D01*
X1500158D01*
Y6647480D01*
X1510158D01*
Y6667480D01*
X1500158D01*
Y6677480D01*
X1480158D01*
Y6667480D01*
X1470158D01*
Y6647480D01*
X1480158D01*
X1484158Y6651480D02*
Y6645480D01*
X1496158D01*
Y6651480D01*
X1502158D01*
Y6663480D01*
X1496158D01*
Y6669480D01*
X1484158D01*
Y6663480D01*
X1478158D01*
Y6651480D01*
X1484158D01*
X1479567Y6600630D02*
Y6590630D01*
X1499567D01*
Y6600630D01*
X1509567D01*
Y6620630D01*
X1499567D01*
Y6630630D01*
X1479567D01*
Y6620630D01*
X1469567D01*
Y6600630D01*
X1479567D01*
X1483567Y6604630D02*
Y6598630D01*
X1495567D01*
Y6604630D01*
X1501567D01*
Y6616630D01*
X1495567D01*
Y6622630D01*
X1483567D01*
Y6616630D01*
X1477567D01*
Y6604630D01*
X1483567D01*
X4682913Y5850423D02*
Y5840423D01*
X4702913D01*
Y5850423D01*
X4712913D01*
Y5870423D01*
X4702913D01*
Y5880423D01*
X4682913D01*
Y5870423D01*
X4672913D01*
Y5850423D01*
X4682913D01*
X4686913Y5854423D02*
Y5848423D01*
X4698913D01*
Y5854423D01*
X4704913D01*
Y5866423D01*
X4698913D01*
Y5872423D01*
X4686913D01*
Y5866423D01*
X4680913D01*
Y5854423D01*
X4686913D01*
X5006732Y5680945D02*
Y5670945D01*
X5026732D01*
Y5680945D01*
X5036732D01*
Y5700945D01*
X5026732D01*
Y5710945D01*
X5006732D01*
Y5700945D01*
X4996732D01*
Y5680945D01*
X5006732D01*
X5010732Y5684945D02*
Y5678945D01*
X5022732D01*
Y5684945D01*
X5028732D01*
Y5696945D01*
X5022732D01*
Y5702945D01*
X5010732D01*
Y5696945D01*
X5004732D01*
Y5684945D01*
X5010732D01*
X5159291Y5144528D02*
Y5134528D01*
X5179291D01*
Y5144528D01*
X5189291D01*
Y5164528D01*
X5179291D01*
Y5174528D01*
X5159291D01*
Y5164528D01*
X5149291D01*
Y5144528D01*
X5159291D01*
X5163291Y5148528D02*
Y5142528D01*
X5175291D01*
Y5148528D01*
X5181291D01*
Y5160528D01*
X5175291D01*
Y5166528D01*
X5163291D01*
Y5160528D01*
X5157291D01*
Y5148528D01*
X5163291D01*
X4962441Y4940787D02*
Y4930787D01*
X4982441D01*
Y4940787D01*
X4992441D01*
Y4960787D01*
X4982441D01*
Y4970787D01*
X4962441D01*
Y4960787D01*
X4952441D01*
Y4940787D01*
X4962441D01*
X4966441Y4944787D02*
Y4938787D01*
X4978441D01*
Y4944787D01*
X4984441D01*
Y4956787D01*
X4978441D01*
Y4962787D01*
X4966441D01*
Y4956787D01*
X4960441D01*
Y4944787D01*
X4966441D01*
D115*
X274205Y6507087D02*
G03*
X274205Y6507087I-12000J0D01*
G01*
Y5692126D02*
G03*
X274205Y5692126I-12000J0D01*
G01*
X11560819Y4664173D02*
G03*
X11560819Y4664173I-12000J0D01*
G01*
Y5479134D02*
G03*
X11560819Y5479134I-12000J0D01*
G01*
X6218693Y296063D02*
G03*
X6218693Y296063I-12000J0D01*
G01*
X7033654D02*
G03*
X7033654Y296063I-12000J0D01*
G01*
X9342709Y301575D02*
G03*
X9342709Y301575I-12000J0D01*
G01*
X10157669D02*
G03*
X10157669Y301575I-12000J0D01*
G01*
X3012395Y296063D02*
G03*
X3012395Y296063I-12000J0D01*
G01*
X3827356D02*
G03*
X3827356Y296063I-12000J0D01*
G01*
D183*
X10749134Y1555118D02*
G03*
X10749134Y1555118I-20000J0D01*
G01*
X11160945D02*
G03*
X11160945Y1555118I-20000J0D01*
G01*
X10749134Y1948819D02*
G03*
X10749134Y1948819I-20000J0D01*
G01*
X11160945D02*
G03*
X11160945Y1948819I-20000J0D01*
G01*
X10749134Y2342520D02*
G03*
X10749134Y2342520I-20000J0D01*
G01*
X11160945D02*
G03*
X11160945Y2342520I-20000J0D01*
G01*
X10749134Y2736220D02*
G03*
X10749134Y2736220I-20000J0D01*
G01*
X11160945D02*
G03*
X11160945Y2736220I-20000J0D01*
G01*
X10749134Y3129921D02*
G03*
X10749134Y3129921I-20000J0D01*
G01*
X11160945D02*
G03*
X11160945Y3129921I-20000J0D01*
G01*
X9953465Y1555118D02*
G03*
X9953465Y1555118I-20000J0D01*
G01*
X10365276D02*
G03*
X10365276Y1555118I-20000J0D01*
G01*
X9951890Y1948819D02*
G03*
X9951890Y1948819I-20000J0D01*
G01*
X10363701D02*
G03*
X10363701Y1948819I-20000J0D01*
G01*
X9951890Y2342520D02*
G03*
X9951890Y2342520I-20000J0D01*
G01*
X10363701D02*
G03*
X10363701Y2342520I-20000J0D01*
G01*
X9953465Y2736220D02*
G03*
X9953465Y2736220I-20000J0D01*
G01*
X10365276D02*
G03*
X10365276Y2736220I-20000J0D01*
G01*
X9953465Y3129921D02*
G03*
X9953465Y3129921I-20000J0D01*
G01*
X10365276D02*
G03*
X10365276Y3129921I-20000J0D01*
G01*
X9166063Y1555118D02*
G03*
X9166063Y1555118I-20000J0D01*
G01*
X9577874D02*
G03*
X9577874Y1555118I-20000J0D01*
G01*
X9164488Y1948819D02*
G03*
X9164488Y1948819I-20000J0D01*
G01*
X9576299D02*
G03*
X9576299Y1948819I-20000J0D01*
G01*
X9164488Y2342520D02*
G03*
X9164488Y2342520I-20000J0D01*
G01*
X9576299D02*
G03*
X9576299Y2342520I-20000J0D01*
G01*
X9166063Y2736220D02*
G03*
X9166063Y2736220I-20000J0D01*
G01*
X9577874D02*
G03*
X9577874Y2736220I-20000J0D01*
G01*
X9166063Y3129921D02*
G03*
X9166063Y3129921I-20000J0D01*
G01*
X9577874D02*
G03*
X9577874Y3129921I-20000J0D01*
G01*
X8378661Y1555118D02*
G03*
X8378661Y1555118I-20000J0D01*
G01*
X8790472D02*
G03*
X8790472Y1555118I-20000J0D01*
G01*
X8377087Y1948819D02*
G03*
X8377087Y1948819I-20000J0D01*
G01*
X8788898D02*
G03*
X8788898Y1948819I-20000J0D01*
G01*
X8377087Y2342520D02*
G03*
X8377087Y2342520I-20000J0D01*
G01*
X8788898D02*
G03*
X8788898Y2342520I-20000J0D01*
G01*
X8378661Y2736220D02*
G03*
X8378661Y2736220I-20000J0D01*
G01*
X8790472D02*
G03*
X8790472Y2736220I-20000J0D01*
G01*
X8378661Y3129921D02*
G03*
X8378661Y3129921I-20000J0D01*
G01*
X8790472D02*
G03*
X8790472Y3129921I-20000J0D01*
G01*
X7591260Y1555118D02*
G03*
X7591260Y1555118I-20000J0D01*
G01*
X8003071D02*
G03*
X8003071Y1555118I-20000J0D01*
G01*
X7589685Y1948819D02*
G03*
X7589685Y1948819I-20000J0D01*
G01*
X8001496D02*
G03*
X8001496Y1948819I-20000J0D01*
G01*
X7589685Y2342520D02*
G03*
X7589685Y2342520I-20000J0D01*
G01*
X8001496D02*
G03*
X8001496Y2342520I-20000J0D01*
G01*
X7589685Y2746063D02*
G03*
X7589685Y2746063I-20000J0D01*
G01*
X8001496D02*
G03*
X8001496Y2746063I-20000J0D01*
G01*
X7589685Y3139764D02*
G03*
X7589685Y3139764I-20000J0D01*
G01*
X8001496D02*
G03*
X8001496Y3139764I-20000J0D01*
G01*
X6803858Y1555118D02*
G03*
X6803858Y1555118I-20000J0D01*
G01*
X7215669D02*
G03*
X7215669Y1555118I-20000J0D01*
G01*
X6803858Y1948819D02*
G03*
X6803858Y1948819I-20000J0D01*
G01*
X7215669D02*
G03*
X7215669Y1948819I-20000J0D01*
G01*
X6812126Y2342520D02*
G03*
X6812126Y2342520I-20000J0D01*
G01*
X7223937D02*
G03*
X7223937Y2342520I-20000J0D01*
G01*
X6803858Y2746063D02*
G03*
X6803858Y2746063I-20000J0D01*
G01*
X7215669D02*
G03*
X7215669Y2746063I-20000J0D01*
G01*
X6803858Y3129921D02*
G03*
X6803858Y3129921I-20000J0D01*
G01*
X7215669D02*
G03*
X7215669Y3129921I-20000J0D01*
G01*
X6020787Y1564961D02*
G03*
X6020787Y1564961I-20000J0D01*
G01*
X6432598D02*
G03*
X6432598Y1564961I-20000J0D01*
G01*
X6020787Y1958661D02*
G03*
X6020787Y1958661I-20000J0D01*
G01*
X6432598D02*
G03*
X6432598Y1958661I-20000J0D01*
G01*
X6020787Y2352362D02*
G03*
X6020787Y2352362I-20000J0D01*
G01*
X6432598D02*
G03*
X6432598Y2352362I-20000J0D01*
G01*
X6020787Y2746063D02*
G03*
X6020787Y2746063I-20000J0D01*
G01*
X6432598D02*
G03*
X6432598Y2746063I-20000J0D01*
G01*
X6016457Y3129921D02*
G03*
X6016457Y3129921I-20000J0D01*
G01*
X6428268D02*
G03*
X6428268Y3129921I-20000J0D01*
G01*
X5237323Y1555118D02*
G03*
X5237323Y1555118I-20000J0D01*
G01*
X5649134D02*
G03*
X5649134Y1555118I-20000J0D01*
G01*
X5237323Y1948819D02*
G03*
X5237323Y1948819I-20000J0D01*
G01*
X5649134D02*
G03*
X5649134Y1948819I-20000J0D01*
G01*
X5237323Y2352362D02*
G03*
X5237323Y2352362I-20000J0D01*
G01*
X5649134D02*
G03*
X5649134Y2352362I-20000J0D01*
G01*
X5237323Y2746063D02*
G03*
X5237323Y2746063I-20000J0D01*
G01*
X5649134D02*
G03*
X5649134Y2746063I-20000J0D01*
G01*
X5237323Y3129921D02*
G03*
X5237323Y3129921I-20000J0D01*
G01*
X5649134D02*
G03*
X5649134Y3129921I-20000J0D01*
G01*
X282205Y6507087D02*
G03*
X282205Y6507087I-20000J0D01*
G01*
Y5692126D02*
G03*
X282205Y5692126I-20000J0D01*
G01*
X11568819Y4664173D02*
G03*
X11568819Y4664173I-20000J0D01*
G01*
Y5479134D02*
G03*
X11568819Y5479134I-20000J0D01*
G01*
X6226693Y296063D02*
G03*
X6226693Y296063I-20000J0D01*
G01*
X7041654D02*
G03*
X7041654Y296063I-20000J0D01*
G01*
X9350709Y301575D02*
G03*
X9350709Y301575I-20000J0D01*
G01*
X10165669D02*
G03*
X10165669Y301575I-20000J0D01*
G01*
X3020395Y296063D02*
G03*
X3020395Y296063I-20000J0D01*
G01*
X3835356D02*
G03*
X3835356Y296063I-20000J0D01*
G01*
%TF.MD5,a759d8739b591f9e5b9c7a264835006f*%
M02*
